<svg width="1350" height="432" viewBox="0 0 1350 432" fill="none" xmlns="http://www.w3.org/2000/svg">
<g opacity="0.75">
<path d="M0.217285 67.52H199.514V345.311H0.217285V67.52Z" fill="#FEC14F"/>
<path d="M199.485 59.731H0.217285V68.7987H199.485V59.731Z" fill="#EAEAEA"/>
<rect x="14.98" y="62.4385" width="3.97463" height="3.97463" fill="white"/>
<rect x="22.9294" y="62.4385" width="3.97463" height="3.97463" fill="white"/>
<rect x="30.8787" y="62.4385" width="3.97463" height="3.97463" fill="white"/>
<rect x="77.9114" y="62.4385" width="106.653" height="3.97463" fill="white"/>
<path d="M182.566 80.6123H17.6013C15.2005 80.6123 13.2543 82.5585 13.2543 84.9593V329.204C13.2543 331.605 15.2005 333.551 17.6013 333.551H182.566C184.967 333.551 186.913 331.605 186.913 329.204V84.9593C186.913 82.5585 184.967 80.6123 182.566 80.6123Z" fill="white"/>
<path d="M143.731 307.745H57.4231C55.8603 307.745 54.5934 309.012 54.5934 310.575V320.069C54.5934 321.631 55.8603 322.898 57.4231 322.898H143.731C145.293 322.898 146.56 321.631 146.56 320.069V310.575C146.56 309.012 145.293 307.745 143.731 307.745Z" fill="#F59D4C"/>
<path d="M94.2601 314.504C94.181 314.108 93.8546 313.594 93.0041 313.594C92.3414 313.594 91.7826 314.068 91.7826 314.692C91.7826 315.221 92.1436 315.582 92.7024 315.695L93.192 315.794C93.464 315.849 93.6173 316.007 93.6173 316.21C93.6173 316.457 93.4145 316.64 93.0486 316.64C92.5541 316.64 92.3117 316.328 92.2821 315.982L91.6491 316.15C91.7035 316.65 92.1139 317.248 93.0436 317.248C93.8596 317.248 94.3096 316.704 94.3096 316.165C94.3096 315.671 93.9684 315.255 93.3305 315.132L92.8409 315.038C92.5837 314.988 92.4601 314.835 92.4601 314.642C92.4601 314.41 92.6777 314.197 93.009 314.197C93.4541 314.197 93.6123 314.499 93.6469 314.692L94.2601 314.504ZM96.1866 317.253C96.9383 317.253 97.5366 316.793 97.5366 315.933V313.668H96.8542V315.883C96.8542 316.343 96.602 316.586 96.1866 316.586C95.7811 316.586 95.524 316.343 95.524 315.883V313.668H94.8415V315.933C94.8415 316.793 95.4399 317.253 96.1866 317.253ZM98.3049 313.668V317.174H99.6599C100.318 317.174 100.743 316.764 100.743 316.195C100.743 315.76 100.466 315.448 100.125 315.364C100.417 315.265 100.634 314.973 100.634 314.612C100.634 314.068 100.248 313.668 99.5659 313.668H98.3049ZM98.9775 315.117V314.242H99.4572C99.7885 314.242 99.9616 314.41 99.9616 314.677C99.9616 314.944 99.7736 315.117 99.4621 315.117H98.9775ZM98.9775 316.605V315.681H99.5412C99.8824 315.681 100.06 315.873 100.06 316.15C100.06 316.432 99.8627 316.605 99.5313 316.605H98.9775ZM105.235 317.174V313.668H104.305L103.277 316.2L102.223 313.668H101.323V317.174H101.976V314.736L102.985 317.174H103.554L104.562 314.716V317.174H105.235ZM106.729 317.174V313.668H106.037V317.174H106.729ZM110.11 314.316V313.668H107.207V314.316H108.315V317.174H109.003V314.316H110.11Z" fill="white"/>
<path d="M23.9455 132.55V130.414H25.0926C25.8187 130.414 26.2607 130.824 26.2607 131.487C26.2607 132.129 25.8187 132.55 25.0926 132.55H23.9455ZM25.2715 133.803C26.7448 133.803 27.7235 132.834 27.7235 131.477C27.7235 130.13 26.7448 129.151 25.2715 129.151H22.4828V136.612H23.935V133.803H25.2715ZM29.4514 133.434C29.4829 132.961 29.8828 132.413 30.609 132.413C31.4087 132.413 31.7455 132.919 31.7665 133.434H29.4514ZM31.9034 134.781C31.735 135.244 31.3772 135.57 30.7247 135.57C30.0302 135.57 29.4514 135.076 29.4198 134.392H33.1241C33.1241 134.371 33.1451 134.16 33.1451 133.96C33.1451 132.298 32.1875 131.277 30.5879 131.277C29.262 131.277 28.0412 132.35 28.0412 134.002C28.0412 135.749 29.2935 136.77 30.7142 136.77C31.9875 136.77 32.8084 136.023 33.0715 135.128L31.9034 134.781ZM37.4043 131.414C37.2991 131.403 37.1939 131.393 37.0781 131.393C36.6361 131.393 35.9205 131.519 35.6048 132.203V131.435H34.2473V136.612H35.6469V134.245C35.6469 133.129 36.2678 132.782 36.9834 132.782C37.1097 132.782 37.2465 132.792 37.4043 132.824V131.414ZM37.9777 135.171C38.0408 135.76 38.5775 136.77 40.135 136.77C41.4926 136.77 42.145 135.907 42.145 135.065C42.145 134.308 41.6294 133.687 40.6086 133.476L39.8719 133.318C39.5878 133.266 39.3984 133.108 39.3984 132.855C39.3984 132.561 39.693 132.34 40.0614 132.34C40.6507 132.34 40.8717 132.729 40.9138 133.034L42.0819 132.771C42.0187 132.213 41.5241 131.277 40.0508 131.277C38.9353 131.277 38.1145 132.045 38.1145 132.971C38.1145 133.697 38.567 134.297 39.5668 134.518L40.2508 134.676C40.6507 134.76 40.8085 134.95 40.8085 135.181C40.8085 135.455 40.5875 135.697 40.1245 135.697C39.5141 135.697 39.209 135.318 39.1774 134.907L37.9777 135.171ZM45.5755 135.497C44.8915 135.497 44.2601 134.992 44.2601 134.024C44.2601 133.045 44.8915 132.55 45.5755 132.55C46.2595 132.55 46.8909 133.045 46.8909 134.024C46.8909 135.002 46.2595 135.497 45.5755 135.497ZM45.5755 131.277C44.0285 131.277 42.8604 132.424 42.8604 134.024C42.8604 135.613 44.0285 136.77 45.5755 136.77C47.1225 136.77 48.2906 135.613 48.2906 134.024C48.2906 132.424 47.1225 131.277 45.5755 131.277ZM50.795 133.634C50.795 133.034 51.1528 132.561 51.7631 132.561C52.4367 132.561 52.7208 133.013 52.7208 133.592V136.612H54.1204V133.35C54.1204 132.213 53.5311 131.298 52.2472 131.298C51.6895 131.298 51.0686 131.54 50.7529 132.077V131.435H49.3954V136.612H50.795V133.634ZM55.2252 135.202C55.2252 136.012 55.8987 136.76 57.0037 136.76C57.7719 136.76 58.2665 136.402 58.5296 135.991C58.5296 136.191 58.5506 136.475 58.5822 136.612H59.8661C59.8345 136.433 59.8029 136.065 59.8029 135.791V133.245C59.8029 132.203 59.1926 131.277 57.5509 131.277C56.1618 131.277 55.4146 132.171 55.3304 132.982L56.5722 133.245C56.6143 132.792 56.9511 132.403 57.5614 132.403C58.1507 132.403 58.4349 132.708 58.4349 133.076C58.4349 133.255 58.3402 133.403 58.0455 133.445L56.7722 133.634C55.9092 133.76 55.2252 134.276 55.2252 135.202ZM57.2983 135.718C56.8458 135.718 56.6248 135.423 56.6248 135.118C56.6248 134.718 56.909 134.518 57.2668 134.466L58.4349 134.287V134.518C58.4349 135.434 57.8877 135.718 57.2983 135.718ZM62.6134 136.612V128.993H61.2137V136.612H62.6134ZM68.2904 136.612V129.151H66.8171V136.612H68.2904ZM71.287 133.634C71.287 133.034 71.6448 132.561 72.2552 132.561C72.9287 132.561 73.2128 133.013 73.2128 133.592V136.612H74.6124V133.35C74.6124 132.213 74.0231 131.298 72.7393 131.298C72.1815 131.298 71.5606 131.54 71.2449 132.077V131.435H69.8874V136.612H71.287V133.634ZM78.4323 130.151C78.6638 130.151 78.8006 130.182 78.8743 130.203V129.025C78.7585 128.972 78.4744 128.92 78.1797 128.92C77.0327 128.92 76.296 129.677 76.296 130.845V131.435H75.4331V132.634H76.296V136.612H77.7062V132.634H78.8743V131.435H77.7062V130.866C77.7062 130.288 78.1166 130.151 78.4323 130.151ZM81.9966 135.497C81.3126 135.497 80.6812 134.992 80.6812 134.024C80.6812 133.045 81.3126 132.55 81.9966 132.55C82.6807 132.55 83.3121 133.045 83.3121 134.024C83.3121 135.002 82.6807 135.497 81.9966 135.497ZM81.9966 131.277C80.4497 131.277 79.2816 132.424 79.2816 134.024C79.2816 135.613 80.4497 136.77 81.9966 136.77C83.5436 136.77 84.7117 135.613 84.7117 134.024C84.7117 132.424 83.5436 131.277 81.9966 131.277ZM88.9735 131.414C88.8683 131.403 88.7631 131.393 88.6473 131.393C88.2053 131.393 87.4897 131.519 87.174 132.203V131.435H85.8165V136.612H87.2161V134.245C87.2161 133.129 87.837 132.782 88.5526 132.782C88.6789 132.782 88.8157 132.792 88.9735 132.824V131.414ZM91.3577 136.612V133.582C91.3577 133.013 91.7155 132.561 92.3259 132.561C92.9573 132.561 93.2414 132.982 93.2414 133.539V136.612H94.6305V133.582C94.6305 133.024 94.9883 132.561 95.5881 132.561C96.2301 132.561 96.5037 132.982 96.5037 133.539V136.612H97.8612V133.255C97.8612 131.866 96.9457 131.287 95.988 131.287C95.304 131.287 94.7568 131.519 94.3464 132.15C94.0833 131.593 93.515 131.287 92.8099 131.287C92.2417 131.287 91.5787 131.561 91.2946 132.066V131.435H89.9581V136.612H91.3577ZM98.9635 135.202C98.9635 136.012 99.637 136.76 100.742 136.76C101.51 136.76 102.005 136.402 102.268 135.991C102.268 136.191 102.289 136.475 102.32 136.612H103.604C103.573 136.433 103.541 136.065 103.541 135.791V133.245C103.541 132.203 102.931 131.277 101.289 131.277C99.9001 131.277 99.1529 132.171 99.0687 132.982L100.31 133.245C100.353 132.792 100.689 132.403 101.3 132.403C101.889 132.403 102.173 132.708 102.173 133.076C102.173 133.255 102.078 133.403 101.784 133.445L100.51 133.634C99.6475 133.76 98.9635 134.276 98.9635 135.202ZM101.037 135.718C100.584 135.718 100.363 135.423 100.363 135.118C100.363 134.718 100.647 134.518 101.005 134.466L102.173 134.287V134.518C102.173 135.434 101.626 135.718 101.037 135.718ZM106.647 129.888H105.384V130.614C105.384 131.077 105.132 131.435 104.584 131.435H104.321V132.677H105.258V135.086C105.258 136.086 105.889 136.686 106.9 136.686C107.31 136.686 107.563 136.612 107.689 136.56V135.402C107.615 135.423 107.426 135.444 107.257 135.444C106.857 135.444 106.647 135.297 106.647 134.844V132.677H107.689V131.435H106.647V129.888ZM110.277 136.612V131.435H108.878V136.612H110.277ZM108.709 129.74C108.709 130.203 109.099 130.593 109.572 130.593C110.056 130.593 110.435 130.203 110.435 129.74C110.435 129.256 110.056 128.867 109.572 128.867C109.099 128.867 108.709 129.256 108.709 129.74ZM114.101 135.497C113.417 135.497 112.786 134.992 112.786 134.024C112.786 133.045 113.417 132.55 114.101 132.55C114.786 132.55 115.417 133.045 115.417 134.024C115.417 135.002 114.786 135.497 114.101 135.497ZM114.101 131.277C112.555 131.277 111.386 132.424 111.386 134.024C111.386 135.613 112.555 136.77 114.101 136.77C115.648 136.77 116.817 135.613 116.817 134.024C116.817 132.424 115.648 131.277 114.101 131.277ZM119.321 133.634C119.321 133.034 119.679 132.561 120.289 132.561C120.963 132.561 121.247 133.013 121.247 133.592V136.612H122.646V133.35C122.646 132.213 122.057 131.298 120.773 131.298C120.215 131.298 119.595 131.54 119.279 132.077V131.435H117.921V136.612H119.321V133.634Z" fill="#09224C"/>
<path d="M82.9275 158.285H19.6538V168.031H82.9275V158.285Z" fill="#DBDBDB"/>
<path d="M154.774 157.971H91.5004V167.717H154.774V157.971Z" fill="#DBDBDB"/>
<path d="M154.321 158.203H91.9523V167.485H154.321V158.203Z" stroke="white" stroke-width="0.654558"/>
<path d="M82.9275 186.347H19.6538V196.093H82.9275V186.347Z" fill="#DBDBDB"/>
<path d="M82.9275 249.784H19.6538V259.53H82.9275V249.784Z" fill="#DBDBDB"/>
<path d="M172.858 218.594H19.6538V228.34H172.858V218.594Z" fill="#DBDBDB"/>
<path d="M172.858 233.377H19.6538V243.123H172.858V233.377Z" fill="#DBDBDB"/>
<path d="M154.774 186.033H91.5004V195.779H154.774V186.033Z" fill="#DBDBDB"/>
<path d="M153.994 249.47H90.7198V259.216H153.994V249.47Z" fill="#DBDBDB"/>
<path d="M124.508 273.793H91.1212V283.539H124.508V273.793Z" fill="#DBDBDB"/>
<path d="M65.5176 274.526H33.1273V284.272H65.5176V274.526Z" fill="#DBDBDB"/>
<path d="M26.1613 153.536V147.652H25.348V152.167L22.4103 147.652H21.3232V153.536H22.1364V148.74L25.3148 153.536H26.1613ZM27.28 152.466C27.28 153.096 27.8028 153.661 28.6161 153.661C29.3298 153.661 29.7281 153.279 29.9024 152.997C29.9024 153.287 29.9273 153.437 29.9439 153.536H30.7073C30.6907 153.437 30.6575 153.229 30.6575 152.881V150.881C30.6575 150.101 30.1928 149.42 28.9978 149.42C28.1348 149.42 27.446 149.951 27.363 150.715L28.1099 150.889C28.1597 150.424 28.4667 150.084 29.0144 150.084C29.6202 150.084 29.8775 150.408 29.8775 150.798C29.8775 150.939 29.8111 151.063 29.5704 151.096L28.4916 151.254C27.8028 151.354 27.28 151.752 27.28 152.466ZM28.724 153.005C28.3256 153.005 28.0767 152.723 28.0767 152.424C28.0767 152.067 28.3256 151.876 28.6576 151.827L29.8775 151.644V151.827C29.8775 152.698 29.363 153.005 28.724 153.005ZM32.6445 153.536V151.13C32.6445 150.532 33.018 150.117 33.574 150.117C34.1715 150.117 34.4204 150.515 34.4204 151.03V153.536H35.2005V151.121C35.2005 150.549 35.5739 150.117 36.1217 150.117C36.7109 150.117 36.9681 150.507 36.9681 151.03V153.536H37.7399V150.947C37.7399 149.901 37.0594 149.428 36.3623 149.428C35.8561 149.428 35.3416 149.611 35.0262 150.183C34.8105 149.669 34.3292 149.428 33.8312 149.428C33.3665 149.428 32.8686 149.636 32.6196 150.076V149.545H31.8728V153.536H32.6445ZM39.4944 151.13C39.5276 150.615 39.9259 150.109 40.5815 150.109C41.2869 150.109 41.6603 150.557 41.6769 151.13H39.4944ZM41.7931 152.167C41.6437 152.615 41.3201 152.972 40.6728 152.972C40.0006 152.972 39.4861 152.474 39.4695 151.76H42.4736C42.4819 151.71 42.4902 151.611 42.4902 151.511C42.4902 150.266 41.8014 149.42 40.5732 149.42C39.5691 149.42 38.6645 150.275 38.6645 151.528C38.6645 152.881 39.6023 153.661 40.6728 153.661C41.6022 153.661 42.2412 153.105 42.4653 152.399L41.7931 152.167Z" fill="black"/>
<path d="M22.1361 180.642V178.625H23.3145C24.0198 178.625 24.4514 179.024 24.4514 179.646C24.4514 180.252 24.0198 180.642 23.3145 180.642H22.1361ZM23.4638 181.372C24.551 181.372 25.2812 180.634 25.2812 179.638C25.2812 178.65 24.551 177.895 23.4638 177.895H21.3228V183.779H22.1361V181.372H23.4638ZM26.8905 181.43C26.907 180.841 27.2224 180.376 27.8199 180.376C28.517 180.376 28.7493 180.825 28.7493 181.381V183.779H29.5294V181.248C29.5294 180.36 29.0564 179.671 28.102 179.671C27.6456 179.671 27.1809 179.829 26.8905 180.252V177.771H26.1104V183.779H26.8905V181.43ZM32.4798 183.206C31.8159 183.206 31.235 182.708 31.235 181.779C31.235 180.858 31.8159 180.36 32.4798 180.36C33.1436 180.36 33.7245 180.858 33.7245 181.779C33.7245 182.708 33.1436 183.206 32.4798 183.206ZM32.4798 179.663C31.2848 179.663 30.4383 180.567 30.4383 181.779C30.4383 182.999 31.2848 183.903 32.4798 183.903C33.6748 183.903 34.5212 182.999 34.5212 181.779C34.5212 180.567 33.6748 179.663 32.4798 179.663ZM36.2993 181.472C36.2993 180.866 36.6147 180.376 37.2288 180.376C37.9258 180.376 38.1582 180.825 38.1582 181.381V183.779H38.9383V181.248C38.9383 180.36 38.4653 179.671 37.5109 179.671C37.0462 179.671 36.5732 179.862 36.2827 180.36V179.787H35.5192V183.779H36.2993V181.472ZM40.6853 181.372C40.7185 180.858 41.1169 180.351 41.7724 180.351C42.4778 180.351 42.8513 180.8 42.8679 181.372H40.6853ZM42.984 182.41C42.8347 182.858 42.511 183.215 41.8637 183.215C41.1915 183.215 40.677 182.717 40.6604 182.003H43.6645C43.6728 181.953 43.6811 181.854 43.6811 181.754C43.6811 180.509 42.9923 179.663 41.7641 179.663C40.76 179.663 39.8555 180.517 39.8555 181.771C39.8555 183.123 40.7932 183.903 41.8637 183.903C42.7932 183.903 43.4322 183.347 43.6562 182.642L42.984 182.41Z" fill="black"/>
<path d="M25.3974 215.581H26.2771L23.9369 209.697H22.9991L20.6589 215.581H21.5303L22.1527 213.938H24.7584L25.3974 215.581ZM23.4472 210.544L24.468 213.183H22.4431L23.4472 210.544ZM27.4098 213.573C27.4098 212.751 27.8745 212.17 28.5882 212.17C29.3019 212.17 29.7334 212.735 29.7334 213.556C29.7334 214.378 29.2936 215 28.5799 215C27.8331 215 27.4098 214.394 27.4098 213.573ZM29.7417 215.042C29.7417 215.282 29.7666 215.49 29.7832 215.581H30.5384C30.5301 215.515 30.4969 215.224 30.4969 214.842V209.573H29.7251V212.154C29.5924 211.83 29.2106 211.482 28.5052 211.482C27.3766 211.482 26.6132 212.444 26.6132 213.573C26.6132 214.759 27.3351 215.689 28.5052 215.689C29.1276 215.689 29.5509 215.357 29.7417 214.975V215.042ZM34.0395 211.548C33.998 211.54 33.8901 211.523 33.7822 211.523C33.3756 211.523 32.8777 211.672 32.5872 212.287V211.589H31.8238V215.581H32.6038V213.581C32.6038 212.701 33.0437 212.353 33.6993 212.353C33.8071 212.353 33.9233 212.361 34.0395 212.378V211.548ZM35.3366 213.174C35.3698 212.66 35.7681 212.154 36.4237 212.154C37.1291 212.154 37.5026 212.602 37.5191 213.174H35.3366ZM37.6353 214.212C37.486 214.66 37.1623 215.017 36.515 215.017C35.8428 215.017 35.3283 214.519 35.3117 213.805H38.3158C38.3241 213.755 38.3324 213.656 38.3324 213.556C38.3324 212.311 37.6436 211.465 36.4154 211.465C35.4113 211.465 34.5068 212.32 34.5068 213.573C34.5068 214.925 35.4445 215.706 36.515 215.706C37.4445 215.706 38.0835 215.15 38.3075 214.444L37.6353 214.212ZM38.9547 214.544C39.0211 215 39.4859 215.706 40.5813 215.706C41.5688 215.706 42.0418 215.033 42.0418 214.469C42.0418 213.88 41.6601 213.44 40.9381 213.282L40.2908 213.141C39.9838 213.075 39.8344 212.901 39.8344 212.66C39.8344 212.386 40.0999 212.129 40.4983 212.129C41.129 212.129 41.2949 212.585 41.3281 212.793L42.0169 212.535C41.9339 212.179 41.5937 211.465 40.4983 211.465C39.7182 211.465 39.0792 212.046 39.0792 212.726C39.0792 213.291 39.4527 213.714 40.0751 213.847L40.7555 213.996C41.0875 214.071 41.2701 214.262 41.2701 214.511C41.2701 214.793 41.0294 215.042 40.5896 215.042C40.0253 215.042 39.7099 214.71 39.6601 214.295L38.9547 214.544ZM42.7069 214.544C42.7733 215 43.2381 215.706 44.3335 215.706C45.321 215.706 45.794 215.033 45.794 214.469C45.794 213.88 45.4123 213.44 44.6903 213.282L44.043 213.141C43.736 213.075 43.5866 212.901 43.5866 212.66C43.5866 212.386 43.8521 212.129 44.2505 212.129C44.8812 212.129 45.0471 212.585 45.0803 212.793L45.7691 212.535C45.6861 212.179 45.3459 211.465 44.2505 211.465C43.4704 211.465 42.8314 212.046 42.8314 212.726C42.8314 213.291 43.2049 213.714 43.8273 213.847L44.5077 213.996C44.8397 214.071 45.0223 214.262 45.0223 214.511C45.0223 214.793 44.7816 215.042 44.3418 215.042C43.7775 215.042 43.4621 214.71 43.4123 214.295L42.7069 214.544Z" fill="black"/>
<path d="M26.4181 269.39V266.51H23.6049V267.24H25.6464C25.6132 267.846 25.1402 268.776 23.829 268.776C22.7751 268.776 21.7792 268.004 21.7792 266.444C21.7792 264.884 22.8083 264.128 23.8622 264.128C24.775 264.128 25.4638 264.626 25.7294 265.473L26.4679 265.157C26.1277 264.095 25.1402 263.381 23.8622 263.381C22.4099 263.381 20.9494 264.452 20.9494 266.444C20.9494 268.435 22.3269 269.514 23.8041 269.514C24.7916 269.514 25.4306 269.025 25.6879 268.56L25.7626 269.39H26.4181ZM28.0915 266.983C28.1247 266.469 28.5231 265.962 29.1787 265.962C29.884 265.962 30.2575 266.41 30.2741 266.983H28.0915ZM30.3903 268.02C30.2409 268.469 29.9172 268.825 29.2699 268.825C28.5978 268.825 28.0832 268.327 28.0666 267.614H31.0707C31.079 267.564 31.0873 267.464 31.0873 267.365C31.0873 266.12 30.3986 265.274 29.1704 265.274C28.1662 265.274 27.2617 266.128 27.2617 267.381C27.2617 268.734 28.1994 269.514 29.2699 269.514C30.1994 269.514 30.8384 268.958 31.0624 268.253L30.3903 268.02ZM32.8632 267.083C32.8632 266.477 33.1785 265.987 33.7926 265.987C34.4897 265.987 34.7221 266.435 34.7221 266.991V269.39H35.5021V266.859C35.5021 265.971 35.0291 265.282 34.0748 265.282C33.6101 265.282 33.137 265.473 32.8466 265.971V265.398H32.0831V269.39H32.8632V267.083ZM37.2077 267.381C37.2077 266.56 37.6724 265.979 38.3861 265.979C39.0998 265.979 39.5313 266.543 39.5313 267.365C39.5313 268.186 39.0915 268.809 38.3778 268.809C37.6309 268.809 37.2077 268.203 37.2077 267.381ZM39.5396 268.85C39.5396 269.091 39.5645 269.298 39.5811 269.39H40.3363C40.328 269.323 40.2948 269.033 40.2948 268.651V263.381H39.523V265.962C39.3902 265.639 39.0085 265.29 38.3031 265.29C37.1745 265.29 36.411 266.253 36.411 267.381C36.411 268.568 37.133 269.498 38.3031 269.498C38.9255 269.498 39.3487 269.166 39.5396 268.784V268.85ZM42.1279 266.983C42.161 266.469 42.5594 265.962 43.215 265.962C43.9204 265.962 44.2938 266.41 44.3104 266.983H42.1279ZM44.4266 268.02C44.2772 268.469 43.9535 268.825 43.3063 268.825C42.6341 268.825 42.1196 268.327 42.103 267.614H45.1071C45.1154 267.564 45.1236 267.464 45.1236 267.365C45.1236 266.12 44.4349 265.274 43.2067 265.274C42.2025 265.274 41.298 266.128 41.298 267.381C41.298 268.734 42.2357 269.514 43.3063 269.514C44.2357 269.514 44.8747 268.958 45.0988 268.253L44.4266 268.02ZM48.3351 265.357C48.2937 265.348 48.1858 265.332 48.0779 265.332C47.6713 265.332 47.1733 265.481 46.8829 266.095V265.398H46.1194V269.39H46.8995V267.39C46.8995 266.51 47.3393 266.161 47.9949 266.161C48.1028 266.161 48.219 266.17 48.3351 266.186V265.357Z" fill="black"/>
<path d="M96.3442 183.191V182.436H93.5808V180.635H96.0869V179.871H93.5808V178.062H96.3442V177.307H92.7675V183.191H96.3442ZM98.1567 183.191V180.784C98.1567 180.187 98.5301 179.772 99.0861 179.772C99.6836 179.772 99.9326 180.17 99.9326 180.685V183.191H100.713V180.776C100.713 180.203 101.086 179.772 101.634 179.772C102.223 179.772 102.48 180.162 102.48 180.685V183.191H103.252V180.602C103.252 179.556 102.572 179.083 101.874 179.083C101.368 179.083 100.854 179.266 100.538 179.838C100.323 179.324 99.8413 179.083 99.3434 179.083C98.8786 179.083 98.3807 179.291 98.1318 179.73V179.199H97.3849V183.191H98.1567ZM104.251 182.12C104.251 182.751 104.774 183.315 105.587 183.315C106.301 183.315 106.699 182.934 106.874 182.652C106.874 182.942 106.899 183.091 106.915 183.191H107.679C107.662 183.091 107.629 182.884 107.629 182.535V180.535C107.629 179.755 107.164 179.075 105.969 179.075C105.106 179.075 104.417 179.606 104.334 180.369L105.081 180.544C105.131 180.079 105.438 179.739 105.986 179.739C106.592 179.739 106.849 180.062 106.849 180.452C106.849 180.593 106.782 180.718 106.542 180.751L105.463 180.909C104.774 181.008 104.251 181.407 104.251 182.12ZM105.695 182.66C105.297 182.66 105.048 182.378 105.048 182.079C105.048 181.722 105.297 181.531 105.629 181.481L106.849 181.299V181.481C106.849 182.353 106.334 182.66 105.695 182.66ZM109.616 183.191V179.199H108.844V183.191H109.616ZM108.67 177.689C108.67 177.996 108.919 178.245 109.226 178.245C109.541 178.245 109.79 177.996 109.79 177.689C109.79 177.374 109.541 177.125 109.226 177.125C108.919 177.125 108.67 177.374 108.67 177.689ZM111.723 183.191V177.183H110.943V183.191H111.723Z" fill="black"/>
<path d="M13.2544 79.8599H186.913V114.548H13.2544V79.8599Z" fill="#3D93B4"/>
<path d="M55.1757 101.377H57.3321L53.4506 91.1849H51.1505L47.2402 101.377H49.3391L50.1873 99.0485H54.3275L55.1757 101.377ZM52.2574 93.3844L53.6662 97.2372H50.8486L52.2574 93.3844ZM60.404 101.377V90.9692H58.492V101.377H60.404ZM67.0519 101.377H68.8777C68.8489 101.133 68.8058 100.644 68.8058 100.098V94.3045H66.8938V98.416C66.8938 99.2354 66.405 99.8105 65.5568 99.8105C64.6655 99.8105 64.263 99.1779 64.263 98.3872V94.3045H62.351V98.7754C62.351 100.314 63.3286 101.564 65.0393 101.564C65.7869 101.564 66.6063 101.277 66.9944 100.616C66.9944 100.903 67.0232 101.234 67.0519 101.377ZM72.7583 101.377V97.2372C72.7583 96.4609 73.2471 95.8427 74.0809 95.8427C74.9434 95.8427 75.3316 96.4177 75.3316 97.1797V101.377H77.2292V97.2372C77.2292 96.4752 77.718 95.8427 78.5374 95.8427C79.4144 95.8427 79.7881 96.4177 79.7881 97.1797V101.377H81.6426V96.7915C81.6426 94.8939 80.3919 94.1032 79.0837 94.1032C78.1493 94.1032 77.4017 94.4195 76.8411 95.282C76.4817 94.5201 75.7054 94.1032 74.7422 94.1032C73.9659 94.1032 73.0602 94.477 72.672 95.167V94.3045H70.8463V101.377H72.7583ZM85.4917 97.309C85.4917 96.4896 85.9805 95.8427 86.8143 95.8427C87.7343 95.8427 88.1225 96.4609 88.1225 97.2515V101.377H90.0345V96.9209C90.0345 95.3683 89.2294 94.1176 87.4756 94.1176C86.7136 94.1176 85.8655 94.4482 85.4342 95.1814V94.3045H83.5797V101.377H85.4917V97.309ZM93.887 101.377V94.3045H91.975V101.377H93.887ZM91.745 91.9899C91.745 92.6225 92.2769 93.1544 92.9238 93.1544C93.5851 93.1544 94.1027 92.6225 94.1027 91.9899C94.1027 91.3286 93.5851 90.7967 92.9238 90.7967C92.2769 90.7967 91.745 91.3286 91.745 91.9899ZM106.487 93.6144C106.257 92.4643 105.308 90.9692 102.835 90.9692C100.909 90.9692 99.2846 92.3493 99.2846 94.1607C99.2846 95.6989 100.334 96.7484 101.959 97.079L103.382 97.3665C104.172 97.5247 104.618 97.9847 104.618 98.5741C104.618 99.2929 104.029 99.8248 102.965 99.8248C101.527 99.8248 100.823 98.9192 100.737 97.9128L98.8965 98.4016C99.0546 99.8536 100.248 101.593 102.951 101.593C105.323 101.593 106.631 100.012 106.631 98.4447C106.631 97.0072 105.639 95.7996 103.784 95.4402L102.361 95.167C101.614 95.0233 101.254 94.5776 101.254 94.017C101.254 93.3413 101.887 92.7231 102.85 92.7231C104.144 92.7231 104.604 93.6 104.704 94.1607L106.487 93.6144ZM112.609 101.377H114.434C114.406 101.133 114.362 100.644 114.362 100.098V94.3045H112.45V98.416C112.45 99.2354 111.962 99.8105 111.113 99.8105C110.222 99.8105 109.82 99.1779 109.82 98.3872V94.3045H107.908V98.7754C107.908 100.314 108.885 101.564 110.596 101.564C111.343 101.564 112.163 101.277 112.551 100.616C112.551 100.903 112.58 101.234 112.609 101.377ZM120.716 94.2757C120.572 94.2613 120.428 94.247 120.27 94.247C119.666 94.247 118.689 94.4195 118.257 95.3539V94.3045H116.403V101.377H118.315V98.1429C118.315 96.619 119.163 96.1446 120.141 96.1446C120.313 96.1446 120.5 96.159 120.716 96.2021V94.2757ZM128.942 94.3045H126.929L125.247 99.0485L123.493 94.3045H121.394L124.284 101.377H126.196L128.942 94.3045ZM131.289 97.0359C131.332 96.389 131.878 95.6414 132.87 95.6414C133.963 95.6414 134.423 96.3315 134.452 97.0359H131.289ZM134.638 98.876C134.408 99.5086 133.92 99.9542 133.028 99.9542C132.08 99.9542 131.289 99.2786 131.246 98.3441H136.306C136.306 98.3154 136.335 98.0278 136.335 97.7547C136.335 95.4833 135.027 94.0888 132.841 94.0888C131.03 94.0888 129.363 95.5552 129.363 97.8122C129.363 100.199 131.073 101.593 133.014 101.593C134.753 101.593 135.875 100.572 136.234 99.3504L134.638 98.876ZM140.186 104.166L144.628 94.3045H142.587L140.847 98.4447L138.964 94.3045H136.822L139.827 100.486L138.159 104.166H140.186Z" fill="white"/>
</g>
<path d="M1062.59 49.9243H1312.32V393.402H1062.59V49.9243Z" fill="#FEC14F"/>
<path d="M1312.28 40.2939H1062.59V51.5058H1312.28V40.2939Z" fill="#EAEAEA"/>
<rect x="1081.09" y="43.6406" width="4.98033" height="4.91447" fill="white"/>
<rect x="1091.05" y="43.6401" width="4.98033" height="4.91447" fill="white"/>
<rect x="1101.01" y="43.6401" width="4.98033" height="4.91447" fill="white"/>
<rect x="1159.95" y="43.6401" width="133.639" height="4.91447" fill="white"/>
<path d="M1291.08 66.1138H1084.37C1081.37 66.1138 1078.93 68.5202 1078.93 71.4887V373.488C1078.93 376.456 1081.37 378.863 1084.37 378.863H1291.08C1294.09 378.863 1296.53 376.456 1296.53 373.488V71.4887C1296.53 68.5202 1294.09 66.1138 1291.08 66.1138Z" fill="white"/>
<path d="M1102.48 311.904C1102.48 313.811 1100.92 315.367 1098.97 315.367C1097.02 315.367 1095.45 313.811 1095.45 311.904C1095.45 309.998 1097.02 308.442 1098.97 308.442C1100.92 308.442 1102.48 309.998 1102.48 311.904Z" stroke="#398EAE" stroke-width="0.956388"/>
<path d="M1175.44 311.904C1175.44 313.811 1173.87 315.367 1171.92 315.367C1169.97 315.367 1168.41 313.811 1168.41 311.904C1168.41 309.998 1169.97 308.442 1171.92 308.442C1173.87 308.442 1175.44 309.998 1175.44 311.904Z" stroke="#398EAE" stroke-width="0.956388"/>
<path d="M1242.42 346.954H1134.27C1132.31 346.954 1130.73 348.52 1130.73 350.452V362.191C1130.73 364.123 1132.31 365.69 1134.27 365.69H1242.42C1244.38 365.69 1245.96 364.123 1245.96 362.191V350.452C1245.96 348.52 1244.38 346.954 1242.42 346.954Z" fill="#F59D4C"/>
<path d="M1182.68 353.997C1182.51 353.154 1181.81 352.057 1180 352.057C1178.59 352.057 1177.4 353.07 1177.4 354.398C1177.4 355.526 1178.17 356.296 1179.36 356.539L1180.4 356.749C1180.98 356.865 1181.31 357.203 1181.31 357.635C1181.31 358.162 1180.88 358.552 1180.1 358.552C1179.04 358.552 1178.52 357.888 1178.46 357.15L1177.11 357.509C1177.23 358.574 1178.1 359.849 1180.08 359.849C1181.82 359.849 1182.78 358.689 1182.78 357.54C1182.78 356.486 1182.06 355.6 1180.7 355.337L1179.65 355.136C1179.1 355.031 1178.84 354.704 1178.84 354.293C1178.84 353.797 1179.3 353.344 1180.01 353.344C1180.96 353.344 1181.3 353.987 1181.37 354.398L1182.68 353.997ZM1186.79 359.86C1188.39 359.86 1189.66 358.879 1189.66 357.045V352.216H1188.21V356.939C1188.21 357.92 1187.67 358.436 1186.79 358.436C1185.92 358.436 1185.37 357.92 1185.37 356.939V352.216H1183.92V357.045C1183.92 358.879 1185.19 359.86 1186.79 359.86ZM1191.3 352.216V359.691H1194.19C1195.59 359.691 1196.5 358.816 1196.5 357.603C1196.5 356.676 1195.91 356.011 1195.18 355.832C1195.8 355.621 1196.27 354.999 1196.27 354.229C1196.27 353.07 1195.45 352.216 1193.99 352.216H1191.3ZM1192.74 355.305V353.439H1193.76C1194.47 353.439 1194.83 353.797 1194.83 354.366C1194.83 354.936 1194.43 355.305 1193.77 355.305H1192.74ZM1192.74 358.479V356.507H1193.94C1194.67 356.507 1195.05 356.918 1195.05 357.509C1195.05 358.11 1194.62 358.479 1193.92 358.479H1192.74ZM1206.08 359.691V352.216H1204.1L1201.9 357.614L1199.66 352.216H1197.74V359.691H1199.13V354.493L1201.28 359.691H1202.49L1204.64 354.451V359.691H1206.08ZM1209.26 359.691V352.216H1207.79V359.691H1209.26ZM1216.47 353.597V352.216H1210.28V353.597H1212.65V359.691H1214.11V353.597H1216.47Z" fill="white"/>
<path d="M1092.25 131.022V128.409H1093.66C1094.55 128.409 1095.09 128.911 1095.09 129.722C1095.09 130.507 1094.55 131.022 1093.66 131.022H1092.25ZM1093.88 132.553C1095.68 132.553 1096.87 131.369 1096.87 129.709C1096.87 128.062 1095.68 126.865 1093.88 126.865H1090.47V135.989H1092.24V132.553H1093.88ZM1098.99 132.103C1099.03 131.524 1099.52 130.855 1100.4 130.855C1101.38 130.855 1101.79 131.472 1101.82 132.103H1098.99ZM1101.99 133.75C1101.78 134.316 1101.34 134.715 1100.54 134.715C1099.7 134.715 1098.99 134.11 1098.95 133.274H1103.48C1103.48 133.248 1103.5 132.991 1103.5 132.746C1103.5 130.713 1102.33 129.465 1100.38 129.465C1098.76 129.465 1097.26 130.777 1097.26 132.798C1097.26 134.934 1098.79 136.182 1100.53 136.182C1102.09 136.182 1103.09 135.269 1103.41 134.175L1101.99 133.75ZM1108.71 129.632C1108.58 129.619 1108.46 129.606 1108.31 129.606C1107.77 129.606 1106.9 129.761 1106.51 130.597V129.658H1104.85V135.989H1106.56V133.094C1106.56 131.73 1107.32 131.305 1108.2 131.305C1108.35 131.305 1108.52 131.318 1108.71 131.356V129.632ZM1109.41 134.226C1109.49 134.947 1110.15 136.182 1112.05 136.182C1113.71 136.182 1114.51 135.127 1114.51 134.098C1114.51 133.171 1113.88 132.412 1112.63 132.154L1111.73 131.961C1111.38 131.897 1111.15 131.704 1111.15 131.395C1111.15 131.035 1111.51 130.764 1111.96 130.764C1112.68 130.764 1112.95 131.241 1113 131.614L1114.43 131.292C1114.36 130.61 1113.75 129.465 1111.95 129.465C1110.59 129.465 1109.58 130.404 1109.58 131.537C1109.58 132.425 1110.13 133.158 1111.36 133.428L1112.19 133.621C1112.68 133.724 1112.88 133.956 1112.88 134.239C1112.88 134.574 1112.61 134.87 1112.04 134.87C1111.29 134.87 1110.92 134.406 1110.88 133.905L1109.41 134.226ZM1118.71 134.625C1117.87 134.625 1117.1 134.007 1117.1 132.824C1117.1 131.627 1117.87 131.022 1118.71 131.022C1119.54 131.022 1120.31 131.627 1120.31 132.824C1120.31 134.02 1119.54 134.625 1118.71 134.625ZM1118.71 129.465C1116.81 129.465 1115.39 130.867 1115.39 132.824C1115.39 134.767 1116.81 136.182 1118.71 136.182C1120.6 136.182 1122.03 134.767 1122.03 132.824C1122.03 130.867 1120.6 129.465 1118.71 129.465ZM1125.09 132.347C1125.09 131.614 1125.53 131.035 1126.27 131.035C1127.1 131.035 1127.44 131.588 1127.44 132.296V135.989H1129.15V132C1129.15 130.61 1128.43 129.49 1126.86 129.49C1126.18 129.49 1125.42 129.786 1125.04 130.443V129.658H1123.38V135.989H1125.09V132.347ZM1130.51 134.265C1130.51 135.256 1131.33 136.169 1132.68 136.169C1133.62 136.169 1134.22 135.732 1134.55 135.23C1134.55 135.475 1134.57 135.822 1134.61 135.989H1136.18C1136.14 135.77 1136.1 135.32 1136.1 134.985V131.871C1136.1 130.597 1135.36 129.465 1133.35 129.465C1131.65 129.465 1130.74 130.559 1130.63 131.549L1132.15 131.871C1132.2 131.318 1132.62 130.842 1133.36 130.842C1134.08 130.842 1134.43 131.215 1134.43 131.665C1134.43 131.884 1134.31 132.064 1133.95 132.116L1132.4 132.347C1131.34 132.502 1130.51 133.132 1130.51 134.265ZM1133.04 134.895C1132.49 134.895 1132.22 134.535 1132.22 134.162C1132.22 133.673 1132.56 133.428 1133 133.364L1134.43 133.145V133.428C1134.43 134.548 1133.76 134.895 1133.04 134.895ZM1139.54 135.989V126.672H1137.83V135.989H1139.54ZM1146.48 135.989V126.865H1144.68V135.989H1146.48ZM1150.15 132.347C1150.15 131.614 1150.58 131.035 1151.33 131.035C1152.15 131.035 1152.5 131.588 1152.5 132.296V135.989H1154.21V132C1154.21 130.61 1153.49 129.49 1151.92 129.49C1151.24 129.49 1150.48 129.786 1150.1 130.443V129.658H1148.44V135.989H1150.15V132.347ZM1158.88 128.088C1159.17 128.088 1159.34 128.126 1159.43 128.152V126.711C1159.28 126.646 1158.94 126.582 1158.58 126.582C1157.17 126.582 1156.27 127.509 1156.27 128.937V129.658H1155.22V131.125H1156.27V135.989H1158V131.125H1159.43V129.658H1158V128.963C1158 128.255 1158.5 128.088 1158.88 128.088ZM1163.24 134.625C1162.41 134.625 1161.64 134.007 1161.64 132.824C1161.64 131.627 1162.41 131.022 1163.24 131.022C1164.08 131.022 1164.85 131.627 1164.85 132.824C1164.85 134.02 1164.08 134.625 1163.24 134.625ZM1163.24 129.465C1161.35 129.465 1159.92 130.867 1159.92 132.824C1159.92 134.767 1161.35 136.182 1163.24 136.182C1165.14 136.182 1166.56 134.767 1166.56 132.824C1166.56 130.867 1165.14 129.465 1163.24 129.465ZM1171.78 129.632C1171.65 129.619 1171.52 129.606 1171.38 129.606C1170.84 129.606 1169.96 129.761 1169.57 130.597V129.658H1167.91V135.989H1169.63V133.094C1169.63 131.73 1170.39 131.305 1171.26 131.305C1171.42 131.305 1171.58 131.318 1171.78 131.356V129.632ZM1174.69 135.989V132.283C1174.69 131.588 1175.13 131.035 1175.88 131.035C1176.65 131.035 1176.99 131.549 1176.99 132.232V135.989H1178.69V132.283C1178.69 131.601 1179.13 131.035 1179.86 131.035C1180.65 131.035 1180.98 131.549 1180.98 132.232V135.989H1182.64V131.884C1182.64 130.185 1181.52 129.478 1180.35 129.478C1179.52 129.478 1178.85 129.761 1178.35 130.533C1178.02 129.851 1177.33 129.478 1176.47 129.478C1175.77 129.478 1174.96 129.812 1174.61 130.43V129.658H1172.98V135.989H1174.69ZM1183.99 134.265C1183.99 135.256 1184.82 136.169 1186.17 136.169C1187.11 136.169 1187.71 135.732 1188.03 135.23C1188.03 135.475 1188.06 135.822 1188.1 135.989H1189.67C1189.63 135.77 1189.59 135.32 1189.59 134.985V131.871C1189.59 130.597 1188.84 129.465 1186.84 129.465C1185.14 129.465 1184.22 130.559 1184.12 131.549L1185.64 131.871C1185.69 131.318 1186.1 130.842 1186.85 130.842C1187.57 130.842 1187.92 131.215 1187.92 131.665C1187.92 131.884 1187.8 132.064 1187.44 132.116L1185.88 132.347C1184.83 132.502 1183.99 133.132 1183.99 134.265ZM1186.53 134.895C1185.97 134.895 1185.7 134.535 1185.7 134.162C1185.7 133.673 1186.05 133.428 1186.49 133.364L1187.92 133.145V133.428C1187.92 134.548 1187.25 134.895 1186.53 134.895ZM1193.39 127.766H1191.84V128.654C1191.84 129.22 1191.53 129.658 1190.87 129.658H1190.54V131.176H1191.69V134.123C1191.69 135.346 1192.46 136.079 1193.7 136.079C1194.2 136.079 1194.51 135.989 1194.66 135.925V134.509C1194.57 134.535 1194.34 134.561 1194.13 134.561C1193.65 134.561 1193.39 134.381 1193.39 133.827V131.176H1194.66V129.658H1193.39V127.766ZM1197.83 135.989V129.658H1196.12V135.989H1197.83ZM1195.91 127.586C1195.91 128.152 1196.39 128.628 1196.97 128.628C1197.56 128.628 1198.02 128.152 1198.02 127.586C1198.02 126.994 1197.56 126.518 1196.97 126.518C1196.39 126.518 1195.91 126.994 1195.91 127.586ZM1202.5 134.625C1201.67 134.625 1200.9 134.007 1200.9 132.824C1200.9 131.627 1201.67 131.022 1202.5 131.022C1203.34 131.022 1204.11 131.627 1204.11 132.824C1204.11 134.02 1203.34 134.625 1202.5 134.625ZM1202.5 129.465C1200.61 129.465 1199.18 130.867 1199.18 132.824C1199.18 134.767 1200.61 136.182 1202.5 136.182C1204.4 136.182 1205.82 134.767 1205.82 132.824C1205.82 130.867 1204.4 129.465 1202.5 129.465ZM1208.89 132.347C1208.89 131.614 1209.32 131.035 1210.07 131.035C1210.89 131.035 1211.24 131.588 1211.24 132.296V135.989H1212.95V132C1212.95 130.61 1212.23 129.49 1210.66 129.49C1209.98 129.49 1209.22 129.786 1208.84 130.443V129.658H1207.18V135.989H1208.89V132.347Z" fill="#398EAE"/>
<path d="M1168.61 162.15H1089.32V174.201H1168.61V162.15Z" fill="#DBDBDB"/>
<path d="M1256.26 161.763H1176.97V173.814H1256.26V161.763Z" fill="#DBDBDB"/>
<path d="M1166.23 196.849H1086.95V208.9H1166.23V196.849Z" fill="#DBDBDB"/>
<path d="M1166.23 275.287H1086.95V287.337H1166.23V275.287Z" fill="#DBDBDB"/>
<path d="M1278.92 236.721H1086.95V248.772H1278.92V236.721Z" fill="#DBDBDB"/>
<path d="M1278.92 255H1086.95V267.05H1278.92V255Z" fill="#DBDBDB"/>
<path d="M1256.26 196.461H1176.97V208.512H1256.26V196.461Z" fill="#DBDBDB"/>
<path d="M1255.28 274.898H1175.99V286.949H1255.28V274.898Z" fill="#DBDBDB"/>
<path d="M1218.33 304.972H1176.5V317.023H1218.33V304.972Z" fill="#DBDBDB"/>
<path d="M1144.42 305.878H1103.83V317.929H1144.42V305.878Z" fill="#DBDBDB"/>
<path d="M1098.01 159.388V150.133H1096.73V157.234L1092.11 150.133H1090.4V159.388H1091.68V151.843L1096.68 159.388H1098.01ZM1099.77 157.704C1099.77 158.696 1100.59 159.584 1101.87 159.584C1102.99 159.584 1103.62 158.984 1103.89 158.54C1103.89 158.997 1103.93 159.232 1103.96 159.388H1105.16C1105.13 159.232 1105.08 158.905 1105.08 158.357V155.211C1105.08 153.984 1104.35 152.914 1102.47 152.914C1101.11 152.914 1100.03 153.749 1099.9 154.95L1101.07 155.224C1101.15 154.493 1101.64 153.958 1102.5 153.958C1103.45 153.958 1103.85 154.467 1103.85 155.08C1103.85 155.302 1103.75 155.498 1103.37 155.55L1101.67 155.798C1100.59 155.955 1099.77 156.582 1099.77 157.704ZM1102.04 158.553C1101.41 158.553 1101.02 158.109 1101.02 157.639C1101.02 157.078 1101.41 156.777 1101.94 156.699L1103.85 156.412V156.699C1103.85 158.07 1103.05 158.553 1102.04 158.553ZM1108.21 159.388V155.603C1108.21 154.663 1108.79 154.01 1109.67 154.01C1110.61 154.01 1111 154.637 1111 155.446V159.388H1112.23V155.59C1112.23 154.689 1112.82 154.01 1113.68 154.01C1114.6 154.01 1115.01 154.624 1115.01 155.446V159.388H1116.22V155.315C1116.22 153.671 1115.15 152.927 1114.06 152.927C1113.26 152.927 1112.45 153.214 1111.95 154.115C1111.61 153.305 1110.86 152.927 1110.07 152.927C1109.34 152.927 1108.56 153.253 1108.17 153.945V153.109H1106.99V159.388H1108.21ZM1118.98 155.603C1119.03 154.793 1119.66 153.997 1120.69 153.997C1121.8 153.997 1122.39 154.702 1122.41 155.603H1118.98ZM1122.6 157.234C1122.36 157.939 1121.85 158.501 1120.84 158.501C1119.78 158.501 1118.97 157.717 1118.94 156.595H1123.67C1123.68 156.516 1123.69 156.36 1123.69 156.203C1123.69 154.245 1122.61 152.914 1120.68 152.914C1119.1 152.914 1117.68 154.258 1117.68 156.229C1117.68 158.357 1119.15 159.584 1120.84 159.584C1122.3 159.584 1123.3 158.709 1123.66 157.6L1122.6 157.234Z" fill="#398EAE"/>
<path d="M1089.4 189.153V185.981H1091.25C1092.36 185.981 1093.04 186.608 1093.04 187.587C1093.04 188.54 1092.36 189.153 1091.25 189.153H1089.4ZM1091.49 190.302C1093.2 190.302 1094.35 189.14 1094.35 187.574C1094.35 186.02 1093.2 184.832 1091.49 184.832H1088.12V194.087H1089.4V190.302H1091.49ZM1096.88 190.393C1096.91 189.466 1097.4 188.735 1098.34 188.735C1099.44 188.735 1099.8 189.44 1099.8 190.315V194.087H1101.03V190.106C1101.03 188.709 1100.29 187.626 1098.79 187.626C1098.07 187.626 1097.34 187.874 1096.88 188.54V184.637H1095.65V194.087H1096.88V190.393ZM1105.67 193.187C1104.63 193.187 1103.71 192.403 1103.71 190.941C1103.71 189.493 1104.63 188.709 1105.67 188.709C1106.72 188.709 1107.63 189.493 1107.63 190.941C1107.63 192.403 1106.72 193.187 1105.67 193.187ZM1105.67 187.613C1103.79 187.613 1102.46 189.036 1102.46 190.941C1102.46 192.86 1103.79 194.283 1105.67 194.283C1107.55 194.283 1108.88 192.86 1108.88 190.941C1108.88 189.036 1107.55 187.613 1105.67 187.613ZM1111.68 190.458C1111.68 189.506 1112.18 188.735 1113.14 188.735C1114.24 188.735 1114.6 189.44 1114.6 190.315V194.087H1115.83V190.106C1115.83 188.709 1115.09 187.626 1113.59 187.626C1112.85 187.626 1112.11 187.926 1111.65 188.709V187.809H1110.45V194.087H1111.68V190.458ZM1118.58 190.302C1118.63 189.493 1119.26 188.696 1120.29 188.696C1121.4 188.696 1121.99 189.401 1122.01 190.302H1118.58ZM1122.19 191.934C1121.96 192.638 1121.45 193.2 1120.43 193.2C1119.37 193.2 1118.57 192.417 1118.54 191.294H1123.26C1123.28 191.216 1123.29 191.059 1123.29 190.902C1123.29 188.944 1122.21 187.613 1120.28 187.613C1118.7 187.613 1117.27 188.957 1117.27 190.928C1117.27 193.056 1118.75 194.283 1120.43 194.283C1121.89 194.283 1122.9 193.409 1123.25 192.299L1122.19 191.934Z" fill="#398EAE"/>
<path d="M1094.53 233.241H1095.91L1092.23 223.986H1090.76L1087.08 233.241H1088.45L1089.43 230.656H1093.53L1094.53 233.241ZM1091.46 225.317L1093.07 229.468H1089.88L1091.46 225.317ZM1097.7 230.082C1097.7 228.789 1098.43 227.876 1099.55 227.876C1100.67 227.876 1101.35 228.763 1101.35 230.056C1101.35 231.348 1100.66 232.327 1099.54 232.327C1098.36 232.327 1097.7 231.374 1097.7 230.082ZM1101.36 232.392C1101.36 232.771 1101.4 233.097 1101.43 233.241H1102.62C1102.6 233.136 1102.55 232.679 1102.55 232.079V223.79H1101.34V227.85C1101.13 227.34 1100.53 226.792 1099.42 226.792C1097.64 226.792 1096.44 228.306 1096.44 230.082C1096.44 231.948 1097.58 233.41 1099.42 233.41C1100.4 233.41 1101.06 232.888 1101.36 232.288V232.392ZM1108.12 226.897C1108.06 226.884 1107.89 226.857 1107.72 226.857C1107.08 226.857 1106.3 227.092 1105.84 228.058V226.962H1104.64V233.241H1105.87V230.095C1105.87 228.711 1106.56 228.163 1107.59 228.163C1107.76 228.163 1107.94 228.176 1108.12 228.202V226.897ZM1110.16 229.455C1110.22 228.646 1110.84 227.85 1111.87 227.85C1112.98 227.85 1113.57 228.554 1113.6 229.455H1110.16ZM1113.78 231.087C1113.55 231.792 1113.04 232.353 1112.02 232.353C1110.96 232.353 1110.15 231.57 1110.13 230.447H1114.85C1114.86 230.369 1114.88 230.212 1114.88 230.056C1114.88 228.098 1113.79 226.766 1111.86 226.766C1110.28 226.766 1108.86 228.111 1108.86 230.082C1108.86 232.209 1110.33 233.437 1112.02 233.437C1113.48 233.437 1114.49 232.562 1114.84 231.452L1113.78 231.087ZM1115.86 231.609C1115.96 232.327 1116.69 233.437 1118.41 233.437C1119.97 233.437 1120.71 232.379 1120.71 231.492C1120.71 230.565 1120.11 229.873 1118.98 229.625L1117.96 229.403C1117.47 229.299 1117.24 229.024 1117.24 228.646C1117.24 228.215 1117.66 227.81 1118.28 227.81C1119.28 227.81 1119.54 228.528 1119.59 228.855L1120.67 228.45C1120.54 227.889 1120.01 226.766 1118.28 226.766C1117.06 226.766 1116.05 227.68 1116.05 228.75C1116.05 229.638 1116.64 230.304 1117.62 230.513L1118.69 230.747C1119.21 230.865 1119.5 231.165 1119.5 231.557C1119.5 232.001 1119.12 232.392 1118.43 232.392C1117.54 232.392 1117.04 231.87 1116.97 231.217L1115.86 231.609ZM1121.76 231.609C1121.86 232.327 1122.59 233.437 1124.32 233.437C1125.87 233.437 1126.61 232.379 1126.61 231.492C1126.61 230.565 1126.01 229.873 1124.88 229.625L1123.86 229.403C1123.38 229.299 1123.14 229.024 1123.14 228.646C1123.14 228.215 1123.56 227.81 1124.19 227.81C1125.18 227.81 1125.44 228.528 1125.49 228.855L1126.58 228.45C1126.44 227.889 1125.91 226.766 1124.19 226.766C1122.96 226.766 1121.95 227.68 1121.95 228.75C1121.95 229.638 1122.54 230.304 1123.52 230.513L1124.59 230.747C1125.11 230.865 1125.4 231.165 1125.4 231.557C1125.4 232.001 1125.02 232.392 1124.33 232.392C1123.44 232.392 1122.95 231.87 1122.87 231.217L1121.76 231.609Z" fill="#398EAE"/>
<path d="M1096.14 302.636V298.107H1091.71V299.255H1094.92C1094.87 300.208 1094.13 301.67 1092.06 301.67C1090.41 301.67 1088.84 300.456 1088.84 298.002C1088.84 295.548 1090.46 294.36 1092.12 294.36C1093.55 294.36 1094.64 295.143 1095.05 296.475L1096.21 295.979C1095.68 294.308 1094.13 293.185 1092.12 293.185C1089.83 293.185 1087.53 294.869 1087.53 298.002C1087.53 301.135 1089.7 302.832 1092.02 302.832C1093.58 302.832 1094.58 302.062 1094.99 301.331L1095.11 302.636H1096.14ZM1098.77 298.851C1098.82 298.041 1099.45 297.245 1100.48 297.245C1101.59 297.245 1102.18 297.95 1102.2 298.851H1098.77ZM1102.38 300.482C1102.15 301.187 1101.64 301.749 1100.62 301.749C1099.56 301.749 1098.76 300.965 1098.73 299.843H1103.45C1103.47 299.764 1103.48 299.608 1103.48 299.451C1103.48 297.493 1102.4 296.162 1100.47 296.162C1098.89 296.162 1097.46 297.506 1097.46 299.477C1097.46 301.605 1098.94 302.832 1100.62 302.832C1102.08 302.832 1103.09 301.957 1103.44 300.848L1102.38 300.482ZM1106.27 299.007C1106.27 298.054 1106.77 297.284 1107.74 297.284C1108.83 297.284 1109.2 297.989 1109.2 298.864V302.636H1110.43V298.655C1110.43 297.258 1109.68 296.175 1108.18 296.175C1107.45 296.175 1106.71 296.475 1106.25 297.258V296.357H1105.05V302.636H1106.27V299.007ZM1113.11 299.477C1113.11 298.185 1113.84 297.271 1114.96 297.271C1116.08 297.271 1116.76 298.159 1116.76 299.451C1116.76 300.743 1116.07 301.722 1114.95 301.722C1113.77 301.722 1113.11 300.77 1113.11 299.477ZM1116.78 301.788C1116.78 302.166 1116.82 302.493 1116.84 302.636H1118.03C1118.02 302.532 1117.96 302.075 1117.96 301.474V293.185H1116.75V297.245C1116.54 296.736 1115.94 296.188 1114.83 296.188C1113.06 296.188 1111.85 297.702 1111.85 299.477C1111.85 301.344 1112.99 302.806 1114.83 302.806C1115.81 302.806 1116.48 302.284 1116.78 301.683V301.788ZM1120.85 298.851C1120.9 298.041 1121.53 297.245 1122.56 297.245C1123.67 297.245 1124.25 297.95 1124.28 298.851H1120.85ZM1124.46 300.482C1124.23 301.187 1123.72 301.749 1122.7 301.749C1121.64 301.749 1120.83 300.965 1120.81 299.843H1125.53C1125.55 299.764 1125.56 299.608 1125.56 299.451C1125.56 297.493 1124.48 296.162 1122.54 296.162C1120.96 296.162 1119.54 297.506 1119.54 299.477C1119.54 301.605 1121.02 302.832 1122.7 302.832C1124.16 302.832 1125.17 301.957 1125.52 300.848L1124.46 300.482ZM1130.61 296.292C1130.55 296.279 1130.38 296.253 1130.21 296.253C1129.57 296.253 1128.78 296.488 1128.33 297.454V296.357H1127.13V302.636H1128.35V299.49C1128.35 298.107 1129.05 297.558 1130.08 297.558C1130.25 297.558 1130.43 297.571 1130.61 297.598V296.292Z" fill="#398EAE"/>
<path d="M1185.01 193.267V192.079H1180.66V189.246H1184.61V188.045H1180.66V185.199H1185.01V184.012H1179.39V193.267H1185.01ZM1187.86 193.267V189.481C1187.86 188.541 1188.45 187.889 1189.32 187.889C1190.26 187.889 1190.66 188.515 1190.66 189.324V193.267H1191.88V189.468C1191.88 188.567 1192.47 187.889 1193.33 187.889C1194.26 187.889 1194.66 188.502 1194.66 189.324V193.267H1195.88V189.194C1195.88 187.549 1194.81 186.805 1193.71 186.805C1192.91 186.805 1192.1 187.092 1191.61 187.993C1191.27 187.184 1190.51 186.805 1189.73 186.805C1189 186.805 1188.21 187.131 1187.82 187.823V186.988H1186.65V193.267H1187.86ZM1197.45 191.583C1197.45 192.575 1198.27 193.462 1199.55 193.462C1200.67 193.462 1201.3 192.862 1201.57 192.418C1201.57 192.875 1201.61 193.11 1201.64 193.267H1202.84C1202.81 193.11 1202.76 192.784 1202.76 192.235V189.089C1202.76 187.862 1202.03 186.792 1200.15 186.792C1198.79 186.792 1197.71 187.627 1197.58 188.828L1198.75 189.102C1198.83 188.371 1199.32 187.836 1200.18 187.836C1201.13 187.836 1201.54 188.345 1201.54 188.959C1201.54 189.181 1201.43 189.377 1201.05 189.429L1199.36 189.677C1198.27 189.833 1197.45 190.46 1197.45 191.583ZM1199.72 192.431C1199.09 192.431 1198.7 191.987 1198.7 191.517C1198.7 190.956 1199.09 190.656 1199.62 190.578L1201.54 190.29V190.578C1201.54 191.948 1200.73 192.431 1199.72 192.431ZM1205.89 193.267V186.988H1204.67V193.267H1205.89ZM1204.4 184.612C1204.4 185.095 1204.79 185.487 1205.27 185.487C1205.77 185.487 1206.16 185.095 1206.16 184.612C1206.16 184.116 1205.77 183.724 1205.27 183.724C1204.79 183.724 1204.4 184.116 1204.4 184.612ZM1209.2 193.267V183.816H1207.98V193.267H1209.2Z" fill="#398EAE"/>
<path d="M1078.93 65.1816H1296.53V108.072H1078.93V65.1816Z" fill="#3D93B4"/>
<path d="M1131.21 91.4771H1133.85L1129.1 79.0129H1126.29L1121.51 91.4771H1124.08L1125.11 88.6291H1130.18L1131.21 91.4771ZM1127.64 81.7026L1129.37 86.414H1125.92L1127.64 81.7026ZM1137.61 91.4771V78.7492H1135.27V91.4771H1137.61ZM1145.74 91.4771H1147.97C1147.93 91.1782 1147.88 90.5805 1147.88 89.9124V82.8277H1145.54V87.8556C1145.54 88.8576 1144.94 89.5608 1143.91 89.5608C1142.82 89.5608 1142.33 88.7873 1142.33 87.8204V82.8277H1139.99V88.2951C1139.99 90.1761 1141.18 91.7056 1143.27 91.7056C1144.19 91.7056 1145.19 91.354 1145.67 90.5453C1145.67 90.8969 1145.7 91.3013 1145.74 91.4771ZM1152.71 91.4771V86.414C1152.71 85.4647 1153.31 84.7088 1154.33 84.7088C1155.39 84.7088 1155.86 85.412 1155.86 86.3437V91.4771H1158.18V86.414C1158.18 85.4823 1158.78 84.7088 1159.78 84.7088C1160.85 84.7088 1161.31 85.412 1161.31 86.3437V91.4771H1163.58V85.8691C1163.58 83.5485 1162.05 82.5816 1160.45 82.5816C1159.31 82.5816 1158.39 82.9684 1157.71 84.0232C1157.27 83.0914 1156.32 82.5816 1155.14 82.5816C1154.19 82.5816 1153.08 83.0387 1152.61 83.8825V82.8277H1150.38V91.4771H1152.71ZM1168.29 86.5019C1168.29 85.4999 1168.88 84.7088 1169.9 84.7088C1171.03 84.7088 1171.5 85.4647 1171.5 86.4316V91.4771H1173.84V86.0273C1173.84 84.1286 1172.86 82.5992 1170.71 82.5992C1169.78 82.5992 1168.74 83.0035 1168.22 83.9001V82.8277H1165.95V91.4771H1168.29V86.5019ZM1178.55 91.4771V82.8277H1176.21V91.4771H1178.55ZM1175.93 79.9974C1175.93 80.7709 1176.58 81.4213 1177.37 81.4213C1178.18 81.4213 1178.82 80.7709 1178.82 79.9974C1178.82 79.1887 1178.18 78.5382 1177.37 78.5382C1176.58 78.5382 1175.93 79.1887 1175.93 79.9974ZM1193.96 81.9839C1193.68 80.5775 1192.52 78.7492 1189.49 78.7492C1187.14 78.7492 1185.15 80.4369 1185.15 82.6519C1185.15 84.533 1186.44 85.8163 1188.42 86.2207L1190.16 86.5722C1191.13 86.7656 1191.67 87.3282 1191.67 88.049C1191.67 88.928 1190.95 89.5784 1189.65 89.5784C1187.89 89.5784 1187.03 88.4709 1186.93 87.2403L1184.68 87.838C1184.87 89.6136 1186.33 91.7407 1189.64 91.7407C1192.54 91.7407 1194.14 89.807 1194.14 87.8907C1194.14 86.1328 1192.92 84.656 1190.65 84.2165L1188.91 83.8825C1188 83.7067 1187.56 83.1617 1187.56 82.4761C1187.56 81.6499 1188.33 80.8939 1189.51 80.8939C1191.09 80.8939 1191.66 81.9663 1191.78 82.6519L1193.96 81.9839ZM1201.45 91.4771H1203.68C1203.64 91.1782 1203.59 90.5805 1203.59 89.9124V82.8277H1201.25V87.8556C1201.25 88.8576 1200.65 89.5608 1199.62 89.5608C1198.53 89.5608 1198.04 88.7873 1198.04 87.8204V82.8277H1195.7V88.2951C1195.7 90.1761 1196.89 91.7056 1198.98 91.7056C1199.9 91.7056 1200.9 91.354 1201.38 90.5453C1201.38 90.8969 1201.41 91.3013 1201.45 91.4771ZM1211.36 82.7926C1211.18 82.775 1211.01 82.7574 1210.81 82.7574C1210.08 82.7574 1208.88 82.9684 1208.35 84.1111V82.8277H1206.09V91.4771H1208.42V87.5216C1208.42 85.6581 1209.46 85.078 1210.66 85.078C1210.87 85.078 1211.1 85.0955 1211.36 85.1483V82.7926ZM1221.42 82.8277H1218.96L1216.9 88.6291L1214.76 82.8277H1212.19L1215.72 91.4771H1218.06L1221.42 82.8277ZM1224.29 86.1679C1224.34 85.3768 1225.01 84.4627 1226.22 84.4627C1227.56 84.4627 1228.12 85.3065 1228.16 86.1679H1224.29ZM1228.39 88.4181C1228.1 89.1917 1227.51 89.7366 1226.42 89.7366C1225.26 89.7366 1224.29 88.9104 1224.24 87.7677H1230.42C1230.42 87.7325 1230.46 87.3809 1230.46 87.0469C1230.46 84.2693 1228.86 82.564 1226.19 82.564C1223.97 82.564 1221.93 84.3572 1221.93 87.1172C1221.93 90.0355 1224.03 91.7407 1226.4 91.7407C1228.53 91.7407 1229.9 90.4926 1230.34 88.9983L1228.39 88.4181ZM1235.17 94.8876L1240.6 82.8277H1238.11L1235.98 87.8907L1233.68 82.8277H1231.06L1234.73 90.3871L1232.69 94.8876H1235.17Z" fill="white"/>
<path d="M1302.21 95.3765C1328.44 95.3765 1349.71 74.11 1349.71 47.8765C1349.71 21.6429 1328.44 0.376465 1302.21 0.376465C1275.98 0.376465 1254.71 21.6429 1254.71 47.8765C1254.71 74.11 1275.98 95.3765 1302.21 95.3765Z" fill="#ECECEC"/>
<path opacity="0.05" d="M1341.09 55.7023L1346.86 31.6807C1342.56 19.8747 1333.77 10.245 1322.41 4.8877L1313.73 51.6695L1281.41 77.9101L1341.09 55.7023Z" fill="black"/>
<path d="M1302.22 0.376508C1297.89 0.377203 1293.58 0.968866 1289.42 2.13513L1285.16 17.8518L1294.02 19.104L1303.15 22.2437L1311.44 26.3777L1318.02 3.06506C1312.94 1.27839 1307.6 0.369219 1302.22 0.376508Z" fill="#F38632"/>
<path d="M1290.32 63.2159L1281.42 77.9106L1282.49 60.6562L1285.09 60.7667L1288.27 61.6414L1290.32 63.2159Z" fill="#4E4E4E"/>
<path d="M1290.32 63.215L1288.27 61.6406L1285.09 60.7659L1282.49 60.6554L1285.15 17.8511L1294 19.1125L1303.14 22.2521L1311.39 26.3862L1290.32 63.215Z" fill="url(#paint0_linear_1_1186)"/>
<path d="M1289.4 2.14495L1285.15 17.8617L1294.01 19.1138L1299.39 0.469238C1296.01 0.669159 1292.66 1.23094 1289.4 2.14495Z" fill="#F6A259"/>
<g style="mix-blend-mode:multiply" opacity="0.2">
<path d="M1317.96 3.0652C1315.22 2.0916 1312.4 1.37345 1309.53 0.919922L1303.14 22.2254L1281.41 77.9106L1290.3 63.1791L1311.37 26.3502L1317.96 3.0652Z" fill="#1A1A1A"/>
</g>
<path opacity="0.15" d="M1281.42 77.6887L1294 19.1125L1285.15 17.8511L1281.42 77.6887Z" fill="white"/>
<path d="M639.499 335.711L635.672 350.697L681.804 330.373L639.499 335.711Z" fill="#C3CBD1"/>
<path d="M681.947 330.717L658.418 357.065L644.575 340.726L681.947 330.717Z" fill="#E7E8EC"/>
<path d="M639.499 335.712L627.033 325.655L681.804 330.373L639.499 335.712Z" fill="#E7E8EC"/>
<path d="M649.884 346.71L635.672 350.697L644.665 340.712L649.884 346.71Z" fill="#ACB4BC"/>
<ellipse cx="47.761" cy="47.9505" rx="47.761" ry="47.9505" transform="matrix(1 0 0 -1 151.217 99.9009)" fill="#ECECEC"/>
<path d="M175.56 82.4175L184.607 76.2282C187 77.7014 189.596 78.812 192.313 79.524L194.224 90.1231H203.748L205.659 79.1836C208.39 78.5061 211.018 77.4654 213.473 76.0889L222.459 82.2782L229.178 75.5319L223.013 66.511C224.465 64.0618 225.57 61.4214 226.296 58.6661L236.992 56.7474V47.1231L226.312 45.2199C225.587 42.4616 224.477 39.8203 223.013 37.375L229.178 28.3696L222.459 21.6232L213.473 27.9518C210.996 26.7035 208.419 25.6682 205.767 24.8571L203.81 13.7783H194.347L192.297 24.7798C189.625 25.4397 187.061 26.4819 184.684 27.8744L175.698 21.6851L168.979 28.0137L175.144 37.6535C173.683 40.0365 172.641 42.6533 172.061 45.3901L160.964 47.3088V56.9331L171.861 58.9137C172.568 61.5996 173.647 64.1726 175.067 66.5574L168.979 75.5009L175.56 82.4175Z" fill="#D85528"/>
<path d="M192.976 58.4498C193.744 59.2644 194.676 59.9062 195.709 60.3329C196.742 60.7597 197.854 60.9616 198.971 60.9255C200.041 60.9702 201.108 60.7971 202.109 60.4169C203.11 60.0366 204.025 59.457 204.797 58.7129C205.665 57.7718 206.308 56.6447 206.677 55.4171L215.724 57.1346L218.591 57.7535C218.591 57.9701 217.774 60.1673 217.774 60.1673C216.615 62.8377 214.962 65.2634 212.904 67.316C211.056 69.038 208.888 70.3758 206.523 71.2522C204.158 72.1286 201.644 72.5262 199.125 72.4221C193.872 72.501 188.8 70.4904 185.018 66.8292C181.235 63.1679 179.049 58.1532 178.935 52.8795C178.92 52.6012 178.92 52.3222 178.935 52.0439C178.874 49.3156 179.378 46.6043 180.415 44.0818C181.453 41.5594 183.001 39.2809 184.962 37.3908C186.869 35.4418 189.157 33.9093 191.681 32.8895C194.206 31.8698 196.914 31.3846 199.634 31.4645C202.292 31.3848 204.937 31.8718 207.395 32.8933C209.852 33.9148 212.066 35.4476 213.89 37.3908C215.531 39.0915 216.856 41.0721 217.805 43.2397C218.316 44.3322 218.684 45.4869 218.899 46.6747L207.17 48.8564C206.692 47.1219 205.631 45.6064 204.168 44.5661C202.705 43.5258 200.929 43.0244 199.141 43.1468C198.003 43.1011 196.87 43.3043 195.818 43.7425C194.767 44.1807 193.823 44.8434 193.053 45.6844C192.252 46.5437 191.627 47.5531 191.214 48.6549C190.802 49.7567 190.61 50.9294 190.649 52.1058C190.571 54.4442 191.406 56.7206 192.976 58.4498Z" fill="white"/>
<path d="M929.405 330.29C843.826 259.849 759.589 267.174 689.635 325.041M286.763 342.255C375.395 409.278 534.713 412.941 627.373 355.44" stroke="#C3CBD1" stroke-width="2" stroke-linecap="round" stroke-dasharray="7 7"/>
<g filter="url(#filter0_d_1_1186)">
<rect x="886.702" y="236.951" width="288.586" height="186.13" fill="white"/>
<g filter="url(#filter1_d_1_1186)">
<rect x="900.214" y="256.924" width="77.8159" height="80.2184" rx="2.53145" fill="#F1F2F6" stroke="#006FF9" stroke-width="0.723271"/>
<rect x="908.254" y="280.809" width="61.7355" height="33.1611" rx="1.08491" fill="white"/>
<path d="M969.973 277.599H908.254V281.521H969.99V277.599H969.973Z" fill="#DEDFE0"/>
<path d="M912.198 281.02C912.942 281.02 913.585 280.426 913.585 279.666C913.585 278.94 912.976 278.313 912.198 278.313C911.454 278.313 910.811 278.907 910.811 279.666C910.845 280.426 911.454 281.02 912.198 281.02Z" fill="#FA5640"/>
<path d="M916.426 281.02C917.17 281.02 917.813 280.426 917.813 279.666C917.813 278.94 917.204 278.313 916.426 278.313C915.682 278.313 915.039 278.907 915.039 279.666C915.039 280.426 915.648 281.02 916.426 281.02Z" fill="#FAC555"/>
<path d="M920.62 281.02C921.364 281.02 922.007 280.426 922.007 279.666C922.007 278.94 921.398 278.313 920.62 278.313C919.876 278.313 919.233 278.907 919.233 279.666C919.267 280.426 919.876 281.02 920.62 281.02Z" fill="#6DCF6F"/>
<rect x="915.926" y="294.715" width="23.7272" height="3.20914" rx="1.08491" fill="#BEC6D3"/>
<rect x="915.925" y="306.838" width="49.3153" height="3.20914" rx="1.08491" fill="#BEC6D3"/>
<rect x="915.925" y="300.777" width="23.7272" height="3.20914" rx="1.08491" fill="#9DA8B7"/>
</g>
<ellipse cx="919.213" cy="287.94" rx="3.65299" ry="3.56571" fill="#88A4DC"/>
<ellipse cx="953.186" cy="296.141" rx="8.76717" ry="8.55771" fill="#F2EFEF"/>
<path d="M952.803 301.415C953.015 301.626 953.358 301.626 953.57 301.415L957.022 297.962C957.234 297.751 957.234 297.407 957.022 297.195C956.81 296.983 956.467 296.983 956.255 297.195L953.186 300.264L950.118 297.195C949.906 296.983 949.562 296.983 949.351 297.195C949.139 297.407 949.139 297.751 949.351 297.962L952.803 301.415ZM952.644 291.251L952.644 301.031L953.729 301.031L953.729 291.251L952.644 291.251Z" fill="#4994F7"/>
<path d="M909.625 349.069V346.698H912.028V345.967H909.625V344.153H912.274V343.429H908.845V349.069H909.625ZM915.07 345.203C915.03 345.195 914.927 345.179 914.823 345.179C914.434 345.179 913.956 345.322 913.678 345.911V345.243H912.946V349.069H913.694V347.152C913.694 346.309 914.115 345.974 914.744 345.974C914.847 345.974 914.959 345.982 915.07 345.998V345.203ZM917.467 348.52C916.831 348.52 916.274 348.043 916.274 347.152C916.274 346.269 916.831 345.791 917.467 345.791C918.104 345.791 918.661 346.269 918.661 347.152C918.661 348.043 918.104 348.52 917.467 348.52ZM917.467 345.123C916.322 345.123 915.51 345.99 915.51 347.152C915.51 348.321 916.322 349.189 917.467 349.189C918.613 349.189 919.424 348.321 919.424 347.152C919.424 345.99 918.613 345.123 917.467 345.123ZM921.121 349.069V346.762C921.121 346.189 921.479 345.791 922.012 345.791C922.585 345.791 922.824 346.173 922.824 346.667V349.069H923.572V346.754C923.572 346.205 923.93 345.791 924.455 345.791C925.02 345.791 925.266 346.165 925.266 346.667V349.069H926.006V346.587C926.006 345.585 925.354 345.131 924.685 345.131C924.2 345.131 923.707 345.306 923.404 345.855C923.198 345.362 922.736 345.131 922.259 345.131C921.813 345.131 921.336 345.33 921.097 345.752V345.243H920.381V349.069H921.121ZM928.953 348.043C928.953 348.648 929.454 349.189 930.234 349.189C930.918 349.189 931.3 348.823 931.467 348.552C931.467 348.831 931.491 348.974 931.507 349.069H932.239C932.223 348.974 932.191 348.775 932.191 348.441V346.523C932.191 345.776 931.746 345.123 930.6 345.123C929.773 345.123 929.112 345.632 929.033 346.364L929.749 346.531C929.796 346.086 930.091 345.76 930.616 345.76C931.197 345.76 931.443 346.07 931.443 346.444C931.443 346.579 931.38 346.698 931.149 346.73L930.115 346.881C929.454 346.977 928.953 347.359 928.953 348.043ZM930.337 348.56C929.956 348.56 929.717 348.29 929.717 348.003C929.717 347.661 929.956 347.478 930.274 347.43L931.443 347.255V347.43C931.443 348.266 930.95 348.56 930.337 348.56ZM937.501 345.243L936.507 348.123L935.648 345.243H934.828L936.085 349.069H936.873L937.867 346.157L938.886 349.069H939.657L940.899 345.243H940.111L939.268 348.123L938.273 345.243H937.501ZM942.062 346.762C942.094 346.269 942.475 345.784 943.104 345.784C943.78 345.784 944.138 346.213 944.154 346.762H942.062ZM944.266 347.757C944.122 348.186 943.812 348.528 943.191 348.528C942.547 348.528 942.054 348.051 942.038 347.367H944.918C944.926 347.319 944.934 347.224 944.934 347.128C944.934 345.935 944.273 345.123 943.096 345.123C942.133 345.123 941.266 345.943 941.266 347.144C941.266 348.441 942.165 349.189 943.191 349.189C944.083 349.189 944.695 348.656 944.91 347.979L944.266 347.757ZM946.628 349.069V348.512C946.867 348.926 947.305 349.173 947.87 349.173C949.007 349.173 949.652 348.274 949.652 347.136C949.652 346.022 949.055 345.131 947.893 345.131C947.257 345.131 946.811 345.441 946.628 345.784V343.309H945.888V349.069H946.628ZM948.888 347.136C948.888 347.963 948.442 348.504 947.758 348.504C947.098 348.504 946.62 347.963 946.62 347.136C946.62 346.309 947.098 345.791 947.758 345.791C948.45 345.791 948.888 346.309 948.888 347.136ZM953.333 350.581V348.552C953.54 348.894 953.986 349.173 954.575 349.173C955.696 349.173 956.357 348.29 956.357 347.152C956.357 346.038 955.744 345.155 954.598 345.155C953.978 345.155 953.524 345.457 953.318 345.839V345.243H952.594V350.581H953.333ZM955.593 347.152C955.593 347.94 955.155 348.504 954.463 348.504C953.779 348.504 953.326 347.94 953.326 347.152C953.326 346.388 953.779 345.815 954.463 345.815C955.163 345.815 955.593 346.388 955.593 347.152ZM957.071 348.043C957.071 348.648 957.572 349.189 958.352 349.189C959.036 349.189 959.418 348.823 959.585 348.552C959.585 348.831 959.609 348.974 959.625 349.069H960.357C960.341 348.974 960.309 348.775 960.309 348.441V346.523C960.309 345.776 959.864 345.123 958.718 345.123C957.89 345.123 957.23 345.632 957.151 346.364L957.867 346.531C957.914 346.086 958.209 345.76 958.734 345.76C959.315 345.76 959.561 346.07 959.561 346.444C959.561 346.579 959.498 346.698 959.267 346.73L958.233 346.881C957.572 346.977 957.071 347.359 957.071 348.043ZM958.455 348.56C958.073 348.56 957.835 348.29 957.835 348.003C957.835 347.661 958.073 347.478 958.392 347.43L959.561 347.255V347.43C959.561 348.266 959.068 348.56 958.455 348.56ZM961.196 349.276C961.291 350.096 962.007 350.7 962.962 350.7C964.402 350.7 964.879 349.754 964.879 348.783V345.243H964.139V345.776C963.948 345.394 963.551 345.171 962.962 345.171C961.912 345.171 961.204 345.998 961.204 347.033C961.204 348.115 961.944 348.886 962.962 348.886C963.535 348.886 963.948 348.608 964.131 348.258V348.807C964.131 349.634 963.765 350.048 962.962 350.048C962.381 350.048 961.975 349.642 961.92 349.109L961.196 349.276ZM963.073 348.258C962.397 348.258 961.967 347.78 961.967 347.033C961.967 346.293 962.413 345.807 963.073 345.807C963.718 345.807 964.163 346.293 964.163 347.033C964.163 347.773 963.718 348.258 963.073 348.258ZM966.559 346.762C966.591 346.269 966.973 345.784 967.601 345.784C968.277 345.784 968.635 346.213 968.651 346.762H966.559ZM968.763 347.757C968.62 348.186 968.309 348.528 967.689 348.528C967.044 348.528 966.551 348.051 966.535 347.367H969.415C969.423 347.319 969.431 347.224 969.431 347.128C969.431 345.935 968.771 345.123 967.593 345.123C966.631 345.123 965.763 345.943 965.763 347.144C965.763 348.441 966.662 349.189 967.689 349.189C968.58 349.189 969.192 348.656 969.407 347.979L968.763 347.757Z" fill="#1074ED"/>
<path d="M912.004 378.355V377.548H909.049V375.622H911.729V374.806H909.049V372.872H912.004V372.064H908.18V378.355H912.004ZM913.951 375.889C913.951 375.241 914.288 374.717 914.944 374.717C915.69 374.717 915.938 375.196 915.938 375.791V378.355H916.772V375.649C916.772 374.7 916.267 373.963 915.246 373.963C914.749 373.963 914.244 374.167 913.933 374.7V374.087H913.117V378.355H913.951V375.889ZM919.217 372.739H918.454V373.431C918.454 373.803 918.259 374.087 917.797 374.087H917.567V374.842H918.383V377.184C918.383 377.956 918.844 378.4 919.572 378.4C919.856 378.4 920.069 378.346 920.14 378.32V377.61C920.069 377.628 919.918 377.645 919.812 377.645C919.377 377.645 919.217 377.45 919.217 377.06V374.842H920.14V374.087H919.217V372.739ZM921.751 375.782C921.786 375.232 922.212 374.691 922.913 374.691C923.668 374.691 924.067 375.17 924.085 375.782H921.751ZM924.209 376.891C924.049 377.37 923.703 377.752 923.011 377.752C922.292 377.752 921.742 377.219 921.724 376.456H924.936C924.945 376.403 924.954 376.297 924.954 376.19C924.954 374.859 924.218 373.954 922.904 373.954C921.831 373.954 920.864 374.868 920.864 376.208C920.864 377.654 921.866 378.488 923.011 378.488C924.005 378.488 924.688 377.894 924.928 377.14L924.209 376.891ZM928.388 374.043C928.344 374.034 928.228 374.016 928.113 374.016C927.678 374.016 927.146 374.176 926.835 374.833V374.087H926.019V378.355H926.853V376.217C926.853 375.276 927.323 374.904 928.024 374.904C928.139 374.904 928.264 374.913 928.388 374.93V374.043ZM933.758 378.488C935.035 378.488 936.02 377.69 936.02 376.208V372.064H935.151V376.181C935.151 377.14 934.645 377.681 933.758 377.681C932.879 377.681 932.356 377.14 932.356 376.181V372.064H931.495V376.208C931.495 377.69 932.48 378.488 933.758 378.488ZM940.784 378.355H941.796L940.296 375.72C941.246 375.543 941.822 374.842 941.822 373.937C941.822 372.898 941.086 372.064 939.897 372.064H937.528V378.355H938.406V375.782H939.347L940.784 378.355ZM938.406 375.001V372.845H939.737C940.447 372.845 940.926 373.271 940.926 373.937C940.926 374.584 940.447 375.001 939.737 375.001H938.406ZM946.864 378.355V377.539H943.891V372.064H943.022V378.355H946.864Z" fill="black"/>
<path d="M899.52 357.108V352.697H898.897V357.108H899.52ZM901.157 357.108V355.304C901.157 354.856 901.437 354.545 901.854 354.545C902.302 354.545 902.489 354.843 902.489 355.229V357.108H903.074V355.298C903.074 354.868 903.354 354.545 903.764 354.545C904.206 354.545 904.399 354.837 904.399 355.229V357.108H904.977V355.167C904.977 354.383 904.467 354.028 903.945 354.028C903.565 354.028 903.179 354.165 902.943 354.595C902.781 354.209 902.42 354.028 902.047 354.028C901.699 354.028 901.325 354.184 901.139 354.514V354.115H900.579V357.108H901.157ZM906.492 358.29V356.704C906.654 356.971 907.002 357.189 907.462 357.189C908.34 357.189 908.856 356.498 908.856 355.609C908.856 354.738 908.377 354.047 907.481 354.047C906.996 354.047 906.641 354.283 906.479 354.582V354.115H905.913V358.29H906.492ZM908.259 355.609C908.259 356.224 907.916 356.666 907.375 356.666C906.84 356.666 906.486 356.224 906.486 355.609C906.486 355.011 906.84 354.563 907.375 354.563C907.923 354.563 908.259 355.011 908.259 355.609ZM910.883 356.679C910.385 356.679 909.949 356.305 909.949 355.609C909.949 354.918 910.385 354.545 910.883 354.545C911.38 354.545 911.816 354.918 911.816 355.609C911.816 356.305 911.38 356.679 910.883 356.679ZM910.883 354.022C909.987 354.022 909.352 354.7 909.352 355.609C909.352 356.523 909.987 357.201 910.883 357.201C911.778 357.201 912.413 356.523 912.413 355.609C912.413 354.7 911.778 354.022 910.883 354.022ZM914.822 354.084C914.791 354.078 914.71 354.066 914.629 354.066C914.325 354.066 913.951 354.178 913.734 354.638V354.115H913.161V357.108H913.746V355.609C913.746 354.949 914.076 354.688 914.567 354.688C914.648 354.688 914.735 354.694 914.822 354.706V354.084ZM916.387 353.17H915.852V353.655C915.852 353.916 915.716 354.115 915.392 354.115H915.23V354.644H915.803V356.287C915.803 356.828 916.126 357.139 916.636 357.139C916.835 357.139 916.985 357.102 917.035 357.083V356.585C916.985 356.598 916.879 356.61 916.804 356.61C916.499 356.61 916.387 356.473 916.387 356.2V354.644H917.035V354.115H916.387V353.17ZM919.184 356.305C919.184 356.778 919.576 357.201 920.185 357.201C920.72 357.201 921.019 356.915 921.15 356.704C921.15 356.921 921.168 357.033 921.181 357.108H921.753C921.741 357.033 921.716 356.878 921.716 356.616V355.117C921.716 354.532 921.367 354.022 920.472 354.022C919.825 354.022 919.308 354.42 919.246 354.993L919.806 355.123C919.843 354.775 920.073 354.52 920.484 354.52C920.938 354.52 921.131 354.762 921.131 355.055C921.131 355.161 921.081 355.254 920.901 355.279L920.092 355.397C919.576 355.472 919.184 355.77 919.184 356.305ZM920.266 356.71C919.968 356.71 919.781 356.498 919.781 356.274C919.781 356.007 919.968 355.864 920.217 355.826L921.131 355.689V355.826C921.131 356.48 920.745 356.71 920.266 356.71ZM925.688 354.644V354.115H924.966V353.643C924.966 353.232 925.234 353.132 925.439 353.132C925.588 353.132 925.663 353.157 925.694 353.17V352.647C925.669 352.629 925.545 352.585 925.346 352.585C924.804 352.585 924.363 352.946 924.363 353.612V354.115H923.809V354.644H924.363V357.108H924.966V354.644H925.688ZM927.475 356.679C926.977 356.679 926.542 356.305 926.542 355.609C926.542 354.918 926.977 354.545 927.475 354.545C927.972 354.545 928.408 354.918 928.408 355.609C928.408 356.305 927.972 356.679 927.475 356.679ZM927.475 354.022C926.579 354.022 925.944 354.7 925.944 355.609C925.944 356.523 926.579 357.201 927.475 357.201C928.371 357.201 929.005 356.523 929.005 355.609C929.005 354.7 928.371 354.022 927.475 354.022ZM931.415 354.084C931.383 354.078 931.303 354.066 931.222 354.066C930.917 354.066 930.544 354.178 930.326 354.638V354.115H929.753V357.108H930.338V355.609C930.338 354.949 930.668 354.688 931.159 354.688C931.24 354.688 931.327 354.694 931.415 354.706V354.084ZM932.616 357.108V355.304C932.616 354.856 932.896 354.545 933.313 354.545C933.761 354.545 933.948 354.843 933.948 355.229V357.108H934.533V355.298C934.533 354.868 934.813 354.545 935.223 354.545C935.665 354.545 935.858 354.837 935.858 355.229V357.108H936.436V355.167C936.436 354.383 935.926 354.028 935.404 354.028C935.024 354.028 934.638 354.165 934.402 354.595C934.24 354.209 933.879 354.028 933.506 354.028C933.158 354.028 932.784 354.184 932.598 354.514V354.115H932.038V357.108H932.616ZM940.433 354.644V354.115H939.711V353.643C939.711 353.232 939.979 353.132 940.184 353.132C940.333 353.132 940.408 353.157 940.439 353.17V352.647C940.414 352.629 940.29 352.585 940.091 352.585C939.55 352.585 939.108 352.946 939.108 353.612V354.115H938.554V354.644H939.108V357.108H939.711V354.644H940.433ZM942.721 354.084C942.69 354.078 942.609 354.066 942.528 354.066C942.223 354.066 941.85 354.178 941.632 354.638V354.115H941.06V357.108H941.645V355.609C941.645 354.949 941.974 354.688 942.466 354.688C942.547 354.688 942.634 354.694 942.721 354.706V354.084ZM944.596 356.679C944.098 356.679 943.662 356.305 943.662 355.609C943.662 354.918 944.098 354.545 944.596 354.545C945.093 354.545 945.529 354.918 945.529 355.609C945.529 356.305 945.093 356.679 944.596 356.679ZM944.596 354.022C943.7 354.022 943.065 354.7 943.065 355.609C943.065 356.523 943.7 357.201 944.596 357.201C945.491 357.201 946.126 356.523 946.126 355.609C946.126 354.7 945.491 354.022 944.596 354.022ZM947.453 357.108V355.304C947.453 354.856 947.733 354.545 948.15 354.545C948.597 354.545 948.784 354.843 948.784 355.229V357.108H949.369V355.298C949.369 354.868 949.649 354.545 950.06 354.545C950.501 354.545 950.694 354.837 950.694 355.229V357.108H951.273V355.167C951.273 354.383 950.763 354.028 950.24 354.028C949.86 354.028 949.475 354.165 949.238 354.595C949.077 354.209 948.716 354.028 948.342 354.028C947.994 354.028 947.621 354.184 947.434 354.514V354.115H946.874V357.108H947.453ZM953.577 356.305C953.577 356.778 953.969 357.201 954.579 357.201C955.114 357.201 955.412 356.915 955.543 356.704C955.543 356.921 955.562 357.033 955.574 357.108H956.147C956.134 357.033 956.109 356.878 956.109 356.616V355.117C956.109 354.532 955.761 354.022 954.865 354.022C954.218 354.022 953.702 354.42 953.639 354.993L954.199 355.123C954.237 354.775 954.467 354.52 954.877 354.52C955.332 354.52 955.524 354.762 955.524 355.055C955.524 355.161 955.475 355.254 955.294 355.279L954.485 355.397C953.969 355.472 953.577 355.77 953.577 356.305ZM954.66 356.71C954.361 356.71 954.174 356.498 954.174 356.274C954.174 356.007 954.361 355.864 954.61 355.826L955.524 355.689V355.826C955.524 356.48 955.139 356.71 954.66 356.71ZM957.605 355.378C957.605 354.924 957.841 354.557 958.302 354.557C958.824 354.557 958.999 354.893 958.999 355.31V357.108H959.583V355.21C959.583 354.545 959.229 354.028 958.513 354.028C958.165 354.028 957.81 354.171 957.593 354.545V354.115H957.02V357.108H957.605V355.378ZM961.26 358.358L963.208 354.115H962.579L961.683 356.181L960.75 354.115H960.078L961.366 356.778L960.619 358.358H961.26ZM965.904 358.29V356.704C966.066 356.971 966.414 357.189 966.875 357.189C967.752 357.189 968.268 356.498 968.268 355.609C968.268 354.738 967.789 354.047 966.893 354.047C966.408 354.047 966.053 354.283 965.892 354.582V354.115H965.325V358.29H965.904ZM967.671 355.609C967.671 356.224 967.329 356.666 966.787 356.666C966.252 356.666 965.898 356.224 965.898 355.609C965.898 355.011 966.252 354.563 966.787 354.563C967.335 354.563 967.671 355.011 967.671 355.609ZM968.827 356.305C968.827 356.778 969.219 357.201 969.828 357.201C970.363 357.201 970.662 356.915 970.793 356.704C970.793 356.921 970.811 357.033 970.824 357.108H971.396C971.384 357.033 971.359 356.878 971.359 356.616V355.117C971.359 354.532 971.01 354.022 970.114 354.022C969.467 354.022 968.951 354.42 968.889 354.993L969.449 355.123C969.486 354.775 969.716 354.52 970.127 354.52C970.581 354.52 970.774 354.762 970.774 355.055C970.774 355.161 970.724 355.254 970.544 355.279L969.735 355.397C969.219 355.472 968.827 355.77 968.827 356.305ZM969.909 356.71C969.611 356.71 969.424 356.498 969.424 356.274C969.424 356.007 969.611 355.864 969.859 355.826L970.774 355.689V355.826C970.774 356.48 970.388 356.71 969.909 356.71ZM972.052 357.27C972.127 357.91 972.687 358.383 973.433 358.383C974.559 358.383 974.932 357.643 974.932 356.884V354.115H974.354V354.532C974.205 354.234 973.894 354.059 973.433 354.059C972.612 354.059 972.058 354.706 972.058 355.515C972.058 356.361 972.637 356.965 973.433 356.965C973.881 356.965 974.205 356.747 974.348 356.473V356.903C974.348 357.55 974.062 357.873 973.433 357.873C972.979 357.873 972.662 357.556 972.618 357.139L972.052 357.27ZM973.52 356.473C972.991 356.473 972.655 356.1 972.655 355.515C972.655 354.937 973.004 354.557 973.52 354.557C974.024 354.557 974.373 354.937 974.373 355.515C974.373 356.094 974.024 356.473 973.52 356.473ZM976.246 355.304C976.271 354.918 976.569 354.539 977.061 354.539C977.59 354.539 977.87 354.874 977.882 355.304H976.246ZM977.969 356.081C977.857 356.417 977.615 356.685 977.129 356.685C976.625 356.685 976.24 356.312 976.227 355.777H978.479C978.486 355.739 978.492 355.665 978.492 355.59C978.492 354.657 977.975 354.022 977.055 354.022C976.302 354.022 975.624 354.663 975.624 355.602C975.624 356.616 976.327 357.201 977.129 357.201C977.826 357.201 978.305 356.784 978.473 356.256L977.969 356.081ZM979.085 356.71C979.085 356.952 979.272 357.139 979.514 357.139C979.757 357.139 979.95 356.952 979.95 356.71C979.95 356.467 979.757 356.274 979.514 356.274C979.272 356.274 979.085 356.467 979.085 356.71Z" fill="#1074ED"/>
<g opacity="0.75">
<rect x="990.082" y="256.563" width="78.5392" height="80.9417" rx="2.89308" fill="#F1F2F6"/>
<rect x="1004.33" y="267.972" width="43.8358" height="52.0594" rx="1.08491" fill="#DEE4EC"/>
<rect x="1007.25" y="270.468" width="37.991" height="12.1234" rx="1.80818" fill="#88A4DC"/>
<rect x="1007.25" y="285.444" width="18.6302" height="3.20914" rx="1.08491" fill="#BEC6D3"/>
<rect x="1007.25" y="298.637" width="17.8996" height="3.20914" rx="1.08491" fill="#BEC6D3"/>
<rect x="1007.25" y="290.792" width="37.2604" height="3.20914" rx="1.08491" fill="#9DA8B7"/>
<rect x="1007.25" y="304.698" width="37.2604" height="3.20914" rx="1.08491" fill="#9DA8B7"/>
<rect x="1010.9" y="274.39" width="43.8358" height="52.0594" rx="1.08491" fill="white"/>
<rect x="1013.83" y="276.886" width="37.991" height="12.1234" rx="1.80818" fill="#88A4DC"/>
<rect x="1013.83" y="291.862" width="18.6302" height="3.20914" rx="1.08491" fill="#BEC6D3"/>
<rect x="1013.83" y="305.054" width="17.8996" height="3.20914" rx="1.08491" fill="#BEC6D3"/>
<rect x="1013.83" y="297.21" width="37.2604" height="3.20914" rx="1.08491" fill="#9DA8B7"/>
<rect x="1013.83" y="311.117" width="37.2604" height="3.20914" rx="1.08491" fill="#9DA8B7"/>
<rect x="1080.31" y="256.562" width="78.5392" height="80.9417" rx="2.89308" fill="#F1F2F6"/>
<rect x="1097.85" y="271.182" width="43.8358" height="52.0594" rx="1.08491" fill="white"/>
<path fill-rule="evenodd" clip-rule="evenodd" d="M1097.84 287.941H1121.97C1122.97 287.941 1123.78 287.131 1123.78 286.133V277.626C1123.78 276.627 1122.97 275.818 1121.97 275.818H1097.84V287.941Z" fill="#EB4551"/>
<path d="M1103.23 282.05V279.812H1104.54C1105.32 279.812 1105.8 280.254 1105.8 280.945C1105.8 281.617 1105.32 282.05 1104.54 282.05H1103.23ZM1104.7 282.86C1105.91 282.86 1106.72 282.041 1106.72 280.936C1106.72 279.84 1105.91 279.002 1104.7 279.002H1102.33V285.531H1103.23V282.86H1104.7ZM1108.72 284.73V279.803H1110.08C1111.28 279.803 1112.28 280.632 1112.28 282.28C1112.28 283.919 1111.27 284.73 1110.06 284.73H1108.72ZM1110.09 285.531C1111.74 285.531 1113.21 284.417 1113.21 282.28C1113.21 280.134 1111.76 279.002 1110.11 279.002H1107.82V285.531H1110.09ZM1115.35 285.531V282.787H1118.13V281.939H1115.35V279.84H1118.42V279.002H1114.45V285.531H1115.35Z" fill="white"/>
<rect x="1100.77" y="292.22" width="18.6302" height="3.20914" rx="1.08491" fill="#D5DEE9"/>
<rect x="1100.77" y="307.196" width="17.8996" height="3.20914" rx="1.08491" fill="#D5DEE9"/>
<rect x="1100.77" y="297.568" width="37.2604" height="3.20914" rx="1.08491" fill="#D5DEE9"/>
<rect x="1100.77" y="312.901" width="37.2604" height="3.20914" rx="1.08491" fill="#D5DEE9"/>
<g opacity="0.5">
<rect x="1005.89" y="343.473" width="46.5387" height="5.70514" fill="#A8AABB"/>
</g>
<g opacity="0.5">
<rect x="1095.15" y="343.473" width="47.0209" height="5.70514" fill="#A8AABB"/>
</g>
</g>
<rect x="905.25" y="383.779" width="253.035" height="24.4356" rx="2.25442" stroke="#E5E5E5" stroke-width="1.12721"/>
<path d="M914.048 396.522C914.085 395.852 914.495 395.331 915.189 395.331C915.983 395.331 916.317 395.864 916.317 396.546V400.105H917.966V396.261C917.966 394.922 917.247 393.843 915.697 393.843C915.115 393.843 914.445 394.042 914.048 394.513V391.128H912.399V400.105H914.048V396.522ZM921.674 392.182H920.186V393.037C920.186 393.583 919.888 394.005 919.243 394.005H918.933V395.468H920.037V398.307C920.037 399.485 920.781 400.192 921.971 400.192C922.455 400.192 922.752 400.105 922.901 400.043V398.679C922.814 398.704 922.591 398.729 922.393 398.729C921.922 398.729 921.674 398.555 921.674 398.022V395.468H922.901V394.005H921.674V392.182ZM926.299 392.182H924.811V393.037C924.811 393.583 924.514 394.005 923.869 394.005H923.559V395.468H924.662V398.307C924.662 399.485 925.406 400.192 926.597 400.192C927.08 400.192 927.378 400.105 927.527 400.043V398.679C927.44 398.704 927.217 398.729 927.018 398.729C926.547 398.729 926.299 398.555 926.299 398.022V395.468H927.527V394.005H926.299V392.182ZM930.492 402.461V399.51C930.789 399.919 931.409 400.254 932.253 400.254C933.976 400.254 935.129 398.89 935.129 397.042C935.129 395.232 934.1 393.868 932.315 393.868C931.397 393.868 930.715 394.277 930.442 394.748V394.005H928.843V402.461H930.492ZM933.505 397.055C933.505 398.146 932.835 398.778 931.992 398.778C931.149 398.778 930.467 398.133 930.467 397.055C930.467 395.976 931.149 395.344 931.992 395.344C932.835 395.344 933.505 395.976 933.505 397.055ZM935.914 398.406C935.989 399.101 936.621 400.291 938.456 400.291C940.056 400.291 940.824 399.274 940.824 398.282C940.824 397.39 940.217 396.658 939.014 396.41L938.146 396.224C937.811 396.162 937.588 395.976 937.588 395.678C937.588 395.331 937.935 395.071 938.369 395.071C939.064 395.071 939.324 395.53 939.374 395.889L940.75 395.579C940.676 394.922 940.093 393.819 938.357 393.819C937.043 393.819 936.075 394.724 936.075 395.815C936.075 396.67 936.609 397.377 937.787 397.638L938.592 397.824C939.064 397.923 939.25 398.146 939.25 398.419C939.25 398.741 938.989 399.026 938.444 399.026C937.725 399.026 937.365 398.58 937.328 398.096L935.914 398.406ZM942.101 399.088C942.101 399.696 942.597 400.192 943.204 400.192C943.824 400.192 944.333 399.696 944.333 399.088C944.333 398.468 943.824 397.972 943.204 397.972C942.597 397.972 942.101 398.468 942.101 399.088ZM942.088 395.034C942.088 395.641 942.584 396.137 943.192 396.137C943.812 396.137 944.32 395.641 944.32 395.034C944.32 394.414 943.812 393.918 943.192 393.918C942.584 393.918 942.088 394.414 942.088 395.034ZM951.022 391.202H949.522L945.133 400.217H946.621L951.022 391.202ZM956.217 391.202H954.717L950.327 400.217H951.815L956.217 391.202ZM960.225 394.005L958.898 397.923L957.77 394.005H956.034L957.981 400.105H959.655L961.056 395.939L962.482 400.105H964.131L966.04 394.005H964.404L963.275 397.935L961.961 394.005H960.225ZM970.529 394.005L969.203 397.923L968.074 394.005H966.338L968.285 400.105H969.959L971.36 395.939L972.786 400.105H974.435L976.345 394.005H974.708L973.58 397.935L972.265 394.005H970.529ZM980.834 394.005L979.507 397.923L978.379 394.005H976.643L978.59 400.105H980.264L981.665 395.939L983.091 400.105H984.74L986.649 394.005H985.013L983.884 397.935L982.57 394.005H980.834ZM987.023 399.063C987.023 399.683 987.532 400.192 988.152 400.192C988.784 400.192 989.292 399.683 989.292 399.063C989.292 398.443 988.784 397.935 988.152 397.935C987.532 397.935 987.023 398.443 987.023 399.063ZM990.516 398.443C990.516 399.398 991.309 400.279 992.611 400.279C993.517 400.279 994.099 399.857 994.409 399.373C994.409 399.609 994.434 399.944 994.471 400.105H995.984C995.947 399.894 995.91 399.46 995.91 399.138V396.137C995.91 394.91 995.19 393.819 993.256 393.819C991.619 393.819 990.739 394.872 990.64 395.827L992.103 396.137C992.153 395.604 992.549 395.145 993.269 395.145C993.963 395.145 994.298 395.505 994.298 395.939C994.298 396.15 994.186 396.323 993.839 396.373L992.339 396.596C991.322 396.745 990.516 397.352 990.516 398.443ZM992.959 399.051C992.425 399.051 992.165 398.704 992.165 398.344C992.165 397.873 992.5 397.638 992.921 397.576L994.298 397.365V397.638C994.298 398.716 993.653 399.051 992.959 399.051ZM999.221 400.105V391.128H997.572V400.105H999.221ZM1004.95 400.105H1006.53C1006.5 399.894 1006.47 399.473 1006.47 399.001V394.005H1004.82V397.551C1004.82 398.257 1004.4 398.753 1003.67 398.753C1002.9 398.753 1002.55 398.208 1002.55 397.526V394.005H1000.9V397.861C1000.9 399.187 1001.74 400.266 1003.22 400.266C1003.86 400.266 1004.57 400.018 1004.91 399.448C1004.91 399.696 1004.93 399.981 1004.95 400.105ZM1009.88 400.105V396.534C1009.88 395.864 1010.3 395.331 1011.02 395.331C1011.76 395.331 1012.1 395.827 1012.1 396.484V400.105H1013.73V396.534C1013.73 395.877 1014.15 395.331 1014.86 395.331C1015.62 395.331 1015.94 395.827 1015.94 396.484V400.105H1017.54V396.15C1017.54 394.513 1016.46 393.831 1015.33 393.831C1014.53 393.831 1013.88 394.104 1013.4 394.848C1013.09 394.19 1012.42 393.831 1011.59 393.831C1010.92 393.831 1010.14 394.153 1009.8 394.748V394.005H1008.23V400.105H1009.88ZM1020.86 396.596C1020.86 395.889 1021.28 395.331 1022 395.331C1022.79 395.331 1023.13 395.864 1023.13 396.546V400.105H1024.78V396.261C1024.78 394.922 1024.08 393.843 1022.57 393.843C1021.91 393.843 1021.18 394.129 1020.81 394.761V394.005H1019.21V400.105H1020.86V396.596ZM1028.1 400.105V394.005H1026.45V400.105H1028.1ZM1026.25 392.008C1026.25 392.554 1026.71 393.013 1027.27 393.013C1027.84 393.013 1028.29 392.554 1028.29 392.008C1028.29 391.438 1027.84 390.979 1027.27 390.979C1026.71 390.979 1026.25 391.438 1026.25 392.008ZM1035.4 401.457V400.105H1029.06V401.457H1035.4ZM1035.84 398.406C1035.91 399.101 1036.54 400.291 1038.38 400.291C1039.98 400.291 1040.75 399.274 1040.75 398.282C1040.75 397.39 1040.14 396.658 1038.94 396.41L1038.07 396.224C1037.73 396.162 1037.51 395.976 1037.51 395.678C1037.51 395.331 1037.86 395.071 1038.29 395.071C1038.98 395.071 1039.25 395.53 1039.29 395.889L1040.67 395.579C1040.6 394.922 1040.01 393.819 1038.28 393.819C1036.96 393.819 1036 394.724 1036 395.815C1036 396.67 1036.53 397.377 1037.71 397.638L1038.51 397.824C1038.98 397.923 1039.17 398.146 1039.17 398.419C1039.17 398.741 1038.91 399.026 1038.36 399.026C1037.65 399.026 1037.29 398.58 1037.25 398.096L1035.84 398.406ZM1046.02 400.105H1047.59C1047.57 399.894 1047.53 399.473 1047.53 399.001V394.005H1045.88V397.551C1045.88 398.257 1045.46 398.753 1044.73 398.753C1043.96 398.753 1043.61 398.208 1043.61 397.526V394.005H1041.96V397.861C1041.96 399.187 1042.8 400.266 1044.28 400.266C1044.92 400.266 1045.63 400.018 1045.97 399.448C1045.97 399.696 1045.99 399.981 1046.02 400.105ZM1053.01 393.98C1052.88 393.967 1052.76 393.955 1052.62 393.955C1052.1 393.955 1051.26 394.104 1050.89 394.91V394.005H1049.29V400.105H1050.94V397.315C1050.94 396.001 1051.67 395.592 1052.51 395.592C1052.66 395.592 1052.82 395.604 1053.01 395.641V393.98ZM1060.1 394.005H1058.37L1056.92 398.096L1055.4 394.005H1053.59L1056.09 400.105H1057.73L1060.1 394.005ZM1062.13 396.36C1062.16 395.802 1062.64 395.158 1063.49 395.158C1064.43 395.158 1064.83 395.753 1064.86 396.36H1062.13ZM1065.02 397.947C1064.82 398.493 1064.4 398.877 1063.63 398.877C1062.81 398.877 1062.13 398.295 1062.09 397.489H1066.45C1066.45 397.464 1066.48 397.216 1066.48 396.98C1066.48 395.021 1065.35 393.819 1063.47 393.819C1061.9 393.819 1060.47 395.083 1060.47 397.03C1060.47 399.088 1061.94 400.291 1063.62 400.291C1065.12 400.291 1066.08 399.411 1066.39 398.357L1065.02 397.947ZM1069.8 402.51L1073.63 394.005H1071.87L1070.37 397.576L1068.75 394.005H1066.9L1069.49 399.336L1068.05 402.51H1069.8ZM1073.33 399.063C1073.33 399.683 1073.84 400.192 1074.46 400.192C1075.09 400.192 1075.6 399.683 1075.6 399.063C1075.6 398.443 1075.09 397.935 1074.46 397.935C1073.84 397.935 1073.33 398.443 1073.33 399.063ZM1079.79 395.344C1080.61 395.344 1081 395.864 1081.15 396.373L1082.62 395.877C1082.36 394.848 1081.42 393.819 1079.76 393.819C1077.98 393.819 1076.59 395.17 1076.59 397.055C1076.59 398.927 1078.01 400.291 1079.81 400.291C1081.43 400.291 1082.39 399.249 1082.66 398.233L1081.21 397.749C1081.07 398.22 1080.65 398.778 1079.81 398.778C1078.96 398.778 1078.24 398.158 1078.24 397.055C1078.24 395.951 1078.95 395.344 1079.79 395.344ZM1086.55 398.791C1085.74 398.791 1085 398.195 1085 397.055C1085 395.902 1085.74 395.319 1086.55 395.319C1087.36 395.319 1088.1 395.902 1088.1 397.055C1088.1 398.208 1087.36 398.791 1086.55 398.791ZM1086.55 393.819C1084.73 393.819 1083.35 395.17 1083.35 397.055C1083.35 398.927 1084.73 400.291 1086.55 400.291C1088.37 400.291 1089.75 398.927 1089.75 397.055C1089.75 395.17 1088.37 393.819 1086.55 393.819ZM1092.7 400.105V396.534C1092.7 395.864 1093.12 395.331 1093.84 395.331C1094.59 395.331 1094.92 395.827 1094.92 396.484V400.105H1096.56V396.534C1096.56 395.877 1096.98 395.331 1097.68 395.331C1098.44 395.331 1098.76 395.827 1098.76 396.484V400.105H1100.36V396.15C1100.36 394.513 1099.28 393.831 1098.16 393.831C1097.35 393.831 1096.71 394.104 1096.22 394.848C1095.91 394.19 1095.24 393.831 1094.41 393.831C1093.74 393.831 1092.96 394.153 1092.63 394.748V394.005H1091.05V400.105H1092.7Z" fill="#1074ED"/>
</g>
<path d="M201.841 202.129C201.841 202.129 188.353 219.391 180.117 236.036C171.88 252.682 162.69 284.507 204.814 272.419C204.814 272.419 203.706 211.014 201.841 202.129Z" fill="#BA580D"/>
<path d="M227.529 202.014C227.529 202.014 240.865 219.155 248.955 235.727C257.045 252.299 265.955 284.043 223.936 272.333C223.936 272.333 225.586 210.916 227.529 202.014Z" fill="#BA580D"/>
<path d="M231.1 268.912C239.751 270.479 247.369 270.279 255.425 273.379C259.766 275.052 265.583 276.975 268.667 280.559C282.055 296.12 287.381 310.678 287.381 310.678L140.31 318.393C140.31 318.393 152.696 287.581 165.498 279.986C170.978 276.535 176.903 273.847 183.109 271.998C188.042 273.205 192.437 272.819 200.005 269.734L231.1 268.912Z" fill="#3C5999"/>
<path d="M200.658 245.776C200.658 245.776 208.08 261.572 201.996 267.015C198.648 270.011 196.483 271.56 183.049 272.001C220.378 304.033 251.198 271.968 251.198 271.968C246.865 270.756 230.191 269.401 230.191 264.642C230.066 261.644 232.151 250.347 233.558 247.696L231.995 247.129L200.658 245.776Z" fill="#F8AF8D"/>
<path d="M152.895 297.155C152.895 297.155 127.409 334.017 127.624 358.439C127.745 371.395 159.103 378.094 159.103 378.094C159.103 378.094 167.87 371.18 169.685 368.169C171.019 366.042 155.541 361.171 157.721 359.925C159.901 358.679 162.355 357.991 164.865 357.921C161.889 355.091 161.371 353.02 158.453 350.124C154.571 347.305 172.88 314.378 172.88 314.378" fill="#3C5999"/>
<path d="M177.123 363.176C174.852 361.816 168.264 358.681 165.675 358.132L156.886 356.265C156.886 356.265 148.267 358.44 147.497 370.492C147.48 371.435 147.675 372.369 148.067 373.226L156.056 375.455C159.505 377.924 165.235 383.456 170.742 380.484L172.927 375.455L177.123 363.176Z" fill="#3C5999"/>
<path d="M279.667 297.246C279.667 297.246 305.153 334.108 304.937 358.53C304.817 371.486 281.038 376.646 281.038 376.646C281.038 376.646 282.008 368.165 280.193 365.154C278.859 363.027 277.021 361.262 274.841 360.016C272.661 358.77 270.207 358.082 267.697 358.012C270.672 355.182 274.436 353.277 277.354 350.381C281.237 347.562 259.682 314.469 259.682 314.469" fill="#3C5999"/>
<path d="M277.354 350.378C279.062 348.998 281.045 347.998 283.17 347.444C285.338 346.843 287.614 346.734 289.83 347.123C290.941 347.351 292.023 347.707 293.053 348.182C294.067 348.667 295.017 349.275 295.882 349.993C297.57 351.409 298.926 353.178 299.854 355.177C298.42 353.638 296.82 352.263 295.083 351.076C293.388 349.971 291.497 349.204 289.511 348.818C287.506 348.463 285.456 348.442 283.444 348.757C281.363 349.081 279.321 349.624 277.354 350.378V350.378Z" fill="#3C5999"/>
<path d="M277.354 350.377C278.749 349.672 280.272 349.253 281.832 349.147C283.426 349.014 285.03 349.205 286.547 349.711C286.927 349.846 287.301 350.001 287.666 350.173C288.02 350.37 288.378 350.559 288.726 350.764C289.059 350.991 289.364 351.261 289.682 351.507C289.844 351.626 289.997 351.757 290.14 351.898L290.538 352.352C291.592 353.526 292.341 354.941 292.72 356.473C291.871 355.25 290.877 354.134 289.761 353.149C288.686 352.212 287.435 351.501 286.08 351.056C284.712 350.597 283.287 350.327 281.845 350.256C280.347 350.18 278.845 350.22 277.354 350.377V350.377Z" fill="#3C5999"/>
<path d="M255.392 364.294C257.672 362.742 264.28 359.157 266.874 358.52L275.676 356.357C275.676 356.357 284.285 358.765 284.983 372.392C284.994 373.458 284.794 374.515 284.397 375.487L276.392 378.055C272.928 380.869 269.625 376.68 264.134 373.351L259.516 378.156L255.392 364.294Z" fill="#3C5999"/>
<path d="M231.411 247.219C221.998 260.618 207.874 252.329 207.874 252.329" stroke="#EBAA78" stroke-width="2.40735" stroke-miterlimit="10"/>
<path d="M199.767 193.398C206.535 189.053 213.137 183.155 227.754 186.837C252.938 193.18 243.881 227.125 243.881 227.125C229.909 261.521 220.244 257.552 220.244 257.552C220.244 257.552 214.315 257.561 208.496 253.515C202.933 249.601 200.996 246.515 196.496 240.015C189.273 223.963 191.416 213.016 191.416 213.016C191.416 213.016 194.368 196.861 199.767 193.398Z" fill="#FFBD9E"/>
<path d="M190.731 218.637C190.731 218.637 186.183 216.885 184.718 221.066C182.607 227.097 194.515 235.259 194.515 235.259L190.731 218.637Z" fill="#F7AE8C"/>
<path d="M244.863 217.9C244.863 217.9 246.193 216.245 247.076 220.4C248.349 226.392 240.496 234.738 240.496 234.738L244.863 217.9Z" fill="#F6AE8C"/>
<path d="M231.127 251.23C229.17 252.925 226.955 255.292 224.586 256.306C222.279 257.311 220.329 257.338 217.827 257.119C216.587 257.007 215.369 256.711 214.212 256.241C213.035 255.786 211.913 255.198 210.866 254.486C208.736 253.011 206.221 251.666 204.496 249.719C205.878 252.01 207.631 254.657 209.726 256.294C211.86 257.999 214.432 259.432 217.128 259.732C218.478 259.858 219.838 259.784 221.167 259.515C222.481 259.238 223.754 258.79 224.956 258.183C227.331 256.999 229.457 253.316 231.127 251.23Z" fill="#DC9C7E"/>
<path d="M228.446 239.608C228.446 239.608 220.311 241.6 213.217 239.869C213.217 239.869 214.449 242.873 218.019 245.093C219.325 245.552 220.576 246.184 221.968 245.948C223.361 245.711 224.353 245.096 225.386 244.24C226.769 243.054 227.822 241.204 228.446 239.608Z" fill="#DB5D26"/>
<path d="M214.999 240.024C219.486 240.305 223.989 240.178 228.453 239.645C228.453 239.645 228.486 240.094 227.692 241.427C216.57 243.67 213.298 241.314 213.217 239.824L214.999 240.024Z" fill="white"/>
<path d="M222.496 223.015C220.996 227.015 225.073 231.17 225.441 232.597C225.969 234.645 222.996 234.515 219.496 234.515" stroke="#EC8F64" stroke-linecap="round" stroke-linejoin="bevel"/>
<path d="M231.004 220.955C231.521 220.874 231.959 221.074 232.285 221.471C232.612 221.867 232.757 222.514 232.73 223.189C232.752 223.499 232.653 223.849 232.553 224.2C232.453 224.551 232.323 224.817 232.141 225.068C231.96 225.32 231.779 225.572 231.516 225.724C231.303 225.892 231.04 226.044 230.817 226.057C230.3 226.137 229.863 225.937 229.536 225.541C229.209 225.145 229.064 224.497 229.091 223.822C229.069 223.513 229.169 223.162 229.268 222.811C229.368 222.461 229.499 222.195 229.68 221.943C229.861 221.691 230.043 221.44 230.306 221.287C230.498 221.19 230.761 221.037 231.004 220.955Z" fill="#724422"/>
<path d="M204.496 218.514C206.115 216.922 208.496 215.014 212.15 215.808C214.943 216.414 217.034 217.59 217.11 217.896" stroke="#C96436" stroke-linecap="round"/>
<path d="M237.741 217.897C236.693 215.745 233.996 215.014 230.62 216.205C227.244 217.395 226.351 218.117 226.315 218.383" stroke="#C96436" stroke-linecap="round"/>
<path opacity="0.2" d="M207.343 240.116C205.016 240.598 202.54 238.138 201.813 234.623C201.086 231.107 202.383 227.867 204.71 227.386C207.037 226.904 209.514 229.364 210.241 232.879C210.968 236.395 209.671 239.635 207.343 240.116Z" fill="#DD6637"/>
<path opacity="0.2" d="M234.011 240.233C232.07 239.997 230.854 236.863 231.295 233.233C231.736 229.603 233.667 226.851 235.608 227.087C237.549 227.323 238.765 230.457 238.324 234.087C237.883 237.717 235.952 240.469 234.011 240.233Z" fill="#DD6637"/>
<path d="M212.004 220.954C212.521 220.874 212.959 221.074 213.285 221.47C213.612 221.866 213.757 222.514 213.73 223.189C213.752 223.498 213.653 223.849 213.553 224.199C213.453 224.55 213.323 224.816 213.141 225.068C212.96 225.32 212.779 225.571 212.516 225.724C212.303 225.891 212.04 226.044 211.817 226.056C211.3 226.137 210.863 225.936 210.536 225.54C210.209 225.144 210.064 224.496 210.091 223.822C210.069 223.512 210.169 223.162 210.268 222.811C210.368 222.46 210.499 222.194 210.68 221.942C210.861 221.691 211.043 221.439 211.306 221.286C211.498 221.189 211.761 221.037 212.004 220.954Z" fill="#724422"/>
<path d="M235.669 201.237C234.822 203.169 233.384 205.073 231.131 206.806C220.425 215.042 200.867 208.042 197.984 214.836C195.102 221.63 192.268 226.966 194.327 235.407C195.974 242.16 188.003 228.085 186.09 218.683C184.061 212.706 185.022 193.589 191.28 188.484C199.104 182.101 213.203 176.085 221.828 176.918C231.131 177.817 231.347 181.277 233.808 183.058C236.467 182.053 238.996 182.719 243.278 188.484C248.631 195.689 251.823 208.675 248.32 216.05C244.835 223.388 240.859 228.143 241.683 233.289C242.342 237.407 241.154 237.801 241.013 237.894L240.43 238.228L238.87 238.989C240.517 238.166 242.328 224.686 242.328 218.263C242.328 211.214 239.887 203.111 235.669 201.237Z" fill="#BA580D"/>
<path d="M112.178 378.459H327.529C329.355 378.459 330.855 380.521 330.855 383.031V388.768C330.855 391.278 329.355 393.34 327.529 393.34H112.113C110.287 393.34 108.787 391.278 108.787 388.768V383.031C108.852 380.521 110.352 378.459 112.178 378.459Z" fill="#BEC6D3"/>
<path d="M280.796 306.423C280.875 304.713 279.511 303.283 277.799 303.283H154.48C152.724 303.283 151.343 304.784 151.49 306.534L157.378 376.721C157.509 378.275 158.808 379.47 160.368 379.47H274.528C276.13 379.47 277.45 378.211 277.524 376.61L280.796 306.423Z" fill="#A0A0A0"/>
<ellipse cx="5.7978" cy="6.29981" rx="5.7978" ry="6.29981" transform="matrix(-4.37114e-08 1 1 4.37114e-08 211.984 336.196)" fill="white"/>
<defs>
<filter id="filter0_d_1_1186" x="883.53" y="233.779" width="299.687" height="197.232" filterUnits="userSpaceOnUse" color-interpolation-filters="sRGB">
<feFlood flood-opacity="0" result="BackgroundImageFix"/>
<feColorMatrix in="SourceAlpha" type="matrix" values="0 0 0 0 0 0 0 0 0 0 0 0 0 0 0 0 0 0 127 0" result="hardAlpha"/>
<feOffset dx="2.37889" dy="2.37889"/>
<feGaussianBlur stdDeviation="2.77538"/>
<feColorMatrix type="matrix" values="0 0 0 0 0 0 0 0 0 0 0 0 0 0 0 0 0 0 0.25 0"/>
<feBlend mode="normal" in2="BackgroundImageFix" result="effect1_dropShadow_1_1186"/>
<feBlend mode="normal" in="SourceGraphic" in2="effect1_dropShadow_1_1186" result="shape"/>
</filter>
<filter id="filter1_d_1_1186" x="892.62" y="249.329" width="93.0045" height="95.4071" filterUnits="userSpaceOnUse" color-interpolation-filters="sRGB">
<feFlood flood-opacity="0" result="BackgroundImageFix"/>
<feColorMatrix in="SourceAlpha" type="matrix" values="0 0 0 0 0 0 0 0 0 0 0 0 0 0 0 0 0 0 127 0" result="hardAlpha"/>
<feOffset/>
<feGaussianBlur stdDeviation="3.61635"/>
<feColorMatrix type="matrix" values="0 0 0 0 0 0 0 0 0 0 0 0 0 0 0 0 0 0 0.25 0"/>
<feBlend mode="normal" in2="BackgroundImageFix" result="effect1_dropShadow_1_1186"/>
<feBlend mode="normal" in="SourceGraphic" in2="effect1_dropShadow_1_1186" result="shape"/>
</filter>
<linearGradient id="paint0_linear_1_1186" x1="1291.1" y1="39.9028" x2="1302.23" y2="41.2179" gradientUnits="userSpaceOnUse">
<stop stop-color="#F1CEBA"/>
<stop offset="1" stop-color="#B8846F"/>
</linearGradient>
</defs>
</svg>
