<svg width="46" height="71" viewBox="0 0 46 71" fill="none" xmlns="http://www.w3.org/2000/svg">
<path d="M36.5639 15.5815C36.4639 15.5815 36.2639 15.4813 36.1639 15.4813C36.3639 15.1808 36.7639 15.0806 36.7639 14.6799C36.7639 13.8785 37.1639 13.077 37.6639 12.4759C38.0639 11.975 38.2639 11.3739 38.6639 10.9732C39.7639 9.67087 41.5639 9.27015 42.6639 7.86763C42.9639 7.4669 43.1639 6.966 43.4639 6.56528C43.7639 6.26474 43.7639 5.76384 44.0639 5.56347C44.0639 4.96239 43.9639 4.26113 43.9639 3.66004C43.9639 3.25932 43.9639 2.8586 43.7639 2.45788C43.5639 2.05716 43.2639 1.65643 42.8639 1.35589C42.1639 0.85499 41.2639 0.654628 40.4639 0.253906H40.3639C40.2639 0.354087 40.1639 0.454268 40.0639 0.554449C39.6639 0.554449 39.3639 0.454269 38.9639 0.65463C38.4639 0.854991 38.1639 1.35589 37.6639 1.65643C37.2639 1.45607 36.9639 0.955171 36.5639 0.955171C35.6639 0.955171 34.7639 0.854991 33.9639 1.15553C33.6639 1.25571 33.3639 1.55625 33.0639 1.75661C33.0639 1.95697 33.1639 2.25752 33.0639 2.45788C32.8639 2.75842 32.3639 2.75842 32.2639 3.15914C31.8639 3.96059 31.9639 5.06257 32.4639 5.86402C33.2639 7.26654 34.6639 8.16817 35.6639 9.37033C35.9639 9.67087 36.0639 10.1718 36.0639 10.5725C36.1639 12.3757 35.0639 13.9786 35.2639 15.7819C35.5639 16.1826 36.0639 16.0824 36.4639 16.0824C36.5639 15.7819 36.5639 15.5815 36.5639 15.5815ZM34.2639 5.56347C34.1639 5.26293 33.6639 5.26293 33.5639 4.96239C33.3639 4.56167 33.4639 3.96059 33.6639 3.55986C34.0639 2.95878 34.4639 2.45788 34.9639 2.05716C35.4639 1.65643 36.1639 1.75662 36.5639 2.15734C36.8639 2.45788 37.0639 2.8586 37.1639 3.25932C37.7639 3.45968 37.8639 4.06077 38.1639 4.46149C38.6639 4.76203 39.1639 4.06077 39.0639 3.66004C39.0639 3.15914 38.3639 2.8586 38.4639 2.3577C38.4639 2.25752 38.5639 2.15734 38.6639 2.05716C38.8639 1.95698 39.0639 1.85679 39.2639 1.85679C39.9639 1.65643 40.8639 1.55625 41.5639 1.95698C42.0639 2.15734 42.3639 2.65824 42.3639 3.25932C42.4639 4.16095 42.4639 5.16275 42.0639 5.9642C41.7639 6.36492 41.1639 6.4651 40.9639 6.966C40.7639 7.06618 40.5639 7.06618 40.4639 7.26654C39.3639 8.26835 38.2639 9.16997 37.2639 10.1718C37.1639 9.57069 36.9639 8.96961 36.6639 8.56889C36.0639 7.36672 34.8639 6.76564 34.2639 5.56347Z" fill="white"/>
<path d="M37.8638 33.9146C36.5638 34.1149 35.3638 33.8144 34.1638 33.3135C31.8638 32.4119 29.8639 30.809 28.4639 28.8054C27.9639 28.0039 27.4638 29.5066 27.3638 29.8072C26.1638 32.512 24.9638 35.2169 23.8638 37.9218C23.7638 38.2223 23.7638 38.6231 23.8638 38.9236C23.8638 39.0238 23.9639 39.124 23.9639 39.2241C23.8639 39.5247 23.6638 39.8252 23.5638 40.0256C22.6638 40.3261 21.5638 40.6267 21.0638 41.6285C20.7638 42.1294 20.9638 42.6303 21.0638 43.1312C21.0638 44.0328 20.7638 44.9344 20.5638 45.7359C20.5638 45.836 20.4638 46.0364 20.2638 46.1366C20.0638 45.7359 20.2638 45.3351 20.3638 45.0346C20.2638 44.8342 20.1638 44.6339 20.1638 44.4335C19.6638 43.5319 19.2638 42.6303 18.7638 41.7286C18.8638 41.4281 19.0638 41.1276 18.8638 40.827C17.3638 38.1221 15.8638 35.4173 14.3638 32.6122C14.0638 32.1113 13.3638 32.0111 12.8638 32.3117C12.1638 32.9128 11.6638 33.614 10.8638 34.1149C9.86381 34.8162 8.66383 35.0166 7.56383 35.2169C7.16383 35.3171 6.7638 35.5175 6.6638 35.9182C6.5638 36.3189 6.76385 36.6194 6.96385 36.92C8.36385 39.4245 9.76383 42.0292 11.0638 44.5337C11.2638 44.9344 11.8638 44.9344 12.1638 45.235C12.7638 46.3369 13.3639 47.3388 13.9639 48.4407C14.1639 48.8415 14.6638 48.7413 15.0638 48.8415C15.6638 50.0436 16.4639 51.1456 16.9639 52.3478C16.5639 53.2494 16.1639 54.0508 15.9639 54.9525C15.7639 55.7539 15.6638 56.6555 15.7638 57.457C15.8638 58.2584 16.1638 59.0599 16.7638 59.661C16.9638 59.8613 16.9639 60.1619 16.9639 60.4624C17.0639 61.4642 17.7638 62.3658 18.7638 62.466C18.9638 62.9669 19.1638 63.568 19.6638 63.8685C19.9638 64.0689 20.4638 64.1691 20.8638 64.1691C21.6638 64.8703 22.9638 65.1709 23.8638 64.4696C24.1638 64.1691 24.7638 64.3694 25.0638 64.0689C25.4638 63.7684 25.6638 63.2674 25.8638 62.7665C26.2638 62.7665 26.7638 62.7666 27.0638 62.466C27.4638 62.1655 27.4639 61.5644 27.4639 61.0635C28.0639 60.9633 28.4638 60.4624 28.6638 59.8613C29.1638 59.661 29.6638 59.661 30.0638 59.3604C30.6638 58.9597 30.7639 58.2584 30.9639 57.5572C31.5639 57.1564 32.2638 56.8559 32.7638 56.355C33.1638 55.9543 33.4638 55.253 33.3638 54.6519C33.3638 54.2512 33.1638 53.8505 32.7638 53.6501C32.2638 53.5499 31.7638 53.7503 31.3638 53.9507C31.3638 52.8487 30.9639 51.7467 30.4639 50.7449C30.2639 50.244 29.9638 49.6429 29.8638 49.0418C30.2638 47.7395 31.3638 46.8378 32.1638 45.7359C32.4638 45.0346 32.2639 44.2332 31.9639 43.5319C32.0639 43.3315 32.1638 43.031 32.3638 42.7305C32.5638 42.6303 32.8638 42.6303 33.0638 42.5301C33.2638 42.4299 33.3639 42.2295 33.4639 42.0292C35.1639 39.5247 36.8638 36.92 38.5638 34.4155C38.6638 34.1149 38.9638 33.8144 38.7638 33.5138C38.4638 33.8144 38.1638 33.9146 37.8638 33.9146ZM31.2638 55.5536C31.5638 55.3532 31.9639 55.1528 32.4639 55.0527C32.5639 55.253 32.6638 55.5536 32.5638 55.7539C32.2638 56.2548 31.7638 56.5554 31.2638 56.7557C31.1638 56.2548 31.1638 55.8541 31.2638 55.5536ZM14.7638 47.9398C14.0638 46.8379 13.4638 45.7359 12.8638 44.6339C12.6638 44.2332 12.0638 44.4335 11.8638 43.9326C10.7638 41.929 9.66383 39.9254 8.56383 37.8216C8.36383 37.4209 8.06381 37.0202 7.86381 36.5193C7.86381 36.3189 8.16381 36.3189 8.36381 36.2187C10.1638 35.9182 11.6639 34.9164 12.9639 33.7142C13.0639 33.614 13.1638 33.5138 13.1638 33.5138C13.2638 33.4137 13.5638 33.4137 13.5638 33.614C14.7638 35.9182 16.0638 38.2223 17.2638 40.5265C17.3638 40.7268 17.5639 40.9272 17.4639 41.1276C17.3639 41.6285 17.0638 41.929 16.6638 42.2295C16.1638 42.6303 15.5639 43.031 14.9639 43.3315C14.6639 43.5319 14.2639 43.6321 13.9639 43.9326C13.8639 44.133 13.8638 44.4335 14.0638 44.5337C14.3638 44.8342 14.7638 44.6339 15.0638 44.4335C15.5638 44.133 16.0638 43.8324 16.5638 43.5319C16.9638 43.2314 17.3638 42.9308 17.7638 42.6303C18.1638 43.3315 18.5639 44.0328 18.9639 44.7341C19.0639 44.9344 19.1638 45.1348 19.1638 45.3351C18.8638 46.1366 18.1639 46.6375 17.4639 47.0382C16.7639 47.4389 15.7638 48.04 14.7638 47.9398ZM16.0638 48.7413C17.5638 48.1402 18.2639 47.6393 19.4639 46.7377C19.5639 46.938 19.6638 47.1384 19.7638 47.2386C19.0638 48.6411 18.3638 50.0436 17.5638 51.346H17.4639C16.9639 50.5445 16.5638 49.6429 16.0638 48.7413ZM24.2638 63.4678C23.8638 63.4678 23.5639 63.2675 23.4639 62.9669C23.1639 62.2656 22.8638 61.4642 23.0638 60.6628C23.3638 59.8613 23.7638 59.7611 24.1638 60.5626C24.4638 61.2638 24.6638 61.9651 24.6638 62.7665C24.7638 62.9669 24.5638 63.3676 24.2638 63.4678ZM26.3638 61.9651C26.1638 62.1655 25.8638 62.0653 25.5638 62.0653C25.2638 61.1637 25.0638 60.0617 24.2638 59.4606C23.9638 59.2602 23.4639 59.2602 23.4639 58.8595C23.0639 57.457 23.9638 57.6573 24.7638 58.3586C25.4638 59.1601 25.9638 60.0617 26.2638 60.9633C26.4638 61.2638 26.6638 61.6646 26.3638 61.9651ZM27.1638 60.4624C26.6638 59.3604 25.8639 58.2584 24.9639 57.457C24.3639 56.9561 24.1638 55.9543 25.0638 56.0545C25.8638 56.2548 26.2638 57.0563 26.6638 57.6573C26.8638 58.2584 27.3638 58.7593 27.5638 59.4606C27.6638 59.8613 27.4638 60.262 27.1638 60.4624ZM28.3638 59.0599C27.9638 58.0581 27.4638 56.9561 26.7638 56.1546C26.4638 55.8541 26.0638 55.4534 26.6638 55.1528C27.3638 55.253 27.7638 55.8541 28.0638 56.355C28.3638 57.0563 28.8638 57.6573 28.8638 58.4588C28.8638 58.6592 28.6638 58.9597 28.3638 59.0599ZM31.1638 45.7359C30.5638 46.7377 29.7638 47.6393 29.1638 48.6411C29.0638 48.9416 28.8639 49.142 28.9639 49.4425C28.9639 51.1456 30.4638 52.448 30.2638 54.0508C30.1638 55.3532 30.1638 56.7557 29.7638 57.9579C29.4638 56.4552 28.6638 54.9525 27.3638 54.151C27.0638 53.9507 26.7639 53.9507 26.4639 54.151C26.0639 54.2512 25.8638 54.6519 25.7638 54.9525C25.2638 54.9525 24.6638 54.9525 24.2638 55.3532C23.8638 55.6537 23.7638 56.1546 23.7638 56.6555C23.3638 56.8559 22.8638 57.2566 22.7638 57.7575C22.6638 58.1582 22.7638 58.6592 22.8638 59.0599C22.4638 59.661 22.2638 60.3622 22.2638 61.0635C22.3638 62.0653 22.6638 63.0671 23.2638 63.8685C22.6638 64.0689 22.0638 63.7684 21.6638 63.2674C21.0638 62.3658 21.2638 61.2638 21.2638 60.262C21.2638 59.5608 21.6638 58.8595 21.2638 58.2584C21.0638 58.0581 20.6638 58.3586 20.6638 58.559C20.2638 59.9615 20.0638 61.5644 20.3638 63.0671C19.8638 62.7666 19.5639 62.0653 19.4639 61.4642C19.3639 59.9615 19.6638 58.559 20.0638 57.0563C20.1638 56.8559 20.0638 56.5554 19.8638 56.355C19.6638 56.1546 19.3638 56.4552 19.2638 56.6555C18.7638 58.1582 18.5638 59.7611 18.6638 61.364C18.1638 61.1637 17.9638 60.5626 17.8638 60.0617C17.7638 58.7593 18.0638 57.5572 18.3638 56.2548C18.4638 55.9543 18.4638 55.6537 18.2638 55.3532C17.9638 55.1528 17.6639 55.4534 17.4639 55.7539C17.1639 56.5554 17.0638 57.457 16.8638 58.2584C16.3638 57.6573 16.4638 56.8559 16.5638 56.1546C16.6638 54.9525 17.2638 53.7503 17.8638 52.6483C18.7638 50.8451 19.7638 49.2422 20.6638 47.4389C21.1638 46.2368 21.8638 45.0346 22.0638 43.6321C22.1638 42.3297 21.4638 41.6285 23.2638 41.1276C23.2638 41.6285 23.1638 42.1294 23.3638 42.6303C23.7638 43.7323 24.6638 44.4335 25.6638 44.9344C26.9638 45.5355 28.4638 45.836 29.8638 45.4353C30.3638 45.3351 30.7638 44.9344 31.1638 44.7341C31.1638 45.3351 31.2638 45.5355 31.1638 45.7359ZM30.0638 44.4335C28.7638 45.1348 27.1639 44.9344 25.9639 44.2332C25.2639 43.8324 24.5638 43.3315 24.3638 42.5301C24.1638 41.7286 24.3638 40.9272 24.8638 40.2259C26.7638 41.6285 28.9638 42.6303 31.2638 43.031C31.0638 43.6321 30.6638 44.133 30.0638 44.4335ZM32.4639 42.0292C30.0639 42.0292 27.6638 41.1276 25.7638 39.6249C25.3638 39.3243 24.9638 39.124 24.6638 38.7232C24.6638 38.5229 24.7638 38.2223 24.8638 38.022C25.3638 38.4227 25.9639 38.8234 26.4639 39.2241C28.2639 40.5265 30.4638 41.4281 32.7638 41.4281C32.7638 41.6285 32.6639 41.8288 32.4639 42.0292ZM33.4639 40.6267C31.4639 40.7268 29.5638 40.0256 27.8638 38.9236C27.0638 38.3225 26.2639 37.7214 25.4639 37.0202C25.4639 36.7196 25.6638 36.4191 25.7638 36.1185C27.4638 37.6212 29.3638 39.0238 31.6638 39.6249C32.3638 39.8252 33.1638 39.9254 33.8638 39.9254C33.8638 40.1258 33.6639 40.4263 33.4639 40.6267ZM34.3638 39.0238C33.0638 39.0238 31.6639 38.7232 30.4639 38.2223C28.8639 37.5211 27.4638 36.4191 26.2638 35.2169C26.3638 34.9164 26.4638 34.6158 26.6638 34.3153C28.1638 35.6176 29.6638 36.92 31.5638 37.7214C32.6638 38.2223 33.8638 38.4227 35.0638 38.3225C34.8638 38.623 34.6638 39.0238 34.3638 39.0238ZM35.6638 37.4209C33.5638 37.5211 31.4638 36.8198 29.7638 35.6176C28.7638 34.9164 27.8638 34.1149 27.0638 33.2133C27.0638 32.9128 27.2638 32.6122 27.3638 32.4119C28.9638 34.0147 30.7639 35.5175 32.9639 36.2187C33.9639 36.5193 35.0638 36.7196 36.0638 36.6194C35.9638 37.0202 35.7638 37.2205 35.6638 37.4209ZM36.5638 35.7178C35.4638 35.9182 34.2638 35.7178 33.2638 35.3171C31.2638 34.6158 29.4638 33.2133 28.0638 31.7106C27.6638 31.4101 28.0638 30.9092 28.2638 30.6086C29.6638 32.0111 31.0638 33.3135 32.8638 34.2151C34.2638 34.9164 35.7638 35.2169 37.2638 35.1167C37.0638 35.3171 36.9638 35.7178 36.5638 35.7178Z" fill="white"/>
<path d="M42.3638 68.076C42.3638 65.7719 42.6638 63.5679 42.5638 61.2638C42.5638 60.863 42.7639 60.4623 42.7639 59.9614C42.8639 59.5607 42.6639 59.2602 42.7639 58.8594C43.1639 56.956 42.4638 54.9524 42.6638 53.049C42.6638 52.6482 42.8638 52.2475 42.8638 51.8468C42.7638 51.3459 42.5639 50.9452 42.4639 50.5445C42.0639 48.8414 42.3638 47.0381 42.5638 45.2349C42.6638 44.1329 42.7638 43.1311 42.5638 42.0291C42.4638 41.6284 42.8638 41.3278 42.8638 40.9271C42.8638 40.7268 42.5638 40.5264 42.6638 40.326C43.3638 37.521 43.0638 34.6158 43.8638 31.9109C44.0638 31.8107 44.2639 31.8107 44.4639 31.7105C44.3639 31.5102 44.2638 31.2096 44.0638 31.1094C43.8638 31.0093 43.5638 31.0093 43.3638 30.8089C41.0638 28.9055 38.4639 27.4028 36.4639 25.0986C36.3639 24.8982 36.1638 24.7981 36.1638 24.4975C36.1638 23.9966 36.3638 23.5959 36.3638 23.095C36.3638 22.7945 36.5638 22.4939 36.6638 22.1934C37.2638 20.5905 37.1638 18.6871 38.0638 17.1843C38.2638 16.6834 38.7638 16.3829 39.0638 15.9822C38.9638 15.5815 38.6638 15.4813 38.3638 15.2809C38.1638 15.4813 38.0639 15.6816 37.7639 15.6816C37.3639 15.7818 36.9638 15.6816 36.5638 15.6816C36.1638 15.6816 35.6638 15.6816 35.3638 15.3811C35.0638 15.0806 34.7638 14.6798 34.3638 14.4795C34.0638 14.2791 33.5638 14.3793 33.3638 14.6798C32.3638 16.2827 33.1639 18.4867 31.9639 20.0896C30.5639 19.188 29.2639 18.086 27.9639 17.0842C27.2639 16.5833 26.5638 16.0824 25.8638 15.5815C24.6638 14.6798 23.3639 13.7782 22.7639 12.2755C22.9639 11.5742 23.4639 11.0733 23.7639 10.3721C23.3639 10.3721 23.1638 10.3721 22.8638 10.6726C22.5638 10.9732 22.3639 11.2737 21.9639 11.2737C21.8639 11.1735 21.8639 11.0733 21.7639 10.873C21.4639 10.873 21.0639 10.873 20.7639 10.873C20.6639 11.2737 20.5638 11.5742 20.6638 11.975C20.7638 12.2755 21.0639 12.2755 21.2639 12.3757C21.1639 12.9768 20.8639 13.5778 20.4639 14.0787C20.2639 14.3793 19.9639 14.5797 19.7639 14.78C17.3639 18.1861 13.7638 20.3901 10.8638 23.2954C10.5638 23.5959 10.1638 23.7963 9.86383 23.9966C8.86383 24.7981 8.16386 25.9 7.26385 26.8017C6.96385 27.1022 6.46382 27.4028 6.16382 27.7033C5.36382 28.5047 4.46383 29.3062 3.86383 30.308C3.76383 30.4082 3.76382 30.5084 3.66382 30.6085C3.36382 30.6085 3.06382 30.6085 2.66382 30.7087C2.66382 31.0093 2.66387 31.3098 2.46387 31.6103C2.16387 32.1112 1.66387 32.3116 1.46387 32.8125C1.46387 33.113 1.36384 33.3134 1.56384 33.6139C1.86384 33.8143 2.16387 33.8143 2.46387 34.0147C2.76387 36.3188 3.06383 38.623 2.86383 40.8269C2.66383 41.8287 2.86386 42.9307 2.76385 44.0327C2.56385 45.9361 2.16384 47.7394 2.06384 49.6428C2.06384 49.9434 1.86383 50.1437 1.86383 50.4443C1.56383 54.5517 1.46383 58.7593 1.36383 62.8667C1.36383 63.5679 0.963843 64.2692 1.06384 64.9704C1.06384 66.373 1.56387 67.7755 0.963867 69.0778V69.2782C1.06387 69.3784 1.26387 69.5788 1.46387 69.4786C1.66387 69.4786 1.96382 69.2782 2.16382 69.3784C2.56382 69.5788 2.96383 69.5787 3.36383 69.5787C3.66383 69.5787 3.76384 69.2782 4.06384 69.2782C8.56384 69.8793 13.0638 69.7791 17.5638 69.4786C17.7638 69.4786 17.9638 69.4786 18.1638 69.4786C20.0638 69.9795 22.0638 70.28 24.0638 70.28C24.2638 70.28 24.5639 70.28 24.7639 70.3802H26.4639C27.1639 70.28 27.7639 70.28 28.4639 70.28C30.6639 70.1798 32.8638 69.9795 35.0638 69.6789C35.4638 69.6789 35.9638 69.5787 36.3638 69.6789C38.4638 69.9795 40.6639 70.0797 42.7639 70.0797C42.8639 69.5787 43.1638 69.0778 43.3638 68.6771C43.1638 68.6771 42.9638 68.7773 42.8638 68.7773C42.5638 68.8775 42.2638 68.4768 42.3638 68.076ZM32.6638 20.4903C33.0638 19.0878 33.1639 17.5851 33.7639 16.1825C34.5639 16.0824 35.1639 16.6834 35.7639 16.984C36.1639 17.1843 36.6638 17.0842 37.0638 16.8838C36.8638 17.7854 36.8639 18.7872 36.4639 19.5887C36.3639 19.8892 36.0638 19.9894 36.0638 20.2899C35.8638 21.2917 35.5638 22.2936 35.3638 23.3955C35.2638 23.3955 35.1639 23.3955 34.9639 23.2954C34.8639 23.095 34.7638 22.8946 34.6638 22.7945C34.1638 22.0932 33.0638 21.8928 32.6638 21.0914C32.5638 20.7908 32.6638 20.5905 32.6638 20.4903ZM41.6638 35.317C41.6638 35.7177 41.8638 36.2186 41.6638 36.6194C41.5638 37.1203 41.7639 37.6212 41.4639 38.0219C41.0639 38.623 40.8638 39.4244 41.1638 40.0255C41.0638 40.0255 40.9638 40.0255 40.8638 40.0255C40.9638 41.7286 40.8638 43.5318 40.5638 45.2349C40.4638 45.6356 40.2638 46.0363 40.3638 46.4371C40.5638 47.4389 40.3639 48.4407 40.4639 49.3423C40.5639 49.743 40.6638 50.1437 40.8638 50.5445C40.9638 56.3549 40.8639 62.2656 40.4639 68.076C40.4639 68.4768 39.9639 68.3766 39.7639 68.3766C39.6639 68.4768 39.6638 68.5769 39.5638 68.6771C39.2638 68.5769 39.0639 68.1762 38.7639 68.1762C38.2639 68.1762 37.7639 68.2764 37.2639 68.1762C35.0639 68.2764 32.9639 68.8775 30.7639 68.9777C27.4639 69.0778 24.2639 69.0778 20.9639 68.5769C20.8639 68.4768 20.6639 68.3766 20.4639 68.2764C18.5639 67.8757 16.5638 68.1762 14.5638 68.3766C12.0638 68.9777 9.46383 68.2764 6.86383 68.4768C6.36383 68.076 5.66387 68.1762 4.96387 68.2764C4.76387 68.3766 4.56383 68.1762 4.36383 68.1762C4.06383 68.076 3.76383 68.1762 3.36383 68.2764C3.06383 68.1762 2.76387 68.076 2.46387 68.076C2.56387 58.8594 3.26387 49.743 3.96387 40.5264C3.96387 40.1257 4.06384 39.725 4.06384 39.3242C3.56384 37.0201 3.46387 34.6158 3.96387 32.4118C4.06387 32.2114 4.06385 31.9109 4.26385 31.8107C5.36385 31.0093 5.86387 29.7069 6.96387 28.9055C7.26387 28.6049 7.66383 28.5047 7.86383 28.2042C10.6638 24.3973 14.7638 21.8928 18.0638 18.4867C19.0638 17.4849 21.5639 13.2773 22.2639 13.678C22.8639 13.9786 23.1638 14.5797 23.6638 14.8802C24.7638 15.5815 25.5639 16.7836 26.9639 17.1843C27.1639 17.8856 27.8639 18.086 28.2639 18.5869C28.8639 19.188 29.5639 19.6889 30.2639 20.2899C30.6639 20.7908 31.2638 21.0914 31.6638 21.4921C32.8638 22.4939 33.8638 23.8964 34.5638 25.299C34.6638 25.5995 34.9638 25.6997 35.1638 25.7999C37.5638 27.5029 39.4638 29.7069 41.8638 31.2096C41.5638 32.9127 41.5638 34.1148 41.6638 35.317Z" fill="white"/>
<path d="M45.6639 66.7738C45.5639 66.5735 45.4639 66.4733 45.2639 66.3731C45.0639 66.273 44.9639 66.2729 44.7639 66.2729C44.5639 66.2729 44.3639 66.273 44.2639 66.3731C44.0639 66.4733 43.9639 66.5735 43.8639 66.7738C43.7639 66.9742 43.7639 67.1746 43.7639 67.2747C43.7639 67.4751 43.7639 67.6755 43.8639 67.7757C43.9639 67.976 44.0639 68.0762 44.2639 68.1764C44.4639 68.2766 44.6639 68.2766 44.7639 68.2766C44.8639 68.2766 45.1639 68.2766 45.2639 68.1764C45.4639 68.0762 45.5639 67.976 45.6639 67.7757C45.7639 67.5753 45.7639 67.3749 45.7639 67.2747C45.8639 67.1746 45.7639 66.9742 45.6639 66.7738ZM45.5639 67.7757C45.4639 67.8758 45.3639 68.0762 45.2639 68.0762C45.1639 68.1764 44.9639 68.1764 44.8639 68.1764C44.6639 68.1764 44.5639 68.1764 44.4639 68.0762C44.3639 67.976 44.1639 67.8758 44.1639 67.7757C44.1639 67.6755 44.0639 67.4751 44.0639 67.3749C44.0639 67.1746 44.0639 67.0744 44.1639 66.874C44.2639 66.7739 44.3639 66.5735 44.4639 66.5735C44.5639 66.4733 44.7639 66.4733 44.8639 66.4733C45.0639 66.4733 45.1639 66.4733 45.2639 66.5735C45.3639 66.6737 45.5639 66.7739 45.5639 66.874C45.6639 66.9742 45.6639 67.1746 45.6639 67.3749C45.6639 67.4751 45.6639 67.6755 45.5639 67.7757Z" fill="white"/>
<path d="M44.9639 67.4749C44.8639 67.4749 44.9639 67.4749 44.9639 67.4749C44.9639 67.3748 45.0639 67.3748 45.0639 67.2746C45.0639 67.1744 45.1639 67.1744 45.1639 67.0742C45.1639 66.974 45.1639 66.974 45.0639 66.8739C45.0639 66.7737 44.9639 66.7737 44.9639 66.7737C44.8639 66.7737 44.7639 66.7737 44.6639 66.7737H44.2639V67.9758H44.4639V67.4749H44.5639C44.6639 67.4749 44.6639 67.4749 44.7639 67.4749C44.7639 67.4749 44.8639 67.5751 44.9639 67.7755L45.0639 67.9758H45.2639L45.1639 67.7755C45.0639 67.5751 44.9639 67.5751 44.9639 67.4749ZM44.6639 67.2746H44.4639V66.8739H44.6639C44.7639 66.8739 44.8639 66.8739 44.8639 66.8739C44.8639 66.8739 44.9639 66.8739 44.9639 66.974V67.0742C44.9639 67.1744 44.9639 67.1744 44.8639 67.1744C44.8639 67.2746 44.8639 67.2746 44.6639 67.2746Z" fill="white"/>
<path d="M23.864 49.4426C23.164 49.8434 22.764 50.5446 22.264 51.1457C22.364 50.3443 22.564 49.5428 22.464 48.7414C22.364 48.0401 21.564 48.6412 21.264 48.8416C20.264 49.643 19.664 50.8452 19.064 51.9472C19.264 52.0473 19.4639 52.2477 19.6639 52.3479C20.2639 51.2459 20.8639 50.1439 21.6639 49.2423C21.7639 49.0419 21.9639 48.9417 22.1639 48.8416C22.1639 50.2441 21.564 51.5464 20.964 52.8488C20.964 53.1493 21.3639 53.3497 21.6639 53.4499C21.8639 53.55 21.864 53.3497 21.964 53.2495C22.364 52.3479 22.764 51.4462 23.364 50.745C23.564 50.4444 23.864 50.0437 24.264 49.8434C24.364 51.4463 23.6639 52.8488 23.1639 54.3515C23.1639 54.4517 23.064 54.5518 23.064 54.7522C23.264 54.9526 23.4639 55.0527 23.6639 55.1529C24.264 53.4499 24.764 51.6466 24.564 49.8434C24.464 49.643 24.264 49.3425 23.864 49.4426Z" fill="white"/>
</svg>
