<svg width="141" height="32" viewBox="0 0 141 32" fill="none" xmlns="http://www.w3.org/2000/svg">
<path d="M92.7147 8.86683H84.0929L82.8617 14.4493H90.7981L89.9328 18.7912H81.9964L80.0797 27.7852H75.4246L80.3992 4.5249H93.6265L92.7147 8.86683Z" fill="#F38632"/>
<path d="M100.746 9.02832C94.9095 9.02832 92.8564 13.6804 91.8546 18.3324C90.8963 22.8511 91.5817 28.139 97.8744 28.139C103.714 28.139 105.724 23.5334 106.726 18.7914C107.681 14.3193 107.039 9.02832 100.746 9.02832ZM102.387 18.7418C101.658 22.2092 100.334 23.9397 97.9643 23.8529C95.5018 23.7598 95.6383 20.888 96.1841 18.379C96.9161 15.0047 98.1907 13.2245 100.566 13.3175C103.165 13.4044 102.889 16.3259 102.387 18.7418Z" fill="#F38632"/>
<path d="M118.082 13.4508C114.479 13.6772 113.613 16.1955 113.201 18.2052L111.148 27.7854H106.635L110.558 9.17711H112.745L112.974 11.7233C114.159 9.98967 115.803 8.82666 119.087 8.82666L118.082 13.4508Z" fill="#F38632"/>
<path d="M137.752 27.7851H133.233L135.696 16.2387C135.925 15.1036 136.381 13.2056 134.647 13.2056C133.097 13.2056 132.411 14.5454 131.955 16.6884L129.586 27.7851H125.024L127.486 16.2387C127.762 15.0571 128.175 13.2056 126.488 13.2056C124.89 13.2056 124.205 14.5454 123.752 16.6884L121.377 27.7851H116.858L120.781 9.17689H123.014L123.2 11.6797C124.261 10.0111 126.092 8.98968 128.069 8.96289C129.71 8.96289 131.214 9.84058 131.624 11.5246C132.904 9.70102 134.499 8.9784 136.325 8.9784C140.385 8.9784 141.021 12.4519 140.065 17.0141L137.752 27.7851Z" fill="#F38632"/>
<path d="M46.3432 21.2723C45.4314 25.7848 44.0637 28.4303 36.4436 27.8813L37.312 23.7751C40.3668 23.8185 41.2786 23.1362 41.6911 21.0893L45.2453 4.5249H49.8974L46.3432 21.2723Z" fill="#F38632"/>
<path d="M58.2914 9.02832C52.4546 9.02832 50.4015 13.6804 49.3967 18.3324C48.4414 22.8511 49.1206 28.139 55.4195 28.139C61.2563 28.139 63.2629 23.5334 64.2708 18.7914C65.2168 14.3193 64.5779 9.02832 58.2914 9.02832ZM59.9351 18.7418C59.2032 22.2092 57.882 23.9397 55.5095 23.8529C53.047 23.7598 53.1834 20.888 53.7324 18.379C54.4581 15.0047 55.7359 13.2245 58.1115 13.3175C60.7043 13.4044 60.4282 16.3259 59.9289 18.7418H59.9351Z" fill="#F38632"/>
<path d="M76.1254 13.2087H72.5248L70.6949 21.812C70.2825 23.6387 70.6949 23.924 73.8366 23.9829L72.9745 28.0519C66.5856 28.3248 65.1714 26.1508 66.1793 21.4119L67.9037 13.2087H65.8041L66.3065 10.6873L68.7876 9.22348L69.7862 4.5249H74.3018L73.297 9.17696H76.9938L76.1254 13.2087Z" fill="#F38632"/>
<path d="M16.604 32C25.4405 32 32.604 24.8365 32.604 16C32.604 7.16344 25.4405 0 16.604 0C7.76744 0 0.604004 7.16344 0.604004 16C0.604004 24.8365 7.76744 32 16.604 32Z" fill="#ECECEC"/>
<path opacity="0.05" d="M29.6993 18.636L31.6439 10.5445C30.1955 6.56778 27.2349 3.32411 23.4066 1.51953L20.4851 17.2776L9.59619 26.1165L29.6993 18.636Z" fill="black"/>
<path d="M16.6056 1.46492e-05C15.1483 0.000248638 13.6979 0.199545 12.2947 0.592392L10.8618 5.88644L13.8453 6.30822L16.9219 7.36579L19.7131 8.75831L21.9275 0.90563C20.2178 0.303805 18.4181 -0.00244081 16.6056 1.46492e-05Z" fill="#F38632"/>
<path d="M12.5991 21.1669L9.6001 26.1167L9.95986 20.3047L10.8375 20.3419L11.9075 20.6365L12.5991 21.1669Z" fill="#4E4E4E"/>
<path d="M12.5987 21.1667L11.9071 20.6364L10.8372 20.3417L9.95947 20.3045L10.8558 5.88623L13.8393 6.31112L16.9159 7.36869L19.6947 8.7612L12.5987 21.1667Z" fill="url(#paint0_linear_1_1419)"/>
<path d="M12.2898 0.5957L10.8569 5.88974L13.8405 6.31153L15.6548 0.03125C14.5161 0.0985915 13.388 0.287823 12.2898 0.5957Z" fill="#F6A259"/>
<g style="mix-blend-mode:multiply" opacity="0.2">
<path d="M21.9086 0.905725C20.986 0.577775 20.035 0.335871 19.0678 0.183105L16.9154 7.35968L9.59619 26.1168L12.5921 21.1546L19.6881 8.7491L21.9086 0.905725Z" fill="#1A1A1A"/>
</g>
<path opacity="0.15" d="M9.6001 26.0421L13.8397 6.31112L10.8562 5.88623L9.6001 26.0421Z" fill="white"/>
<defs>
<linearGradient id="paint0_linear_1_1419" x1="12.8605" y1="13.3142" x2="16.6087" y2="13.7571" gradientUnits="userSpaceOnUse">
<stop stop-color="#F1CEBA"/>
<stop offset="1" stop-color="#B8846F"/>
</linearGradient>
</defs>
</svg>
