<svg width="650" height="509" viewBox="0 0 650 509" fill="none" xmlns="http://www.w3.org/2000/svg">
<path d="M601.006 119.917C510.657 -2.8878 358.153 -41.2331 176.702 54.3794C-4.74893 149.867 -41.7159 348.36 44.9996 454.749C131.84 561.389 207.779 399.988 437.475 440.589C667.045 481.315 691.23 242.722 601.006 119.917Z" fill="#DAE6FF"/>
<g filter="url(#filter0_d_1_626)">
<path d="M242.451 110.36C263.363 110.36 280.317 93.4065 280.317 72.4937C280.317 51.5809 263.363 34.6277 242.451 34.6277C221.538 34.6277 204.585 51.5809 204.585 72.4937C204.585 93.4065 221.538 110.36 242.451 110.36Z" fill="url(#paint0_linear_1_626)"/>
<path d="M232.479 57.0492L257.07 57.3692C258.7 57.4166 260.042 58.7102 259.996 60.4173L259.676 85.0087C259.629 86.6383 258.335 87.9807 256.628 87.9348L232.037 87.6148C230.407 87.5674 229.065 86.2738 229.111 84.5667L229.431 59.9753C229.478 58.3457 230.851 57.0794 232.479 57.0492Z" fill="url(#paint1_linear_1_626)"/>
<path d="M248.146 61.2572L254.585 61.3706C255.36 61.3563 255.994 62.0425 256.008 62.8178L255.892 73.2902C255.906 74.0655 255.22 74.6986 254.444 74.713L248.005 74.5996C247.23 74.614 246.597 73.9277 246.582 73.1524L246.699 62.6801C246.684 61.9048 247.37 61.2716 248.146 61.2572Z" fill="white"/>
<path d="M234.881 61.1152L241.32 61.2286C242.096 61.2142 242.729 61.9005 242.743 62.6758L242.536 80.8279C242.551 81.6032 241.865 82.2364 241.089 82.2507L234.65 82.1374C233.875 82.1517 233.241 81.4655 233.227 80.6901L233.434 62.538C233.418 61.6852 234.104 61.052 234.881 61.1152Z" fill="white"/>
</g>
<g filter="url(#filter1_d_1_626)">
<path d="M365.207 118.187C386.12 118.187 403.073 101.234 403.073 80.3212C403.073 59.4084 386.12 42.4552 365.207 42.4552C344.294 42.4552 327.341 59.4084 327.341 80.3212C327.341 101.234 344.294 118.187 365.207 118.187Z" fill="url(#paint2_linear_1_626)"/>
<path d="M363.786 66.1254L350.139 71.786C349.984 71.8636 349.828 71.9411 349.751 72.0962C349.673 72.2513 349.596 72.4064 349.596 72.639C349.596 72.8716 349.673 73.0267 349.751 73.1818C349.828 73.3369 349.984 73.4145 350.139 73.492L363.864 78.92C365.105 79.3853 366.423 79.3853 367.586 78.92L381.311 73.492C381.466 73.4145 381.621 73.3369 381.699 73.1818C381.776 73.0267 381.854 72.8716 381.854 72.639C381.854 72.4839 381.776 72.2513 381.699 72.0962C381.621 71.9411 381.466 71.8636 381.311 71.786L367.663 66.1254C366.423 65.5826 365.027 65.5826 363.786 66.1254Z" fill="#FFCC00"/>
<path d="M366.966 81.8667V95.4368C366.966 95.5919 366.966 95.747 367.043 95.9021C367.121 96.0572 367.198 96.1347 367.353 96.2123C367.508 96.2898 367.586 96.3673 367.741 96.3673C367.896 96.3673 368.051 96.3673 368.206 96.2898L383.482 90.3965C383.637 90.3189 383.793 90.2414 383.87 90.0863C383.948 89.9312 384.025 89.7761 384.025 89.5435V75.8959C384.025 75.7408 384.025 75.5857 383.948 75.4306C383.87 75.2755 383.793 75.198 383.637 75.1204C383.482 75.0429 383.405 74.9653 383.25 74.9653C383.095 74.9653 382.94 74.9653 382.784 75.0429L367.508 80.9362C367.353 81.0137 367.198 81.0913 367.121 81.2464C366.966 81.479 366.888 81.6341 366.966 81.8667Z" fill="#31C2F2"/>
<path d="M363.399 82.5646L358.436 84.9684L348.898 89.5435C348.743 89.621 348.588 89.621 348.433 89.621C348.278 89.621 348.123 89.5435 347.967 89.4659C347.812 89.3884 347.735 89.2333 347.657 89.1558C347.58 89.0007 347.502 88.8456 347.502 88.6905V75.9734C347.502 75.8183 347.502 75.7407 347.58 75.6632C347.657 75.5857 347.735 75.4306 347.812 75.353C347.89 75.2755 347.967 75.1979 348.045 75.1979C348.2 75.1204 348.278 75.1204 348.433 75.0428C348.588 75.0428 348.743 75.0428 348.82 75.1204L363.321 80.8586C363.476 80.9362 363.631 81.0137 363.709 81.1688C363.786 81.3239 363.864 81.479 363.864 81.634C363.864 81.7891 363.864 82.0218 363.709 82.1768C363.709 82.3319 363.554 82.487 363.399 82.5646Z" fill="#ED3049"/>
<path d="M363.399 82.5646L358.901 84.7358L347.735 75.353C347.812 75.2755 347.89 75.1979 347.967 75.1979C348.123 75.1204 348.2 75.1204 348.355 75.0428C348.51 75.0428 348.665 75.0428 348.743 75.1204L363.244 80.8586C363.399 80.9362 363.554 81.0137 363.631 81.1688C363.709 81.3239 363.786 81.479 363.786 81.634C363.786 81.7891 363.786 82.0218 363.631 82.1768C363.631 82.3319 363.554 82.487 363.399 82.5646Z" fill="#C62842"/>
</g>
<g filter="url(#filter2_d_1_626)">
<path d="M485.222 116.229C506.135 116.229 523.088 99.276 523.088 78.3632C523.088 57.4504 506.135 40.4972 485.222 40.4972C464.309 40.4972 447.356 57.4504 447.356 78.3632C447.356 99.276 464.309 116.229 485.222 116.229Z" fill="url(#paint3_linear_1_626)"/>
<path d="M504.466 86.5441C504.931 87.242 504.853 88.0949 504.233 88.5602C503.535 89.0255 502.605 88.9479 502.062 88.3276L498.65 83.9076L495.315 88.1725C494.85 88.8704 493.842 88.8704 493.144 88.4051C492.446 87.9398 492.369 87.0093 492.834 86.389L496.711 81.3486L492.834 76.3083C492.369 75.6104 492.524 74.6799 493.144 74.1371C493.842 73.6718 494.773 73.8269 495.315 74.4473L498.65 78.8673L502.062 74.6799C502.527 73.982 503.457 73.9045 504.233 74.3697C504.931 74.835 504.931 75.8431 504.466 76.541L500.666 81.5037L504.466 86.5441ZM486.708 85.9237C484.149 85.9237 482.133 83.9851 482.133 81.4262C482.133 79.0223 484.149 76.9287 486.708 76.9287C489.267 76.9287 491.283 78.9448 491.283 81.4262C491.206 83.9851 489.19 85.9237 486.708 85.9237ZM473.293 85.9237C470.734 85.9237 468.718 83.9851 468.718 81.4262C468.718 79.0223 470.734 76.9287 473.293 76.9287C475.852 76.9287 477.868 78.9448 477.868 81.4262C477.868 83.9851 475.774 85.9237 473.293 85.9237ZM486.708 74.0596C483.917 74.0596 481.358 75.6104 480.117 77.9367C478.876 75.6104 476.317 74.0596 473.371 74.0596C471.587 74.0596 470.036 74.6799 468.796 75.5329V69.3294C468.796 68.554 468.098 67.8561 467.322 67.8561C466.469 67.8561 465.771 68.554 465.771 69.3294V81.5813C465.849 85.6911 469.183 88.8704 473.293 88.8704C476.24 88.8704 478.721 87.242 480.039 84.8381C481.28 87.1644 483.839 88.8704 486.631 88.8704C490.818 88.8704 494.23 85.536 494.23 81.3486C494.307 77.3939 490.895 74.0596 486.708 74.0596Z" fill="#0071F7"/>
</g>
<g filter="url(#filter3_d_1_626)">
<path d="M179.72 209.991C200.633 209.991 217.586 193.037 217.586 172.125C217.586 151.212 200.633 134.259 179.72 134.259C158.807 134.259 141.854 151.212 141.854 172.125C141.854 193.037 158.807 209.991 179.72 209.991Z" fill="url(#paint4_linear_1_626)"/>
<path d="M180.625 162.872L170.933 168.998L180.625 175.124L170.933 181.25L161.24 175.124L170.933 168.998L161.24 162.872L170.933 156.746L180.625 162.872ZM170.933 183.344L180.625 177.218L190.318 183.344L180.625 189.469L170.933 183.344ZM180.625 175.201L190.318 169.076L180.625 162.95L190.318 156.824L200.011 162.95L190.318 169.076L200.011 175.201L190.318 181.327L180.625 175.201Z" fill="#0061FF"/>
</g>
<g filter="url(#filter4_d_1_626)">
<path d="M568.24 216.104C589.153 216.104 606.106 199.151 606.106 178.238C606.106 157.325 589.153 140.372 568.24 140.372C547.327 140.372 530.374 157.325 530.374 178.238C530.374 199.151 547.327 216.104 568.24 216.104Z" fill="url(#paint5_linear_1_626)"/>
<path fill-rule="evenodd" clip-rule="evenodd" d="M563.873 160.533C561.857 160.533 560.228 162.162 560.228 164.178C560.228 166.194 561.857 167.822 563.873 167.822H567.517V164.178C567.517 162.162 565.889 160.533 563.873 160.533ZM563.873 170.304H554.18C552.164 170.304 550.535 171.932 550.535 173.948C550.535 175.964 552.164 177.593 554.18 177.593H563.873C565.889 177.593 567.517 175.964 567.517 173.948C567.517 171.932 565.889 170.304 563.873 170.304Z" fill="#36C5F0"/>
<path fill-rule="evenodd" clip-rule="evenodd" d="M586.981 173.948C586.981 171.932 585.352 170.304 583.336 170.304C581.32 170.304 579.691 171.932 579.691 173.948V177.593H583.336C585.352 177.593 586.981 175.964 586.981 173.948ZM577.288 173.948V164.178C577.288 162.162 575.659 160.533 573.643 160.533C571.627 160.533 569.999 162.162 569.999 164.178V173.948C569.999 175.964 571.627 177.593 573.643 177.593C575.659 177.593 577.288 175.964 577.288 173.948Z" fill="#2EB67D"/>
<path fill-rule="evenodd" clip-rule="evenodd" d="M573.643 197.056C575.659 197.056 577.288 195.428 577.288 193.412C577.288 191.395 575.659 189.767 573.643 189.767H569.999V193.412C569.999 195.428 571.627 197.056 573.643 197.056ZM573.643 187.363H583.336C585.352 187.363 586.981 185.735 586.981 183.719C586.981 181.703 585.352 180.074 583.336 180.074H573.643C571.627 180.074 569.999 181.703 569.999 183.719C569.999 185.735 571.627 187.363 573.643 187.363Z" fill="#ECB22E"/>
<path fill-rule="evenodd" clip-rule="evenodd" d="M550.535 183.719C550.535 185.735 552.163 187.363 554.18 187.363C556.196 187.363 557.824 185.735 557.824 183.719V180.074H554.18C552.163 180.074 550.535 181.703 550.535 183.719ZM560.228 183.719V193.489C560.228 195.505 561.856 197.134 563.873 197.134C565.889 197.134 567.517 195.505 567.517 193.489V183.719C567.517 181.703 565.889 180.074 563.873 180.074C561.856 180.074 560.228 181.703 560.228 183.719Z" fill="#E01E5A"/>
</g>
<path d="M231.405 140.372H504.79V478.039H231.405V140.372Z" fill="#398EAE"/>
<path d="M490.77 152.376H244.672C241.527 152.376 238.933 154.821 238.933 157.785V460.626C238.933 463.59 241.527 466.035 244.672 466.035H490.848C493.993 466.035 496.588 463.59 496.588 460.626V157.785C496.509 154.821 493.993 152.376 490.77 152.376Z" fill="white"/>
<path d="M231.405 127.634H504.758V140.372H231.405V127.634Z" fill="#C4C4C4"/>
<rect x="244.553" y="132.13" width="4.44477" height="4.49578" fill="white"/>
<rect x="253.443" y="132.13" width="4.44477" height="4.49578" fill="white"/>
<rect x="262.333" y="132.13" width="4.44477" height="4.49578" fill="white"/>
<rect x="314.929" y="132.13" width="119.268" height="4.49578" fill="white"/>
<path d="M496.588 159.349H238.933V188.09H496.588V159.349Z" fill="#FFDC9B" fill-opacity="0.45"/>
<path d="M339.069 234.697H276.604V250.776H339.069V234.697Z" fill="#C0C0C0"/>
<path d="M338.625 235.141H277.049V250.331H338.625V235.141V235.141Z" stroke="white" stroke-width="1.06126"/>
<path d="M339.069 249.887H276.604V268.634H339.069V249.887Z" fill="#E9E9E9"/>
<path d="M338.625 250.331H277.049V268.189H338.625V250.331V250.331Z" stroke="white" stroke-width="1.06126"/>
<path d="M400.719 249.887H338.254V268.634H400.719V249.887Z" fill="#E9E9E9"/>
<path d="M400.275 250.331H338.699V268.189H400.275V250.331Z" stroke="white" stroke-width="1.06126"/>
<path d="M462.295 249.887H399.83V268.634H462.295V249.887Z" fill="#E9E9E9"/>
<path d="M461.851 250.331H400.275V268.189H461.851V250.331Z" stroke="white" stroke-width="1.06126"/>
<path d="M400.719 234.697H338.254V250.776H400.719V234.697Z" fill="#C0C0C0"/>
<path d="M400.275 235.141H338.699V250.331H400.275V235.141Z" stroke="white" stroke-width="1.06126"/>
<path d="M462.295 234.697H399.83V250.776H462.295V234.697Z" fill="#C0C0C0"/>
<path d="M461.851 235.141H400.275V250.331H461.851V235.141Z" stroke="white" stroke-width="1.06126"/>
<path d="M308.318 264.188C311.06 264.188 313.209 261.965 313.209 259.297C313.209 256.556 310.986 254.407 308.318 254.407C305.577 254.407 303.428 256.63 303.428 259.297C303.428 261.965 305.577 264.188 308.318 264.188Z" fill="white"/>
<path d="M369.894 264.188C372.636 264.188 374.785 261.965 374.785 259.297C374.785 256.556 372.562 254.407 369.894 254.407C367.153 254.407 365.004 256.63 365.004 259.297C365.004 261.965 367.153 264.188 369.894 264.188Z" fill="white"/>
<path d="M431.47 264.188C434.212 264.188 436.36 261.965 436.36 259.297C436.36 256.556 434.138 254.407 431.47 254.407C428.728 254.407 426.579 256.63 426.579 259.297C426.579 261.965 428.802 264.188 431.47 264.188Z" fill="white"/>
<path d="M462.295 299.903H276.604V340.065H462.221V299.903H462.295Z" fill="#F5F5F5"/>
<path d="M461.851 300.422H277.049V339.62H461.851V300.422Z" stroke="#DBDBDB" stroke-width="1.06126"/>
<path d="M295.277 386.895C298.019 386.895 300.168 384.672 300.168 382.005C300.168 379.337 297.945 377.114 295.277 377.114C292.535 377.114 290.387 379.337 290.387 382.005C290.387 384.672 292.535 386.895 295.277 386.895Z" fill="white"/>
<path d="M295.277 386.45C297.722 386.45 299.723 384.45 299.723 382.005C299.723 379.559 297.722 377.559 295.277 377.559C292.832 377.559 290.831 379.559 290.831 382.005C290.757 384.45 292.758 386.45 295.277 386.45Z" stroke="#09224C" stroke-width="1.06126"/>
<path d="M295.277 401.122C298.019 401.122 300.168 398.899 300.168 396.231C300.168 393.564 297.945 391.341 295.277 391.341C292.535 391.341 290.387 393.564 290.387 396.231C290.387 398.899 292.535 401.122 295.277 401.122Z" fill="white"/>
<path d="M295.277 400.677C297.722 400.677 299.723 398.677 299.723 396.231C299.723 393.786 297.722 391.785 295.277 391.785C292.832 391.785 290.831 393.786 290.831 396.231C290.757 398.677 292.758 400.677 295.277 400.677Z" stroke="#09224C" stroke-width="1.06126"/>
<path d="M295.277 430.243C298.019 430.243 300.168 428.02 300.168 425.352C300.168 422.61 297.945 420.462 295.277 420.462C292.536 420.462 290.387 422.685 290.387 425.352C290.313 428.094 292.536 430.243 295.277 430.243Z" fill="white"/>
<path d="M295.277 429.798C297.722 429.798 299.723 427.797 299.723 425.352C299.723 422.907 297.722 420.906 295.277 420.906C292.832 420.906 290.831 422.907 290.831 425.352C290.757 427.797 292.758 429.798 295.277 429.798Z" stroke="#09224C" stroke-width="1.06126"/>
<path d="M295.277 415.423C298.019 415.423 300.168 413.2 300.168 410.532C300.168 407.791 297.945 405.642 295.277 405.642C292.536 405.642 290.387 407.865 290.387 410.532C290.313 413.2 292.536 415.423 295.277 415.423Z" fill="white"/>
<path d="M295.277 414.978C297.722 414.978 299.723 412.978 299.723 410.532C299.723 408.087 297.722 406.086 295.277 406.086C292.832 406.086 290.831 408.087 290.831 410.532C290.757 412.978 292.758 414.978 295.277 414.978Z" stroke="#09224C" stroke-width="1.06126"/>
<path d="M363.967 197.944H276.753V207.206H363.967V197.944Z" fill="#FFDC9B"/>
<path d="M339.588 217.728H276.753V226.99H339.588V217.728Z" fill="#FFDC9B"/>
<path d="M324.917 239.661H290.312V245.811H324.917V239.661Z" fill="#E1E1E1"/>
<path d="M387.678 239.661H353.074V245.811H387.678V239.661Z" fill="#E1E1E1"/>
<path d="M448.365 239.661H413.761V245.811H448.365V239.661Z" fill="#E1E1E1"/>
<path d="M318.989 282.416H276.753V291.678H318.989V282.416Z" fill="#FFDC9B"/>
<path d="M388.715 282.416H322.693V291.678H388.715V282.416Z" fill="#FFDC9B"/>
<path d="M334.92 353.032H277.049V362.294H334.92V353.032Z" fill="#FFDC9B"/>
<path d="M376.934 353.032H340.033V362.294H376.934V353.032Z" fill="#FFDC9B"/>
<path d="M342.997 377.114H306.095V386.376H342.997V377.114Z" fill="#FFDC9B"/>
<path d="M361.521 391.415H306.021V400.677H361.521V391.415Z" fill="#FFDC9B"/>
<path d="M361.521 420.462H306.021V429.724H361.521V420.462Z" fill="#FFDC9B"/>
<path d="M338.254 405.049H306.021V414.311H338.254V405.049Z" fill="#FFDC9B"/>
<path d="M424.653 282.416H393.606V291.678H424.653V282.416Z" fill="#FFDC9B"/>
<path d="M388.789 217.728H345.145V226.99H388.789V217.728Z" fill="#FFDC9B"/>
<path d="M424.653 197.944H369.598V207.206H424.653V197.944Z" fill="#FFDC9B"/>
<path d="M325.607 179.223L325.607 167.688L323.346 167.688L323.346 172.325L318.318 172.325L318.318 167.688L316.073 167.688L316.073 179.223L318.318 179.223L318.318 174.44L323.346 174.44L323.346 179.223L325.607 179.223ZM329.612 174.31C329.66 173.578 330.279 172.732 331.401 172.732C332.638 172.732 333.158 173.513 333.191 174.31L329.612 174.31ZM333.402 176.392C333.142 177.108 332.589 177.613 331.58 177.613C330.506 177.613 329.612 176.848 329.563 175.79L335.29 175.79C335.29 175.758 335.322 175.432 335.322 175.123C335.322 172.553 333.842 170.974 331.369 170.974C329.319 170.974 327.431 172.634 327.431 175.188C327.431 177.889 329.367 179.467 331.564 179.467C333.533 179.467 334.802 178.312 335.208 176.929L333.402 176.392ZM336.538 177.043C336.538 178.296 337.58 179.451 339.288 179.451C340.476 179.451 341.24 178.898 341.647 178.263C341.647 178.573 341.68 179.012 341.729 179.223L343.714 179.223C343.665 178.947 343.616 178.377 343.616 177.954L343.616 174.017C343.616 172.406 342.672 170.974 340.134 170.974C337.986 170.974 336.831 172.357 336.701 173.61L338.621 174.017C338.686 173.317 339.207 172.715 340.15 172.715C341.061 172.715 341.501 173.187 341.501 173.757C341.501 174.033 341.354 174.261 340.899 174.326L338.93 174.619C337.596 174.814 336.538 175.611 336.538 177.043ZM339.744 177.84C339.044 177.84 338.702 177.385 338.702 176.913C338.702 176.295 339.142 175.986 339.695 175.904L341.501 175.628L341.501 175.986C341.501 177.401 340.655 177.84 339.744 177.84ZM347.961 179.223L347.961 167.444L345.797 167.444L345.797 179.223L347.961 179.223ZM352.946 168.827L350.994 168.827L350.994 169.949C350.994 170.665 350.603 171.218 349.757 171.218L349.35 171.218L349.35 173.138L350.798 173.138L350.798 176.864C350.798 178.41 351.775 179.337 353.337 179.337C353.971 179.337 354.362 179.223 354.557 179.142L354.557 177.352C354.443 177.385 354.15 177.417 353.89 177.417C353.272 177.417 352.946 177.19 352.946 176.49L352.946 173.138L354.557 173.138L354.557 171.218L352.946 171.218L352.946 168.827ZM358.162 174.521C358.211 173.643 358.747 172.959 359.659 172.959C360.7 172.959 361.139 173.659 361.139 174.554L361.139 179.223L363.303 179.223L363.303 174.18C363.303 172.422 362.359 171.007 360.326 171.007C359.561 171.007 358.682 171.267 358.162 171.886L358.162 167.444L355.998 167.444L355.998 179.223L358.162 179.223L358.162 174.521ZM377.443 170.437C377.183 169.136 376.109 167.444 373.31 167.444C371.13 167.444 369.291 169.006 369.291 171.056C369.291 172.797 370.479 173.984 372.318 174.359L373.929 174.684C374.823 174.863 375.328 175.384 375.328 176.051C375.328 176.864 374.661 177.466 373.457 177.466C371.83 177.466 371.032 176.441 370.935 175.302L368.852 175.855C369.031 177.499 370.382 179.467 373.44 179.467C376.125 179.467 377.606 177.678 377.606 175.904C377.606 174.277 376.483 172.911 374.384 172.504L372.773 172.195C371.927 172.032 371.521 171.528 371.521 170.893C371.521 170.128 372.236 169.429 373.327 169.429C374.791 169.429 375.311 170.421 375.425 171.056L377.443 170.437ZM384.371 179.223L386.437 179.223C386.405 178.947 386.356 178.394 386.356 177.775L386.356 171.218L384.192 171.218L384.192 175.872C384.192 176.799 383.639 177.45 382.679 177.45C381.67 177.45 381.215 176.734 381.215 175.839L381.215 171.218L379.051 171.218L379.051 176.278C379.051 178.019 380.157 179.435 382.093 179.435C382.939 179.435 383.867 179.109 384.306 178.361C384.306 178.686 384.339 179.061 384.371 179.223ZM393.546 171.186C393.384 171.17 393.221 171.153 393.042 171.153C392.359 171.153 391.252 171.349 390.764 172.406L390.764 171.218L388.665 171.218L388.665 179.223L390.829 179.223L390.829 175.563C390.829 173.838 391.789 173.301 392.896 173.301C393.091 173.301 393.302 173.317 393.546 173.366L393.546 171.186ZM402.856 171.218L400.579 171.218L398.675 176.588L396.69 171.218L394.314 171.218L397.585 179.223L399.749 179.223L402.856 171.218ZM405.513 174.31C405.562 173.578 406.18 172.732 407.303 172.732C408.539 172.732 409.06 173.513 409.092 174.31L405.513 174.31ZM409.304 176.392C409.044 177.108 408.49 177.613 407.482 177.613C406.408 177.613 405.513 176.848 405.464 175.79L411.191 175.79C411.191 175.758 411.224 175.432 411.224 175.123C411.224 172.553 409.743 170.974 407.27 170.974C405.22 170.974 403.333 172.634 403.333 175.188C403.333 177.889 405.269 179.467 407.465 179.467C409.434 179.467 410.703 178.312 411.11 176.929L409.304 176.392ZM415.583 182.38L420.61 171.218L418.3 171.218L416.331 175.904L414.2 171.218L411.775 171.218L415.176 178.215L413.288 182.38L415.583 182.38Z" fill="#5C2EC7"/>
<path d="M320.011 476.183L242.45 459.009C242.45 459.009 214.413 422.984 187.495 391.912C179.587 399.74 175.194 411.801 167.206 419.549L226.395 485.049C228.552 487.445 231.587 488.803 234.782 488.803L316.976 489.043L345.093 491.279V473.307L320.011 476.183Z" fill="#FAB99A"/>
<path d="M174.555 380.969C188.134 377.374 242.451 458.929 242.451 458.929C242.451 458.929 235.102 462.364 222.002 480.176L201.074 457.012C201.074 457.012 159.458 417.712 151.55 404.053C143.642 390.554 160.975 384.643 174.555 380.969Z" fill="#FAB99A"/>
<path d="M198.198 284.956C190.45 269.22 172.797 264.268 155.224 264.188C149.473 264.188 144.281 264.907 139.488 266.344C132.299 269.54 118.081 289.828 113.528 323.137C111.851 335.279 116.883 333.521 137.332 350.376C155.703 365.472 179.347 355.248 190.53 348.538C204.748 339.991 205.467 341.509 207.065 330.167C206.745 316.907 199.396 287.272 198.198 284.956Z" fill="#0E2127"/>
<path d="M147.955 371.144C147.955 371.144 125.749 367.39 113.129 377.853C100.588 388.397 110.493 480.097 110.493 495.593C110.493 511.089 124.711 503.82 124.711 503.82C124.711 503.82 171.2 503.181 200.195 503.82C200.195 503.82 202.352 457.651 201.793 446.548C201.234 435.445 197.639 402.376 185.418 384.963C182.063 380.09 147.955 371.144 147.955 371.144Z" fill="#F38632"/>
<path d="M148.514 338.074C148.514 338.074 148.434 338.793 148.275 339.991C147.556 345.743 144.68 364.594 142.044 369.626C138.849 375.697 154.585 389.276 170.321 388.078C175.034 387.678 167.365 377.214 167.605 375.297C168.084 371.703 168.723 366.83 169.442 361.798C169.842 359.002 170.241 356.127 170.56 353.411C171.599 345.743 172.398 339.432 172.398 339.432L148.514 338.074Z" fill="#FFBD9E"/>
<path d="M148.195 341.429C148.435 339.992 148.594 339.193 148.594 339.193L173.676 338.634C173.676 338.634 172.238 346.062 170.401 355.088C169.762 358.283 169.123 361.638 168.484 364.913C164.65 364.354 160.576 362.437 156.502 358.922C152.109 355.088 149.154 350.455 147.476 345.503C147.716 343.826 147.955 342.468 148.195 341.429Z" fill="#D69E78"/>
<path d="M270.887 476.183L193.326 459.009C193.326 459.009 165.289 422.984 138.37 391.912C130.462 399.74 126.069 411.801 118.081 419.549L177.27 485.049C179.427 487.445 182.462 488.803 185.657 488.803L267.851 489.043L295.968 491.279V473.307L270.887 476.183Z" fill="#FFBD9E"/>
<path d="M430.242 387.838H302.359C299.004 387.838 295.888 389.915 294.61 393.03L255.231 489.123H184.699C182.702 489.123 181.104 490.72 181.104 492.717C181.104 494.714 182.702 496.312 184.699 496.312H385.431C390.943 496.312 395.975 493.037 398.212 488.005L437.911 399.66C440.307 394.148 436.313 387.838 430.242 387.838Z" fill="#C1C1C1"/>
<path d="M361.388 443.832C360.509 448.146 356.755 451.021 353.001 450.302C349.247 449.583 346.85 445.43 347.729 441.116C348.608 436.803 352.362 433.928 356.116 434.646C359.87 435.365 362.267 439.519 361.388 443.832Z" fill="white"/>
<path d="M380.159 496.392L184.22 496.232C182.223 496.232 180.625 494.634 180.625 492.637C180.625 490.64 182.223 489.043 184.22 489.043L397.812 489.123L395.176 492.478C391.422 495.193 388.946 496.791 380.159 496.392Z" fill="#919090"/>
<path d="M168.883 278.166C168.883 278.166 155.384 276.649 146.917 287.272C139.967 296.059 135.974 321.939 142.524 337.196C144.281 341.27 152.588 349.098 156.662 351.893C164.17 356.926 168.084 358.044 172.478 355.568C186.696 347.5 190.849 338.154 192.527 322.978C193.326 315.549 198.917 310.037 198.278 302.769C197 289.11 189.012 277.687 168.883 278.166Z" fill="#FFBD9E"/>
<path d="M189.412 278.246C189.412 278.246 193.645 303.567 152.668 311.156C150.511 311.555 145.319 324.575 146.278 318.345C148.674 302.928 124.871 328.17 124.871 328.17C124.871 328.17 123.273 284.636 142.284 279.125C161.295 273.533 189.412 278.246 189.412 278.246Z" fill="#0E2127"/>
<path d="M147.077 308.28C148.115 313.872 146.038 318.984 142.364 319.703C138.69 320.422 134.855 316.508 133.817 310.916C132.779 305.325 134.855 300.213 138.53 299.494C142.204 298.775 146.038 302.689 147.077 308.28Z" fill="#FFBD9E"/>
<path d="M120.478 372.661C133.098 369.067 174.315 432.889 174.315 432.889C185.498 447.906 193.326 458.769 193.326 458.769C193.326 458.769 179.268 458.29 173.676 481.055L153.307 458.929C153.307 458.929 113.768 421.147 108.895 403.494C104.742 388.557 107.937 376.336 120.478 372.661Z" fill="#FFBD9E"/>
<path d="M97.7888 508.525L406.116 508.525L406.116 496.224L97.7888 496.224L97.7888 508.525Z" fill="#D29420"/>
<path d="M167.765 376.256C173.596 374.898 175.753 393.589 175.194 399.979C174.634 406.37 143.562 383.844 140.846 377.933C138.13 372.022 139.728 369.227 142.044 369.946" stroke="#FFFF6C" stroke-width="1.34763" stroke-miterlimit="10"/>
<path d="M182.381 318.474C181.715 319.396 181.482 320.824 181.382 321.994C180.716 329.789 183.506 328.168 182.381 331.046C181.49 333.328 176.609 331.382 175.055 331.046" stroke="#C98659" stroke-width="0.775435" stroke-linecap="round"/>
<path d="M173.676 309.744C172.293 308.199 168.122 306.026 162.506 309.696" stroke="#724422" stroke-width="0.775435" stroke-linecap="round"/>
<path d="M185.451 311.6C187.182 310.459 191.77 309.422 196.264 314.403" stroke="#724422" stroke-width="0.775435" stroke-linecap="round"/>
<path d="M158.93 334.952C162.405 334.711 164.958 330.698 164.632 325.989C164.305 321.28 161.224 317.658 157.749 317.899C154.273 318.139 151.721 322.152 152.047 326.861C152.373 331.57 155.455 335.192 158.93 334.952Z" fill="#F8AC89"/>
<path d="M187.483 317.376C186.98 317.921 186.69 318.582 186.561 319.33C186.47 320.007 186.63 320.73 186.996 321.201C187.133 321.457 187.362 321.672 187.629 321.817C187.896 321.961 188.2 322.036 188.49 322.011C188.78 321.986 189.123 321.991 189.435 321.797C189.709 321.673 190.022 321.479 190.319 321.185C190.821 320.64 191.111 319.979 191.24 319.232C191.331 318.554 191.171 317.831 190.805 317.36C190.668 317.104 190.439 316.889 190.172 316.744C189.906 316.6 189.601 316.525 189.311 316.55C189.022 316.575 188.732 316.599 188.366 316.765C188.001 316.93 187.688 317.124 187.483 317.376Z" fill="#724422"/>
<path d="M167.518 314.332C167.108 314.945 166.875 315.711 166.824 316.461C166.825 317.231 167.066 317.836 167.443 318.236C167.643 318.483 167.9 318.581 168.157 318.68C168.414 318.778 168.7 318.801 168.963 318.73C169.277 318.679 169.568 318.534 169.807 318.369C170.047 318.203 170.315 317.964 170.56 317.63C170.971 317.017 171.204 316.251 171.255 315.501C171.254 314.731 171.013 314.126 170.636 313.726C170.436 313.479 170.178 313.381 169.921 313.283C169.664 313.184 169.379 313.161 169.116 313.232C168.802 313.283 168.511 313.429 168.271 313.594C168.032 313.759 167.764 313.998 167.518 314.332Z" fill="#724422"/>
<path d="M189.13 337.906C189.269 338.078 189.313 338.162 189.32 338.083C189.712 337.074 190.329 334.641 190.908 332.045C191.578 328.976 192.117 325.655 192.117 325.655C192.117 325.655 189.496 325.832 188.159 328.925C186.822 332.018 187.552 335.447 189.13 337.906Z" fill="#FAB18F"/>
<path d="M182.285 342.19C182.285 342.19 168.865 341.871 167.907 340.992C167.028 340.113 168.272 347.143 175.256 347.143C179.189 347.143 182.285 342.19 182.285 342.19Z" fill="#E08A68"/>
<g filter="url(#filter5_d_1_626)">
<path d="M78.4039 263.822C99.3167 263.822 116.27 246.869 116.27 225.956C116.27 205.043 99.3167 188.09 78.4039 188.09C57.491 188.09 40.5378 205.043 40.5378 225.956C40.5378 246.869 57.491 263.822 78.4039 263.822Z" fill="url(#paint6_linear_1_626)"/>
<path d="M72.7959 208.639L58.3728 233.375L64.8089 245.084L71.6327 233.298L79.3095 220.115L72.7959 208.639Z" fill="url(#paint7_linear_1_626)"/>
<path d="M100.401 233.298L86.7538 233.375L71.6328 233.453L64.809 245.239H93.5001L100.401 233.298Z" fill="url(#paint8_linear_1_626)"/>
<path d="M85.5131 208.716L72.3307 208.639L78.8443 220.115L86.2885 233.298L99.9362 233.22L85.5131 208.716Z" fill="url(#paint9_linear_1_626)"/>
</g>
<defs>
<filter id="filter0_d_1_626" x="204.585" y="34.6277" width="79.7321" height="80.7321" filterUnits="userSpaceOnUse" color-interpolation-filters="sRGB">
<feFlood flood-opacity="0" result="BackgroundImageFix"/>
<feColorMatrix in="SourceAlpha" type="matrix" values="0 0 0 0 0 0 0 0 0 0 0 0 0 0 0 0 0 0 127 0" result="hardAlpha"/>
<feOffset dx="4" dy="5"/>
<feColorMatrix type="matrix" values="0 0 0 0 0.509804 0 0 0 0 0.509804 0 0 0 0 0.509804 0 0 0 0.25 0"/>
<feBlend mode="normal" in2="BackgroundImageFix" result="effect1_dropShadow_1_626"/>
<feBlend mode="normal" in="SourceGraphic" in2="effect1_dropShadow_1_626" result="shape"/>
</filter>
<filter id="filter1_d_1_626" x="327.341" y="42.4552" width="79.7321" height="80.7321" filterUnits="userSpaceOnUse" color-interpolation-filters="sRGB">
<feFlood flood-opacity="0" result="BackgroundImageFix"/>
<feColorMatrix in="SourceAlpha" type="matrix" values="0 0 0 0 0 0 0 0 0 0 0 0 0 0 0 0 0 0 127 0" result="hardAlpha"/>
<feOffset dx="4" dy="5"/>
<feColorMatrix type="matrix" values="0 0 0 0 0.509804 0 0 0 0 0.509804 0 0 0 0 0.509804 0 0 0 0.25 0"/>
<feBlend mode="normal" in2="BackgroundImageFix" result="effect1_dropShadow_1_626"/>
<feBlend mode="normal" in="SourceGraphic" in2="effect1_dropShadow_1_626" result="shape"/>
</filter>
<filter id="filter2_d_1_626" x="447.356" y="40.4972" width="79.7321" height="80.7321" filterUnits="userSpaceOnUse" color-interpolation-filters="sRGB">
<feFlood flood-opacity="0" result="BackgroundImageFix"/>
<feColorMatrix in="SourceAlpha" type="matrix" values="0 0 0 0 0 0 0 0 0 0 0 0 0 0 0 0 0 0 127 0" result="hardAlpha"/>
<feOffset dx="4" dy="5"/>
<feColorMatrix type="matrix" values="0 0 0 0 0.509804 0 0 0 0 0.509804 0 0 0 0 0.509804 0 0 0 0.25 0"/>
<feBlend mode="normal" in2="BackgroundImageFix" result="effect1_dropShadow_1_626"/>
<feBlend mode="normal" in="SourceGraphic" in2="effect1_dropShadow_1_626" result="shape"/>
</filter>
<filter id="filter3_d_1_626" x="141.854" y="134.259" width="79.7321" height="80.732" filterUnits="userSpaceOnUse" color-interpolation-filters="sRGB">
<feFlood flood-opacity="0" result="BackgroundImageFix"/>
<feColorMatrix in="SourceAlpha" type="matrix" values="0 0 0 0 0 0 0 0 0 0 0 0 0 0 0 0 0 0 127 0" result="hardAlpha"/>
<feOffset dx="4" dy="5"/>
<feColorMatrix type="matrix" values="0 0 0 0 0.509804 0 0 0 0 0.509804 0 0 0 0 0.509804 0 0 0 0.25 0"/>
<feBlend mode="normal" in2="BackgroundImageFix" result="effect1_dropShadow_1_626"/>
<feBlend mode="normal" in="SourceGraphic" in2="effect1_dropShadow_1_626" result="shape"/>
</filter>
<filter id="filter4_d_1_626" x="530.374" y="140.372" width="79.7321" height="80.732" filterUnits="userSpaceOnUse" color-interpolation-filters="sRGB">
<feFlood flood-opacity="0" result="BackgroundImageFix"/>
<feColorMatrix in="SourceAlpha" type="matrix" values="0 0 0 0 0 0 0 0 0 0 0 0 0 0 0 0 0 0 127 0" result="hardAlpha"/>
<feOffset dx="4" dy="5"/>
<feColorMatrix type="matrix" values="0 0 0 0 0.509804 0 0 0 0 0.509804 0 0 0 0 0.509804 0 0 0 0.25 0"/>
<feBlend mode="normal" in2="BackgroundImageFix" result="effect1_dropShadow_1_626"/>
<feBlend mode="normal" in="SourceGraphic" in2="effect1_dropShadow_1_626" result="shape"/>
</filter>
<filter id="filter5_d_1_626" x="40.5378" y="188.09" width="79.7321" height="80.732" filterUnits="userSpaceOnUse" color-interpolation-filters="sRGB">
<feFlood flood-opacity="0" result="BackgroundImageFix"/>
<feColorMatrix in="SourceAlpha" type="matrix" values="0 0 0 0 0 0 0 0 0 0 0 0 0 0 0 0 0 0 127 0" result="hardAlpha"/>
<feOffset dx="4" dy="5"/>
<feColorMatrix type="matrix" values="0 0 0 0 0.509804 0 0 0 0 0.509804 0 0 0 0 0.509804 0 0 0 0.25 0"/>
<feBlend mode="normal" in2="BackgroundImageFix" result="effect1_dropShadow_1_626"/>
<feBlend mode="normal" in="SourceGraphic" in2="effect1_dropShadow_1_626" result="shape"/>
</filter>
<linearGradient id="paint0_linear_1_626" x1="268.978" y1="45.9375" x2="216.526" y2="98.39" gradientUnits="userSpaceOnUse">
<stop stop-color="white"/>
<stop offset="0.8446" stop-color="white"/>
</linearGradient>
<linearGradient id="paint1_linear_1_626" x1="244.781" y1="57.2087" x2="244.366" y2="87.8356" gradientUnits="userSpaceOnUse">
<stop stop-color="#0091E6"/>
<stop offset="1" stop-color="#0079BF"/>
</linearGradient>
<linearGradient id="paint2_linear_1_626" x1="391.734" y1="53.765" x2="339.282" y2="106.218" gradientUnits="userSpaceOnUse">
<stop stop-color="white"/>
<stop offset="0.8446" stop-color="white"/>
</linearGradient>
<linearGradient id="paint3_linear_1_626" x1="511.749" y1="51.807" x2="459.297" y2="104.26" gradientUnits="userSpaceOnUse">
<stop stop-color="white"/>
<stop offset="0.8446" stop-color="white"/>
</linearGradient>
<linearGradient id="paint4_linear_1_626" x1="206.247" y1="145.568" x2="153.795" y2="198.021" gradientUnits="userSpaceOnUse">
<stop stop-color="white"/>
<stop offset="0.8446" stop-color="white"/>
</linearGradient>
<linearGradient id="paint5_linear_1_626" x1="594.768" y1="151.682" x2="542.315" y2="204.134" gradientUnits="userSpaceOnUse">
<stop stop-color="white"/>
<stop offset="0.8446" stop-color="white"/>
</linearGradient>
<linearGradient id="paint6_linear_1_626" x1="104.932" y1="199.4" x2="52.4788" y2="251.852" gradientUnits="userSpaceOnUse">
<stop stop-color="white"/>
<stop offset="0.8446" stop-color="white"/>
</linearGradient>
<linearGradient id="paint7_linear_1_626" x1="78.3215" y1="218.941" x2="71.284" y2="224.804" gradientUnits="userSpaceOnUse">
<stop offset="0.4908" stop-color="#2EB672"/>
<stop offset="1" stop-color="#2EB672"/>
</linearGradient>
<linearGradient id="paint8_linear_1_626" x1="71.1112" y1="234.185" x2="82.6941" y2="239.249" gradientUnits="userSpaceOnUse">
<stop offset="0.5571" stop-color="#527ABD"/>
<stop offset="1" stop-color="#527ABD"/>
</linearGradient>
<linearGradient id="paint9_linear_1_626" x1="90.6976" y1="234.85" x2="88.4356" y2="227.994" gradientUnits="userSpaceOnUse">
<stop stop-color="#FED14B"/>
<stop offset="1" stop-color="#FED14B"/>
</linearGradient>
</defs>
</svg>
