<svg width="189" height="72" viewBox="0 0 189 72" fill="none" xmlns="http://www.w3.org/2000/svg">
<ellipse cx="94.5286" cy="36.1627" rx="93.55" ry="35.4" fill="white"/>
<path fill-rule="evenodd" clip-rule="evenodd" d="M94.5786 71.5627C146.179 71.5627 188.079 55.7627 188.079 36.1627C188.079 16.6627 146.179 0.762695 94.5786 0.762695C42.8786 0.762695 0.978638 16.6627 0.978638 36.1627C0.978638 55.7627 42.8786 71.5627 94.5786 71.5627Z" fill="#1761C3"/>
<path fill-rule="evenodd" clip-rule="evenodd" d="M94.5786 67.8628C44.9786 67.8628 4.67859 53.7628 4.67859 36.1628C4.67859 18.6628 44.9786 4.36279 94.5786 4.36279C144.279 4.36279 184.579 18.6628 184.579 36.2628C184.479 53.7628 144.279 67.8628 94.5786 67.8628Z" fill="white"/>
<path fill-rule="evenodd" clip-rule="evenodd" d="M94.5786 65.4626C142.679 65.4626 181.679 52.3626 181.679 36.1626C181.679 20.0626 142.679 6.96265 94.5786 6.96265C46.3786 6.96265 7.47864 20.0626 7.47864 36.1626C7.47864 52.3626 46.3786 65.4626 94.5786 65.4626Z" fill="#1761C3"/>
<path fill-rule="evenodd" clip-rule="evenodd" d="M117.379 42.0626C121.479 38.1626 123.779 34.1626 129.679 34.2626C133.279 34.3626 134.179 37.1626 134.779 38.3626L142.579 25.1626H147.379L134.479 48.0626C134.279 48.5626 133.679 49.4626 133.679 50.1626C133.779 51.2626 135.279 50.9626 134.679 50.9626C137.279 50.8626 142.079 45.8626 143.179 44.6626C143.379 44.3626 143.879 43.8626 144.079 43.8626C144.279 43.8626 144.779 44.0626 144.779 44.4626C144.779 44.6626 144.279 45.5626 143.779 46.1626C141.379 49.1626 137.379 53.8626 132.879 53.9626C130.679 53.9626 129.779 53.0626 129.479 51.2626C128.479 52.1626 124.979 53.7626 121.379 53.7626C118.379 53.6626 117.179 51.9626 116.579 50.5626C116.079 49.4626 115.779 47.7626 116.179 46.0626C114.579 46.8626 113.079 47.0626 110.879 46.9626C108.379 46.8626 106.779 45.7626 105.979 42.7626C103.079 48.0626 102.979 48.2626 99.9786 53.7626H94.9786L101.579 42.5626C102.379 41.0626 102.879 39.8626 103.179 38.5626C103.379 37.8626 102.779 37.1626 102.079 37.1626C101.279 37.1626 99.8786 37.9626 98.4786 39.2626C98.4786 39.2626 95.0786 42.8626 92.5786 46.5626C90.1786 50.0626 86.1786 54.0626 81.7786 54.0626C78.5786 54.0626 75.6786 52.3626 75.0786 48.9626C75.0786 48.9626 74.7786 49.7626 71.9786 51.3626C71.7786 51.4626 71.1786 51.8626 70.9786 51.7626C70.4786 51.2626 70.1786 50.6626 70.0786 50.2626C70.2786 50.3626 70.5786 50.0626 71.7786 49.1626C73.9786 47.4626 74.4786 46.1626 74.4786 46.1626C74.9786 45.0626 75.9786 43.1626 76.6786 41.9626C78.4786 38.3626 81.5786 34.6626 86.7786 34.4626C87.5786 34.4626 87.8786 34.8626 88.0786 35.1626C88.5786 35.5626 88.3786 36.2626 88.3786 36.2626C84.7786 36.7626 82.2786 38.9626 80.7786 40.9626C79.8786 42.2626 78.8786 44.4626 78.6786 46.0626C78.2786 48.7626 79.5786 50.5626 81.4786 50.9626C84.9786 51.4626 87.8786 48.9626 90.1786 45.0626C90.7786 44.0626 91.1786 41.3626 91.1786 39.9626C91.1786 38.5626 90.3786 36.9626 89.7786 36.3626C89.7786 35.3626 90.4786 34.6626 91.1786 34.6626C91.3786 34.6626 91.6786 34.6626 91.8786 34.8626C93.0786 36.0626 93.7786 38.3626 93.7786 40.0626C93.7786 40.6626 93.7786 41.2626 93.6786 41.8626C96.1786 38.7626 99.3786 34.7626 101.879 34.0626C102.379 33.8626 102.879 33.8626 103.279 33.8626C107.779 33.7626 107.179 37.8626 107.179 37.8626C109.579 35.0626 111.279 34.0626 113.479 34.1626C115.879 34.2626 116.779 35.9626 116.779 37.2626C116.679 38.8626 115.579 40.6626 113.579 40.6626C111.779 40.6626 110.779 39.8626 110.279 38.2626C109.179 38.6626 108.579 39.4626 108.379 41.0626C107.979 43.0626 109.479 44.6626 111.479 44.6626C114.679 44.5626 116.179 43.1626 117.379 42.0626Z" fill="white"/>
<path fill-rule="evenodd" clip-rule="evenodd" d="M120.979 16.0627C120.979 17.9627 114.179 21.6627 108.479 21.6627C99.5787 21.6627 90.2787 17.3627 85.9787 16.4627C81.3787 15.3627 77.0787 14.4627 73.7787 14.4627C62.1787 14.4627 56.9787 19.4627 57.1787 24.0627C57.2787 25.9627 58.7787 27.1627 61.0787 26.7627C63.4787 26.3627 66.8787 24.0627 67.6787 22.0627C67.8787 21.6627 68.3787 21.5627 68.4787 21.6627C68.8787 21.9627 68.6787 22.3627 68.6787 22.3627C68.3787 24.7627 64.7787 31.2627 58.4787 31.2627C54.9787 31.2627 52.5787 27.9627 52.6787 24.7627C52.7787 18.7627 58.8787 12.7627 73.8787 12.7627C76.6787 12.7627 79.8787 12.9627 83.3787 13.5627C87.3787 14.2627 97.4787 15.9627 105.679 16.0627C108.679 16.0627 112.579 16.1627 115.679 15.6627C118.979 15.1627 118.279 14.9627 119.579 14.9627C120.979 15.0627 120.979 15.5627 120.979 16.0627Z" fill="white"/>
<path fill-rule="evenodd" clip-rule="evenodd" d="M129.879 37.0628C127.779 36.8628 125.079 38.6628 122.979 41.2628C121.879 42.5628 120.779 45.1628 120.579 46.6628C120.379 48.1628 120.779 49.6628 121.279 50.0628C121.779 50.4628 124.279 51.7628 127.979 47.9628C130.079 45.8628 132.179 42.3628 132.179 42.3628L131.479 42.1628C132.779 39.8628 132.479 37.3628 129.879 37.0628Z" fill="#1761C3"/>
<path fill-rule="evenodd" clip-rule="evenodd" d="M85.7787 29.8628C85.7787 30.5628 86.6787 31.0628 87.4787 31.1628C87.2787 31.8628 87.3787 32.1628 87.0787 32.0628C85.2787 32.0628 84.5787 30.3628 84.5787 30.3628C82.1787 30.7628 79.7787 31.0628 75.0787 31.5628C62.9787 50.9628 59.2787 54.1628 51.8787 54.1628C46.6787 54.1628 41.9787 50.7628 41.8787 44.5628C41.7787 40.8628 44.8787 36.2628 50.4787 34.8628C51.1787 34.8628 51.3787 35.0628 51.3787 35.4628C51.3787 35.6628 51.1787 35.9628 50.5787 36.2628C48.9787 36.8628 46.0787 40.0628 46.0787 43.0628C46.0787 45.2628 47.4787 47.7628 49.7787 48.2628C50.4787 48.4628 51.0787 48.3628 51.6787 48.3628C57.5787 48.3628 64.0787 41.7628 71.1787 31.7628C70.0787 31.8628 65.1787 32.3628 63.9787 33.7628C63.4787 34.1628 63.0787 33.9628 62.9787 33.4628C62.9787 33.3628 63.1787 32.9628 63.3787 32.6628C65.2787 30.4628 71.0787 29.9628 72.4787 29.8628C77.8787 21.5628 84.8787 16.3628 86.3787 16.3628C86.5787 16.3628 87.1787 16.7628 86.8787 17.3628C86.7787 17.4628 86.1787 18.1628 85.9787 18.3628C84.7787 19.4628 80.6787 22.0628 76.1787 29.6628C79.7787 29.4628 83.9787 28.7628 83.9787 28.7628C83.9787 28.7628 83.7787 27.9628 83.7787 27.3628C83.9787 24.7628 85.4787 23.1628 87.3787 23.4628C88.4787 23.6628 89.1787 24.5628 89.1787 25.5628C89.1787 26.5628 88.3787 28.0628 87.5787 28.8628C87.1787 29.1628 86.4787 29.5628 85.7787 29.8628Z" fill="white"/>
<path fill-rule="evenodd" clip-rule="evenodd" d="M85.4787 28.5628C85.4787 28.5628 86.0787 28.6628 86.9787 27.5628C87.3787 27.1628 87.9787 26.1628 87.7787 25.3628C87.6787 24.9628 87.5787 24.5628 87.0787 24.6628C86.1787 24.8628 85.6787 25.2628 85.3787 26.1628C85.1787 27.1628 85.2787 27.8628 85.4787 28.5628Z" fill="#1761C3"/>
</svg>
